<svg xmlns="http://www.w3.org/2000/svg" viewBox="0 0 50 50" height="1920" width="1920"><defs></defs><path d="M8.577 31.638c-.976 1.92-.437 4.059.251 6.332a10.618 10.618 0 0 0 4.216 5.847C21.352 49.3 35 43.3 39.172 37.454c2.276-3.189.416-2.821-1.026-3.067a13.831 13.831 0 0 1-4.813-1.487c-3.742-2.243-6.558-6.231-11.06-6.976-4.4-.729-9.116 1.138-12.388 4.057a5.68 5.68 0 0 0-1.308 1.657z" fill="#6dd627"></path><path d="M38.146 34.387a13.831 13.831 0 0 1-4.813-1.487c-3.742-2.243-6.558-6.231-11.06-6.976-4.4-.729-9.116 1.138-12.388 4.057a5.689 5.689 0 0 0-1.308 1.652 4.764 4.764 0 0 0-.406 1.2 6.3 6.3 0 0 1 .667-.7c3.272-2.919 7.984-4.786 12.387-4.057 4.5.745 7.318 4.733 11.06 6.976A13.853 13.853 0 0 0 37.1 36.54c.955.162 2.087.062 2.085.9 2.255-3.173.4-2.807-1.039-3.053z" fill="#9ceb60"></path><path d="M8.577 31.638c-.976 1.92-.437 4.059.251 6.332a10.618 10.618 0 0 0 4.216 5.847C21.352 49.3 35 43.3 39.172 37.454c2.276-3.189.416-2.821-1.026-3.067a13.831 13.831 0 0 1-4.813-1.487c-3.742-2.243-6.558-6.231-11.06-6.976-4.4-.729-9.116 1.138-12.388 4.057a5.68 5.68 0 0 0-1.308 1.657z" fill="none" stroke="#45413c" stroke-linecap="round" stroke-linejoin="round" stroke-width="1.25px"></path><path d="M12.507 34.072a8.078 8.078 0 0 0 .851 5.181m4.279-2.43a8.14 8.14 0 0 0 2.651 5.109m3.417-3.244a8.1 8.1 0 0 0 2.407 3.231m-6.137-11.784A8.28 8.28 0 0 0 16.7 33.3m8.23-.262a8.058 8.058 0 0 0-3.339 2.741" stroke="#46b000" stroke-linecap="round" stroke-linejoin="round" stroke-width="1.25px" fill="none"></path><path d="M6.578 24.712a17.006 17.006 0 0 0 2.4 2.945 36.145 36.145 0 0 0 6.337 4.782 33.442 33.442 0 0 0 7.1 3.638 16.758 16.758 0 0 0 6.885 1.338c1.628-.134 1.344 1.385.623 1.465a23.413 23.413 0 0 1-8.168-.6 31.836 31.836 0 0 1-7.893-3.416 34.654 34.654 0 0 1-7.025-5.023 20.049 20.049 0 0 1-2.871-3.454l-.029-.045a1.557 1.557 0 0 1 2.434-1.915 2.025 2.025 0 0 1 .207.285z" fill="#46b000" stroke-linecap="round" stroke-linejoin="round" stroke-width="1.25px" stroke="#45413c"></path><path d="M42.235 9.975c.929 1.266.794 2.869.567 4.585a7.737 7.737 0 0 1-2.343 4.705c-5.33 4.925-15.858 2.22-19.55-1.494-2.014-2.026-.632-1.98.376-2.327a10.088 10.088 0 0 0 3.288-1.636c2.427-2.055 3.983-5.257 7.134-6.325A11.337 11.337 0 0 1 41.1 8.94a4.1 4.1 0 0 1 1.135 1.035z" fill="#9ceb60"></path><path d="M21.285 15.444a10.088 10.088 0 0 0 3.288-1.636c2.427-2.055 3.983-5.257 7.134-6.325A11.337 11.337 0 0 1 41.1 8.94a4.1 4.1 0 0 1 1.136 1.035 3.446 3.446 0 0 1 .434.818 4.574 4.574 0 0 0-.562-.428 11.337 11.337 0 0 0-9.392-1.457c-3.151 1.067-4.706 4.269-7.134 6.325a10.066 10.066 0 0 1-3.288 1.635c-.668.23-1.494.291-1.394.893-2-2.015-.621-1.971.385-2.317z" fill="#c8ffa1"></path><path d="M42.235 9.975c.929 1.266.794 2.869.567 4.585a7.737 7.737 0 0 1-2.343 4.705c-5.33 4.925-15.858 2.22-19.55-1.494-2.014-2.026-.632-1.98.376-2.327a10.088 10.088 0 0 0 3.288-1.636c2.427-2.055 3.983-5.257 7.134-6.325A11.337 11.337 0 0 1 41.1 8.94a4.1 4.1 0 0 1 1.135 1.035z" fill="none" stroke="#45413c" stroke-linecap="round" stroke-linejoin="round" stroke-width="1.25px"></path><path d="M39.7 12.19a5.889 5.889 0 0 1 0 3.829m-3.371-1.21a5.927 5.927 0 0 1-1.3 3.955m-2.846-1.931a5.914 5.914 0 0 1-1.35 2.609m3.024-9.203a6.044 6.044 0 0 1 2.731 1.891m-5.953.783a5.868 5.868 0 0 1 2.726 1.578" stroke="#6dd627" stroke-linecap="round" stroke-linejoin="round" stroke-width="1.25px" fill="none"></path><path d="M42.856 4.755a12.369 12.369 0 0 1-1.377 2.4 26.352 26.352 0 0 1-3.995 4.188 24.324 24.324 0 0 1-4.676 3.457 12.227 12.227 0 0 1-4.8 1.777c-1.187.095-.8 1.154-.275 1.127a17.093 17.093 0 0 0 5.806-1.392 23.245 23.245 0 0 0 5.276-3.39A25.308 25.308 0 0 0 43.28 8.48a14.587 14.587 0 0 0 1.657-2.825l.016-.035a1.136 1.136 0 0 0-1.978-1.091 1.463 1.463 0 0 0-.119.226z" stroke-linecap="round" stroke-linejoin="round" stroke-width="1.25px" stroke="#45413c" fill="#6dd627"></path><path d="M36.3 29.123a29.15 29.15 0 0 0 6.089-3.11 9.8 9.8 0 0 0 3.942-5.432M7.34 7.894A14.745 14.745 0 0 0 13.611 22.1m-.882-13.572a5.449 5.449 0 0 0 1.36 5.132" fill="none" stroke="#45413c" stroke-linecap="round" stroke-linejoin="round" stroke-width="1.25px"></path></svg>