<svg xmlns="http://www.w3.org/2000/svg" viewBox="0 0 50 50" height="1920" width="1920"><defs></defs><path d="M45.739 29.3c-1.517 8.366-9.321 15.469-20.818 15.469S5.22 37.743 4.1 29.3C1.82 12.012 12.586 5.236 24.084 5.236S48.872 12.012 45.739 29.3z" fill="#fff48c"></path><path d="M24.084 5.236c-.848 0-1.691.041-2.526.116 10.426 1.332 20.729 8.382 17.931 23.818-1.4 7.722-8.165 14.355-18.238 15.332a26.773 26.773 0 0 0 3.67.262c11.5 0 19.3-7.1 20.818-15.469C48.872 12.012 35.581 5.236 24.084 5.236z" fill="#87898c"></path><path d="M24 10.236c-9.689 0-18.857 4.815-20.134 16.673C2.842 11.385 13.131 5.236 24.084 5.236c11.062 0 23.784 6.273 21.94 22.143C44.929 15.181 33.815 10.236 24 10.236z" fill="#fffacf"></path><path d="M36.47 13.155c-3.5-4.618-9.188-7.072-14.91-7.8a27.222 27.222 0 0 1 14.805 2.7l.056.028a18.8 18.8 0 0 1 5.379 4.083l.01.012c1.5 1.661 5.256 6.256 4.217 15.2a17.248 17.248 0 0 0-9.557-14.223z" fill="#bdbec0"></path><path d="M45.739 29.3c-1.517 8.366-9.321 15.469-20.818 15.469S5.22 37.743 4.1 29.3C1.82 12.012 12.586 5.236 24.084 5.236S48.872 12.012 45.739 29.3z" fill="none" stroke="#45413c" stroke-linecap="round" stroke-linejoin="round" stroke-width="1.25px"></path><path d="M45.739 29.3c-1.517 8.366-9.321 15.469-20.818 15.469S5.22 37.743 4.1 29.3C1.82 12.012 12.586 5.236 24.084 5.236S48.872 12.012 45.739 29.3z" fill="none" stroke="#45413c" stroke-linecap="round" stroke-linejoin="round" stroke-width="1.25px"></path><path d="M30.593 16.845a1.477 1.477 0 0 0 .877 1.439c.664.324 1.5.133 1.545-.7.04-.722-.326-1.711-1.143-1.811a1.214 1.214 0 0 0-1.279 1.072z" fill="#f2c100"></path><path d="M41.478 30.75a1.331 1.331 0 0 0-1.038-1.029h-.075a1.221 1.221 0 0 0-1.2 1.072 1.476 1.476 0 0 0 .876 1.439 1.528 1.528 0 0 0 .256.1.921.921 0 0 0 1.289-.8 2.25 2.25 0 0 0-.108-.782z" fill="#525252"></path><circle cx="18.164" cy="27.844" r="1.4" fill="#45413c"></circle><path d="M21.079 33.7c.4 1.262 2.214 2.217 4.393 2.217s3.994-.955 4.395-2.217" fill="none" stroke="#45413c" stroke-linecap="round" stroke-linejoin="round" stroke-width="1.25px"></path><circle cx="32.765" cy="27.844" r="1.4" fill="#45413c"></circle><path d="M35.753 16.194a3.791 3.791 0 0 0 2.252 3.7c1.708.833 3.852.341 3.97-1.8.1-1.855-.836-4.4-2.937-4.653a3.115 3.115 0 0 0-3.285 2.753z" fill="#ffe500"></path><path d="M39.038 13.44a3.115 3.115 0 0 0-3.285 2.754 2.655 2.655 0 0 0 .019.97l.01-.012a2.954 2.954 0 0 1 3.006-1.879c.017 0 .032.01.049.012a3.4 3.4 0 0 1 2.592 2.534c.027.083.045.169.068.253.036.126.076.252.1.38.045.214.1.641.1.642l.013.029a2.532 2.532 0 0 0 .263-1.031c.106-1.854-.834-4.392-2.935-4.652z" fill="#f2c100"></path><path d="M41.585 24.046a2.162 2.162 0 0 0-.158 2.465c.525.949 1.688 1.421 2.445.46.655-.833 1.049-2.33.151-3.137a1.778 1.778 0 0 0-2.438.212z" fill="#656769"></path><path d="M44.023 23.834a1.778 1.778 0 0 0-2.438.212 1.851 1.851 0 0 0-.453 1.508 1.479 1.479 0 0 1 .263-.382 1.778 1.778 0 0 1 2.438-.212 1.612 1.612 0 0 1 .52 1.124v.005a2.017 2.017 0 0 0-.33-2.255z" fill="#525252"></path><path d="M35.343 24.1a1.477 1.477 0 0 0 .877 1.439c.664.324 1.5.133 1.545-.7.04-.722-.326-1.711-1.143-1.811a1.214 1.214 0 0 0-1.279 1.072z" fill="#ffe500"></path><path d="M36.622 23.023a1.214 1.214 0 0 0-1.279 1.077 1.061 1.061 0 0 0 .051.533l.005-.019a1.144 1.144 0 0 1 1.16-.711 1.449 1.449 0 0 1 1.107 1.309v.014a1.015 1.015 0 0 0 .1-.387c.039-.727-.327-1.716-1.144-1.816z" fill="#f2c100"></path><path d="M30.7 10.773a2.165 2.165 0 0 0 1.285 2.11c.975.475 2.2.2 2.267-1.026.058-1.059-.478-2.511-1.677-2.656a1.778 1.778 0 0 0-1.875 1.572z" fill="#ffe500"></path><path d="M32.57 9.2a1.778 1.778 0 0 0-1.87 1.573 1.559 1.559 0 0 0 .065.755v-.005a1.7 1.7 0 0 1 1.744-1.135 2.135 2.135 0 0 1 1.627 1.95v.013a1.5 1.5 0 0 0 .108-.494c.061-1.057-.475-2.511-1.674-2.657z" fill="#f2c100"></path><path d="M45.739 29.3c-1.517 8.366-9.321 15.469-20.818 15.469S5.22 37.743 4.1 29.3C1.82 12.012 12.586 5.236 24.084 5.236S48.872 12.012 45.739 29.3z" fill="none" stroke="#45413c" stroke-linecap="round" stroke-linejoin="round" stroke-width="1.25px"></path><path d="M39.038 13.44a2.693 2.693 0 0 0-1.979.547 17 17 0 0 1 2.532 6.287 2.2 2.2 0 0 0 2.384-2.181c.104-1.855-.836-4.393-2.937-4.653z" fill="#ffe500"></path><path d="M39.038 13.44a3.115 3.115 0 0 0-3.285 2.754 2.655 2.655 0 0 0 .019.97l.01-.012a2.954 2.954 0 0 1 3.006-1.879c.017 0 .032.01.049.012a3.4 3.4 0 0 1 2.592 2.534c.027.083.045.169.068.253.036.126.076.252.1.38.045.214.1.641.1.642l.013.029a2.532 2.532 0 0 0 .263-1.031c.106-1.854-.834-4.392-2.935-4.652z" fill="#f2c100"></path><path d="M39.038 13.44a2.693 2.693 0 0 0-1.979.547 17 17 0 0 1 2.532 6.287 2.2 2.2 0 0 0 2.384-2.181c.104-1.855-.836-4.393-2.937-4.653z" fill="#656769"></path><path d="M39.038 13.44a2.682 2.682 0 0 0-1.978.547q.428.642.8 1.336c.874-.205 2.721-.062 3.57 2.5a7 7 0 0 1 .27 1.277l.012.028.013-.026a2.586 2.586 0 0 0 .251-1c.103-1.864-.837-4.402-2.938-4.662z" fill="#525252"></path></svg>