<svg xmlns="http://www.w3.org/2000/svg" viewBox="0 0 50 50" height="1920" width="1920"><defs></defs><path d="M28.183 47.328c6.785-1.462 11.043-3.744 14.369-7.934a1.281 1.281 0 0 0-.534-1.97c-8.57-3.621-8.944-11.949-7.352-20.4L8.991 24.22h0c.085 9.28-1.676 16.961 6.318 21.68l5.473 1.333a16.557 16.557 0 0 0 7.401.095z" stroke-linecap="round" stroke-linejoin="round" stroke-width="1.25px" stroke="#45413c" fill="#00c9d4"></path><path d="M18.61 32.364c1.281 6.435 4.964 9.242 8.9 10.4M26.7 29.5c1.281 6.435 4.963 9.242 8.9 10.4" fill="none" stroke="#a6fbff" stroke-linecap="round" stroke-linejoin="round" stroke-width="1.25px"></path><path d="M47.238 17.329c-.057-.1-.118-.2-.182-.3a11.752 11.752 0 0 0-3.031-2.893c-1.606-1.161-3.143-2.424-4.843-3.452a21.8 21.8 0 0 0-11.362-3.4 20.447 20.447 0 0 0-5.108.7C10.667 11.18 4.6 21.9 7.022 34.118c1.889 9.543 8.109 13.529 16.324 13.529-18.553-5.654-12.288-21.582-12.288-21.582 1.125 1.884 4.917 3.77 7.358 3.392a7.218 7.218 0 0 0 5.685-5.2 7.228 7.228 0 0 0 7.349 1.862 10.687 10.687 0 0 0 4.7-3.533 6.836 6.836 0 0 0 11.039-.306 4.742 4.742 0 0 0 .049-4.951z" fill="#a6fbff"></path><path d="M9.418 36.88C7 24.657 13.063 13.942 25.108 10.749a20.447 20.447 0 0 1 5.108-.7 21.794 21.794 0 0 1 11.362 3.4c1.7 1.027 3.237 2.29 4.842 3.452.33.238.661.485.984.744a5.623 5.623 0 0 0-.348-.617 11.752 11.752 0 0 0-3.031-2.893c-1.606-1.161-3.143-2.424-4.843-3.451a21.8 21.8 0 0 0-11.363-3.4 20.5 20.5 0 0 0-5.107.7C10.667 11.18 4.6 21.9 7.022 34.118c.871 4.4 2.664 7.62 5.148 9.812a19.435 19.435 0 0 1-2.752-7.05z" fill="#ffffff"></path><path d="M47.238 17.329c-.057-.1-.118-.2-.182-.3a11.752 11.752 0 0 0-3.031-2.893c-1.606-1.161-3.143-2.424-4.843-3.452a21.8 21.8 0 0 0-11.362-3.4 20.447 20.447 0 0 0-5.108.7C10.667 11.18 4.6 21.9 7.022 34.118c1.889 9.543 8.109 13.529 16.324 13.529-18.553-5.654-12.288-21.582-12.288-21.582 1.125 1.884 4.917 3.77 7.358 3.392a7.218 7.218 0 0 0 5.685-5.2 7.228 7.228 0 0 0 7.349 1.862 10.687 10.687 0 0 0 4.7-3.533 6.836 6.836 0 0 0 11.039-.306 4.742 4.742 0 0 0 .049-4.951z" fill="none" stroke-linecap="round" stroke-linejoin="round" stroke-width="1.25px" stroke="#45413c"></path><circle cx="18.438" cy="25.206" r="1.079" fill="#ffffff"></circle><circle cx="36.09" cy="17.027" r="1.079" fill="#ffffff"></circle><circle cx="20.596" cy="19.185" r="1.079" fill="#ffffff"></circle><circle cx="29.098" cy="20.329" r="2.045" fill="#ffffff"></circle><circle cx="41.572" cy="20.674" r="2.045" fill="#ffffff"></circle><circle cx="9.72" cy="6.379" r="2.863" stroke="#45413c" stroke-linecap="round" stroke-linejoin="round" stroke-width="1.25px" fill="#a6fbff"></circle><circle cx="45.58" cy="30.264" r="2.331" stroke="#45413c" stroke-linecap="round" stroke-linejoin="round" stroke-width="1.25px" fill="#a6fbff"></circle><circle cx="42.823" cy="8.33" r="1.951" stroke="#45413c" stroke-linecap="round" stroke-linejoin="round" stroke-width="1.25px" fill="#a6fbff"></circle><circle cx="31.639" cy="4.073" r="1.774" stroke="#45413c" stroke-linecap="round" stroke-linejoin="round" stroke-width="1.25px" fill="#a6fbff"></circle><circle cx="4.152" cy="19.185" r="2.062" stroke="#45413c" stroke-linecap="round" stroke-linejoin="round" stroke-width="1.25px" fill="#a6fbff"></circle></svg>