<svg xmlns="http://www.w3.org/2000/svg" viewBox="0 0 50 50" height="1920" width="1920"><path d="M5.553 38.316C11.3 17.357 32 3.609 45.14 1.494 36.282 8.319 27.6 23.3 22.631 41.864" fill="#fff48c"></path><path d="M5.553 38.316C11.3 17.357 32 3.609 45.14 1.494 36.282 8.319 27.6 23.3 22.631 41.864" stroke-linecap="round" stroke-linejoin="round" stroke-width="1.25px" stroke="#f2c100" fill="none"></path><path d="M20.45 32.136A65.571 65.571 0 0 1 45.14 1.494C32.056 4.722 19.193 19.61 13.279 30.785l2.783 2.452 4.719-1.184" fill="#ffe500" stroke-linecap="round" stroke-linejoin="round" stroke-width="1.25px" stroke="#f2c100"></path><path d="M16.9 44.268 13.78 48a1.411 1.411 0 0 1-2.459-.6l-1.063-4.747-4.513-1.814a1.411 1.411 0 0 1-.192-2.523l4.186-2.478.332-4.854a1.412 1.412 0 0 1 2.341-.963l3.65 3.216 4.719-1.184a1.412 1.412 0 0 1 1.639 1.929l-1.931 4.465 2.584 4.122a1.411 1.411 0 0 1-1.327 2.155z" stroke="#45413c" fill="#ffe500" stroke-linecap="round" stroke-linejoin="round" stroke-width="1.25px"></path></svg>