<svg xmlns="http://www.w3.org/2000/svg" viewBox="0 0 50 50" height="1920" width="1920"><defs></defs><path d="M36.623 3.65a1.4 1.4 0 0 0-1.91 1.855c1.848 3.738 2.552 8.476 1.488 14.346-1.628 8.981-10.001 16.606-22.348 16.606A26.755 26.755 0 0 1 3.9 34.62a1.41 1.41 0 0 0-1.693 2.117c4.115 5.773 11.6 9.775 20.982 9.775 13.433 0 22.551-8.3 24.323-18.074C49.851 15.557 44.379 7.672 36.623 3.65z" fill="#fff48c"></path><path d="M47.516 28.438c1.942-10.71-1.516-17.966-7.193-22.42v.018c3.462 4.449 5.181 10.643 3.685 18.9-1.772 9.775-10.89 18.075-24.324 18.075A26.9 26.9 0 0 1 2.8 37.5h-.019C7 42.858 14.233 46.512 23.193 46.512c13.433 0 22.551-8.3 24.323-18.074z" fill="#ffe500"></path><path d="M36.623 3.65a1.4 1.4 0 0 0-1.91 1.855c1.848 3.738 2.552 8.476 1.488 14.346-1.628 8.981-10.001 16.606-22.348 16.606A26.755 26.755 0 0 1 3.9 34.62a1.41 1.41 0 0 0-1.693 2.117c4.115 5.773 11.6 9.775 20.982 9.775 13.433 0 22.551-8.3 24.323-18.074C49.851 15.557 44.379 7.672 36.623 3.65z" fill="none" stroke="#45413c" stroke-linecap="round" stroke-linejoin="round" stroke-width="1.25px"></path><path d="M41.286 25.285a1.478 1.478 0 0 0 .876 1.439c.665.324 1.5.133 1.545-.7.041-.722-.325-1.712-1.143-1.811a1.213 1.213 0 0 0-1.278 1.072zm-24 15a1.478 1.478 0 0 0 .876 1.439c.665.324 1.5.133 1.545-.7.041-.722-.325-1.712-1.143-1.811a1.213 1.213 0 0 0-1.278 1.072z" fill="#f2c100"></path><path d="M26.545 38.936a2.165 2.165 0 0 0-1.563 1.913c-.124 1.078.547 2.139 1.722 1.8 1.018-.3 2.209-1.285 1.947-2.464a1.777 1.777 0 0 0-2.106-1.249z" fill="#ffe500"></path><path d="M26.545 38.936a1.777 1.777 0 0 1 2.106 1.246 2.027 2.027 0 0 1-1.057 2.043 1.862 1.862 0 0 0 .252-1.276 1.741 1.741 0 0 0-2.062-1.219c-.149.025-.458.153-.474.152a1.842 1.842 0 0 1 1.235-.946z" fill="#f2c100"></path><path d="M43.321 18.692a2.164 2.164 0 0 0 .158 2.466c.642.873 1.856 1.193 2.483.143.544-.91.744-2.444-.25-3.13a1.777 1.777 0 0 0-2.391.521z" fill="#ffe500"></path><path d="M43.321 18.692a1.777 1.777 0 0 1 2.391-.521 2.028 2.028 0 0 1 .616 2.216 1.858 1.858 0 0 0-.684-1.105 1.739 1.739 0 0 0-2.341.51c-.091.12-.231.423-.243.434a1.844 1.844 0 0 1 .261-1.534z" fill="#f2c100"></path><path d="M37.665 18.1a1.477 1.477 0 0 0 .267 1.664c.493.551 1.337.689 1.7-.064.31-.653.346-1.707-.373-2.108a1.212 1.212 0 0 0-1.594.508z" fill="#ffe500"></path><path d="M39.254 17.593c.719.4.683 1.455.373 2.108a.991.991 0 0 1-.236.323 1.454 1.454 0 0 0-.526-1.645 1.148 1.148 0 0 0-1.355.23 1.081 1.081 0 0 1 .155-.508 1.212 1.212 0 0 1 1.589-.508z" fill="#f2c100"></path></svg>