<svg xmlns="http://www.w3.org/2000/svg" viewBox="0 0 50 50" height="1920" width="1920"><defs></defs><path d="M20.7 45.725c.648.916 2.948 3.261 4.942 2.024 3.819-2.369-8.074-18.01-10.649-16.466-2.351 1.41 1.093 7.922 5.707 14.442z" stroke="#45413c" stroke-linecap="round" stroke-linejoin="round" stroke-width="1.25px" fill="#6dd627"></path><path d="M24.6 47.574a1.415 1.415 0 0 1-1.407-1.274 107.839 107.839 0 0 1-.208-13.1c.048-1.911.1-3.885.308-5.844.156-1.452.4-2.894.636-4.29a1.416 1.416 0 0 1 2.792.471v0c-.229 1.354-.466 2.753-.613 4.12-.2 1.843-.246 3.758-.292 5.61a105.561 105.561 0 0 0 .2 12.76 1.415 1.415 0 0 1-1.272 1.545 1.288 1.288 0 0 1-.144.002z" fill="#9ceb60" stroke="#45413c" stroke-linecap="round" stroke-linejoin="round" stroke-width="1.25px"></path><path d="M25.073 48.1a9.826 9.826 0 0 1-1.645-.141c-5.584-1.885 7.372-21.032 11.847-18.028 1.144.768-.006 2.837-.492 3.693-1.189 2.1-2.432 4.233-3.519 6.411-1.063 2.128-1.691 4.5-3.112 6.438a3.768 3.768 0 0 1-3.079 1.627z" fill="#9ceb60" stroke="#45413c" stroke-linecap="round" stroke-linejoin="round" stroke-width="1.25px"></path><path d="M36.007 17.469C36.007 25.12 31.079 28.9 25 28.9s-11.007-3.78-11.007-11.431c0-4.678 4.124-10.3 7.329-13.958a5.039 5.039 0 0 1 7.4.008c3.186 3.661 7.285 9.275 7.285 13.95z" fill="#e04122" stroke="#45413c" stroke-linecap="round" stroke-linejoin="round" stroke-width="1.25px"></path><path d="M29.741 18.61c4.137 4.9-3.732 9.575-8.335 9.575s-8.335-3.164-8.335-9.575a48.13 48.13 0 0 0-.9-9.683 1.221 1.221 0 0 1 .6-1.333c1.694-.924 6.499-1.379 16.97 11.016z" fill="#ff866e"></path><path d="M19 8.661c-2.346 3.488-4.482 7.661-4.482 11.3a15.255 15.255 0 0 0 1.082 5.923 7.943 7.943 0 0 0 5.806 2.3c4.6 0 12.472-4.678 8.335-9.575-4.606-5.451-8.114-8.416-10.741-9.948z" fill="#ff6242"></path><path d="M29.741 18.61c4.137 4.9-3.732 9.575-8.335 9.575s-8.335-3.164-8.335-9.575a48.13 48.13 0 0 0-.9-9.683 1.221 1.221 0 0 1 .6-1.333c1.694-.924 6.499-1.379 16.97 11.016z" fill="none" stroke="#45413c" stroke-linecap="round" stroke-linejoin="round" stroke-width="1.25px"></path><path d="M20.259 18.61c-4.137 4.9 3.732 9.575 8.335 9.575s8.335-3.164 8.335-9.575a48.13 48.13 0 0 1 .9-9.683 1.221 1.221 0 0 0-.6-1.333c-1.694-.924-6.499-1.379-16.97 11.016z" fill="#ff866e"></path><path d="M34.4 25.884a15.251 15.251 0 0 0 1.086-5.926c0-3.638-2.13-7.816-4.467-11.306-2.632 1.53-6.145 4.5-10.76 9.958-4.137 4.9 3.732 9.575 8.335 9.575a7.942 7.942 0 0 0 5.806-2.301z" fill="#ff6242"></path><path d="M20.259 18.61c-4.137 4.9 3.732 9.575 8.335 9.575s8.335-3.164 8.335-9.575a48.13 48.13 0 0 1 .9-9.683 1.221 1.221 0 0 0-.6-1.333c-1.694-.924-6.499-1.379-16.97 11.016z" fill="none" stroke="#45413c" stroke-linecap="round" stroke-linejoin="round" stroke-width="1.25px"></path><path d="M33.335 19.457c0 6.41-3.732 9.574-8.335 9.574s-8.335-3.164-8.335-9.574c0-4.234 3.644-9.388 6.118-12.4a2.882 2.882 0 0 1 4.466 0c2.463 3.018 6.086 8.169 6.086 12.4z" fill="#ffa694" stroke="#45413c" stroke-linecap="round" stroke-linejoin="round" stroke-width="1.25px"></path></svg>