<svg xmlns="http://www.w3.org/2000/svg" viewBox="0 0 50 50" height="1920" width="1920"><defs></defs><path d="M20.28 24.306 15.42 35.24a.683.683 0 0 0 .625.961h5.782l-3.5 10.483a1.367 1.367 0 0 0 2.294 1.366l15.161-16.165a.684.684 0 0 0-.5-1.151H28.66l2.359-5.9a.684.684 0 0 0-.635-.937H20.9a.682.682 0 0 0-.62.409z" fill="#ffe500"></path><path d="M35.283 30.734H28.66l2.359-5.9a.684.684 0 0 0-.635-.937H20.9a.682.682 0 0 0-.624.406l-3.6 8.094H35.3l.484-.515a.684.684 0 0 0-.501-1.148z" fill="#f2c100"></path><path d="M20.28 24.306 15.42 35.24a.683.683 0 0 0 .625.961h5.782l-3.5 10.483a1.367 1.367 0 0 0 2.294 1.366l15.161-16.165a.684.684 0 0 0-.5-1.151H28.66l2.359-5.9a.684.684 0 0 0-.635-.937H20.9a.682.682 0 0 0-.62.409z" fill="none" stroke="#45413c" stroke-linecap="round" stroke-linejoin="round" stroke-width="1.25px"></path><path d="M38.25 13.74a9.359 9.359 0 0 0-1.067.068 13.236 13.236 0 0 0-26.092-2.073 8.15 8.15 0 0 0 .659 16.274h26.5c4.5 0 8.154-3.194 8.154-7.134s-3.651-7.135-8.154-7.135z" fill="#f0f0f0"></path><path d="M11.091 16.831A13.236 13.236 0 0 1 37.183 18.9a9.359 9.359 0 0 1 1.067-.068 8.188 8.188 0 0 1 7.609 4.587 6.331 6.331 0 0 0 .545-2.548c0-3.941-3.651-7.135-8.154-7.135a9.359 9.359 0 0 0-1.067.068 13.236 13.236 0 0 0-26.092-2.073 8.139 8.139 0 0 0-7.082 10.677 8.155 8.155 0 0 1 7.082-5.577z" fill="#ffffff"></path><path d="M38.25 13.74a9.359 9.359 0 0 0-1.067.068 13.236 13.236 0 0 0-26.092-2.073 8.15 8.15 0 0 0 .659 16.274h26.5c4.5 0 8.154-3.194 8.154-7.134s-3.651-7.135-8.154-7.135z" fill="none" stroke="#45413c" stroke-linecap="round" stroke-linejoin="round" stroke-width="1.25px"></path><circle cx="15.941" cy="20.114" r="1.124" fill="#ff866e"></circle><circle cx="31.73" cy="20.106" r="1.124" fill="#ff866e"></circle><path d="m19.322 22.367 2.256-2.257 2.257 2.257 2.257-2.257 2.257 2.257M18.193 13.34l2.257 1.128-2.257 1.129m11.284-2.257-2.257 1.128 2.257 1.129" fill="none" stroke="#45413c" stroke-linecap="round" stroke-linejoin="round" stroke-width="1.25px"></path></svg>