<svg xmlns="http://www.w3.org/2000/svg" viewBox="0 0 50 50" height="1920" width="1920"><defs></defs><ellipse cx="11.918" cy="8.582" rx="7.56" ry="4.51" transform="rotate(-88.175 11.918 8.582)" fill="#ffc44d"></ellipse><path d="M12.159 1.026c-2.49-.079-4.616 3.24-4.748 7.413A12.6 12.6 0 0 0 7.45 9.9c.516-3.461 2.424-6.026 4.616-5.956S16 6.7 16.293 10.183a12.659 12.659 0 0 0 .132-1.457c.133-4.173-1.777-7.621-4.266-7.7z" fill="#ffdb94"></path><path d="M11.132 48.284a2 2 0 0 1-2-2V32.927a2 2 0 0 1 4 0v13.357a2 2 0 0 1-2 2z" stroke="#45413c" stroke-linecap="round" stroke-linejoin="round" stroke-width="1.25px" fill="#ffc44d"></path><ellipse cx="11.918" cy="8.582" rx="7.56" ry="4.51" transform="rotate(-88.175 11.918 8.582)" fill="none" stroke="#45413c" stroke-linecap="round" stroke-linejoin="round" stroke-width="1.25px"></ellipse><ellipse cx="8.77" cy="11.501" rx="3.38" ry="6.11" transform="rotate(-51.869 8.77 11.501)" fill="#ffc44d"></ellipse><path d="M10.858 8.842C8.2 6.759 5.117 6.26 3.965 7.728a2.47 2.47 0 0 0-.352 2.087c1.4-.872 4.057-.267 6.387 1.562a8.172 8.172 0 0 1 3.07 4.345 1.938 1.938 0 0 0 .506-.449c1.153-1.468-.065-4.347-2.718-6.431z" fill="#ffdb94"></path><ellipse cx="8.77" cy="11.501" rx="3.38" ry="6.11" transform="rotate(-51.869 8.77 11.501)" fill="none" stroke="#45413c" stroke-linecap="round" stroke-linejoin="round" stroke-width="1.25px"></ellipse><ellipse cx="15.259" cy="11.501" rx="6.11" ry="3.38" transform="rotate(-41.738 15.258 11.501)" fill="#ffc44d"></ellipse><path d="M13.707 11.242C16.1 9.108 18.952 8.4 20.3 9.527a2.486 2.486 0 0 0-.481-2.093c-1.243-1.393-4.291-.7-6.809 1.544s-3.552 5.2-2.309 6.59a1.814 1.814 0 0 0 .219.171 8.21 8.21 0 0 1 2.787-4.497z" fill="#ffdb94"></path><ellipse cx="15.259" cy="11.501" rx="6.11" ry="3.38" transform="rotate(-41.738 15.258 11.501)" fill="none" stroke="#45413c" stroke-linecap="round" stroke-linejoin="round" stroke-width="1.25px"></ellipse><ellipse cx="8.385" cy="17.54" rx="3.791" ry="6.852" transform="rotate(-51.869 8.385 17.54)" fill="#ffc44d"></ellipse><path d="M10.726 14.558C7.75 12.222 4.289 11.663 3 13.309a2.524 2.524 0 0 0-.474 1.772c1.614-.791 4.432-.1 6.927 1.856 2.114 1.661 3.409 3.768 3.522 5.442a2.241 2.241 0 0 0 .8-.608c1.293-1.647-.075-4.871-3.049-7.213z" fill="#ffdb94"></path><ellipse cx="8.385" cy="17.54" rx="3.791" ry="6.852" transform="rotate(-51.869 8.385 17.54)" fill="none" stroke="#45413c" stroke-linecap="round" stroke-linejoin="round" stroke-width="1.25px"></ellipse><ellipse cx="15.663" cy="17.54" rx="6.852" ry="3.791" transform="rotate(-41.76 15.654 17.535)" fill="#ffc44d"></ellipse><path d="M14.242 17.251c2.513-2.241 5.488-3.091 7.1-2.153a2.685 2.685 0 0 0-.563-2.119c-1.394-1.562-4.813-.787-7.637 1.733S9.156 20.539 10.55 22.1a2.189 2.189 0 0 0 .54.421 8.942 8.942 0 0 1 3.152-5.27z" fill="#ffdb94"></path><ellipse cx="15.663" cy="17.54" rx="6.852" ry="3.791" transform="rotate(-41.76 15.654 17.535)" fill="none" stroke="#45413c" stroke-linecap="round" stroke-linejoin="round" stroke-width="1.25px"></ellipse><ellipse cx="8.081" cy="23.799" rx="4.116" ry="7.44" transform="rotate(-51.869 8.081 23.8)" fill="#ffc44d"></ellipse><path d="M10.622 20.561c-3.232-2.537-6.99-3.144-8.393-1.361a2.654 2.654 0 0 0-.529 1.7c1.741-.91 4.846-.165 7.589 1.988 2.393 1.879 3.823 4.288 3.836 6.138a2.412 2.412 0 0 0 .8-.631c1.412-1.795-.071-5.295-3.303-7.834z" fill="#ffdb94"></path><ellipse cx="8.081" cy="23.799" rx="4.116" ry="7.44" transform="rotate(-51.869 8.081 23.8)" fill="none" stroke="#45413c" stroke-linecap="round" stroke-linejoin="round" stroke-width="1.25px"></ellipse><ellipse cx="15.982" cy="23.799" rx="7.44" ry="4.116" transform="rotate(-41.738 15.982 23.799)" fill="#ffc44d"></ellipse><ellipse cx="15.982" cy="23.799" rx="7.44" ry="4.116" transform="rotate(-41.738 15.982 23.799)" fill="#ffc44d"></ellipse><path d="M14.272 23.267c2.822-2.517 6.186-3.425 7.885-2.233a2.865 2.865 0 0 0-.623-2.187c-1.514-1.7-5.226-.854-8.292 1.88s-4.324 6.329-2.811 8.025a2.308 2.308 0 0 0 .407.351 9.591 9.591 0 0 1 3.434-5.836z" fill="#ffdb94"></path><ellipse cx="15.982" cy="23.799" rx="7.44" ry="4.116" transform="rotate(-41.738 15.982 23.799)" fill="none" stroke="#45413c" stroke-linecap="round" stroke-linejoin="round" stroke-width="1.25px"></ellipse><ellipse cx="7.594" cy="29.843" rx="4.359" ry="7.878" transform="rotate(-51.869 7.595 29.843)" fill="#ffc44d"></ellipse><ellipse cx="7.594" cy="29.843" rx="4.359" ry="7.878" transform="rotate(-51.869 7.595 29.843)" fill="#ffc44d"></ellipse><path d="M10.285 26.414c-3.422-2.686-7.4-3.329-8.888-1.436a2.67 2.67 0 0 0-.532 1.366c1.88-.781 5.029.052 7.81 2.236 2.725 2.138 4.268 4.923 4.038 6.927a2.638 2.638 0 0 0 1.078-.8c1.486-1.894-.083-5.607-3.506-8.293z" fill="#ffdb94"></path><ellipse cx="7.594" cy="29.843" rx="4.359" ry="7.878" transform="rotate(-51.869 7.595 29.843)" fill="none" stroke="#45413c" stroke-linecap="round" stroke-linejoin="round" stroke-width="1.25px"></ellipse><ellipse cx="15.961" cy="29.843" rx="7.878" ry="4.359" transform="rotate(-41.738 15.961 29.843)" fill="#ffc44d"></ellipse><ellipse cx="15.961" cy="29.843" rx="7.878" ry="4.359" transform="rotate(-41.738 15.961 29.843)" fill="#ffc44d"></ellipse><path d="M14.223 29.38c2.946-2.628 6.449-3.6 8.271-2.415a3.053 3.053 0 0 0-.654-2.365c-1.6-1.8-5.534-.905-8.781 1.991s-4.579 6.7-2.976 8.5a2.427 2.427 0 0 0 .509.423 10.2 10.2 0 0 1 3.631-6.134z" fill="#ffdb94"></path><ellipse cx="15.961" cy="29.843" rx="7.878" ry="4.359" transform="rotate(-41.738 15.961 29.843)" fill="none" stroke="#45413c" stroke-linecap="round" stroke-linejoin="round" stroke-width="1.25px"></ellipse><path d="M19.614 48.975a1.478 1.478 0 0 1-.437-.067 1.451 1.451 0 0 1-.946-1.82 19.237 19.237 0 0 1 10.144-11.5 1.45 1.45 0 1 1 1.213 2.634A16.293 16.293 0 0 0 21 47.962a1.45 1.45 0 0 1-1.386 1.013z" stroke="#45413c" stroke-linecap="round" stroke-linejoin="round" stroke-width="1.25px" fill="#ffc44d"></path><ellipse cx="43.699" cy="25.345" rx="6.162" ry="3.676" transform="rotate(-35.185 43.7 25.345)" fill="#ffc44d"></ellipse><path d="M48.735 21.794c-1.17-1.659-4.373-1.415-7.154.546a10.282 10.282 0 0 0-.933.744c2.506-1.363 5.112-1.379 6.142.081s.139 3.909-1.986 5.812a10.574 10.574 0 0 0 1.013-.628c2.783-1.962 4.088-4.896 2.918-6.555z" fill="#ffdb94"></path><ellipse cx="43.699" cy="25.345" rx="6.162" ry="3.676" transform="rotate(-35.185 43.7 25.345)" fill="none" stroke="#45413c" stroke-linecap="round" stroke-linejoin="round" stroke-width="1.25px"></ellipse><ellipse cx="40.255" cy="24.728" rx="4.98" ry="2.755" transform="rotate(-88.879 40.255 24.728)" fill="#ffc44d"></ellipse><path d="M43.009 24.782c.054-2.75-1.136-5-2.657-5.033a2.013 2.013 0 0 0-1.53.8c1.252.48 2.164 2.509 2.116 4.923a6.65 6.65 0 0 1-1.321 4.13 1.566 1.566 0 0 0 .54.109c1.522.025 2.798-2.18 2.852-4.929z" fill="#ffdb94"></path><ellipse cx="40.255" cy="24.728" rx="4.98" ry="2.755" transform="rotate(-88.879 40.255 24.728)" fill="none" stroke="#45413c" stroke-linecap="round" stroke-linejoin="round" stroke-width="1.25px"></ellipse><ellipse cx="43.438" cy="28.951" rx="2.755" ry="4.98" transform="rotate(-78.748 43.438 28.95)" fill="#ffc44d"></ellipse><path d="M42.845 27.814c2.563.51 4.423 2.019 4.351 3.448a2.021 2.021 0 0 0 1.126-1.339c.3-1.493-1.649-3.138-4.346-3.674s-5.125.238-5.422 1.73a1.421 1.421 0 0 0 0 .226 6.69 6.69 0 0 1 4.291-.391z" fill="#ffdb94"></path><ellipse cx="43.438" cy="28.951" rx="2.755" ry="4.98" transform="rotate(-78.748 43.438 28.95)" fill="none" stroke="#45413c" stroke-linecap="round" stroke-linejoin="round" stroke-width="1.25px"></ellipse><ellipse cx="36.135" cy="27.44" rx="5.585" ry="3.09" transform="rotate(-88.9 36.148 27.432)" fill="#ffc44d"></ellipse><path d="M39.224 27.5c.061-3.084-1.273-5.611-2.979-5.644a2.059 2.059 0 0 0-1.386.56c1.306.663 2.241 2.835 2.19 5.42a6.925 6.925 0 0 1-1.813 4.964 1.821 1.821 0 0 0 .79.225c1.706.033 3.138-2.441 3.198-5.525z" fill="#ffdb94"></path><ellipse cx="36.135" cy="27.44" rx="5.585" ry="3.09" transform="rotate(-88.9 36.148 27.432)" fill="none" stroke="#45413c" stroke-linecap="round" stroke-linejoin="round" stroke-width="1.25px"></ellipse><ellipse cx="39.706" cy="32.177" rx="3.09" ry="5.585" transform="rotate(-78.748 39.706 32.177)" fill="#ffc44d"></ellipse><path d="M39.2 31.111c2.691.535 4.7 2.054 4.883 3.561a2.186 2.186 0 0 0 1.1-1.406c.333-1.673-1.849-3.518-4.875-4.12s-5.747.267-6.08 1.941a1.77 1.77 0 0 0-.009.558 7.284 7.284 0 0 1 4.981-.534z" fill="#ffdb94"></path><ellipse cx="39.706" cy="32.177" rx="3.09" ry="5.585" transform="rotate(-78.748 39.706 32.177)" fill="none" stroke="#45413c" stroke-linecap="round" stroke-linejoin="round" stroke-width="1.25px"></ellipse><ellipse cx="31.912" cy="30.313" rx="6.064" ry="3.355" transform="rotate(-88.879 31.912 30.313)" fill="#ffc44d"></ellipse><path d="M35.266 30.378c.066-3.348-1.383-6.092-3.235-6.128a2.163 2.163 0 0 0-1.36.489c1.446.686 2.485 3.073 2.43 5.914-.049 2.479-.915 4.592-2.113 5.508a1.955 1.955 0 0 0 .8.214c1.858.037 3.412-2.648 3.478-5.997z" fill="#ffdb94"></path><ellipse cx="31.912" cy="30.313" rx="6.064" ry="3.355" transform="rotate(-88.879 31.912 30.313)" fill="none" stroke="#45413c" stroke-linecap="round" stroke-linejoin="round" stroke-width="1.25px"></ellipse><ellipse cx="35.789" cy="35.456" rx="3.355" ry="6.064" transform="rotate(-78.748 35.788 35.456)" fill="#ffc44d"></ellipse><ellipse cx="35.789" cy="35.456" rx="3.355" ry="6.064" transform="rotate(-78.748 35.788 35.456)" fill="#ffc44d"></ellipse><path d="M35.3 34.081c3.023.6 5.265 2.346 5.322 4.037a2.339 2.339 0 0 0 1.118-1.479c.361-1.818-2.008-3.82-5.292-4.474s-6.241.29-6.6 2.107a1.839 1.839 0 0 0-.029.438 7.816 7.816 0 0 1 5.481-.629z" fill="#ffdb94"></path><ellipse cx="35.789" cy="35.456" rx="3.355" ry="6.064" transform="rotate(-78.748 35.788 35.456)" fill="none" stroke="#45413c" stroke-linecap="round" stroke-linejoin="round" stroke-width="1.25px"></ellipse><ellipse cx="27.74" cy="32.961" rx="6.421" ry="3.553" transform="rotate(-88.879 27.74 32.961)" fill="#ffc44d"></ellipse><ellipse cx="27.74" cy="32.961" rx="6.421" ry="3.553" transform="rotate(-88.879 27.74 32.961)" fill="#ffc44d"></ellipse><path d="M31.292 33.031c.069-3.546-1.465-6.451-3.427-6.49a2.174 2.174 0 0 0-1.149.324c1.43.841 2.433 3.3 2.376 6.18-.055 2.822-1.11 5.194-2.527 6.027a2.132 2.132 0 0 0 1.049.309c1.962.038 3.608-2.805 3.678-6.35z" fill="#ffdb94"></path><ellipse cx="27.74" cy="32.961" rx="6.421" ry="3.553" transform="rotate(-88.879 27.74 32.961)" fill="none" stroke="#45413c" stroke-linecap="round" stroke-linejoin="round" stroke-width="1.25px"></ellipse><ellipse cx="31.845" cy="38.407" rx="3.553" ry="6.421" transform="rotate(-78.748 31.844 38.407)" fill="#ffc44d"></ellipse><ellipse cx="31.845" cy="38.407" rx="3.553" ry="6.421" transform="rotate(-78.748 31.844 38.407)" fill="#ffc44d"></ellipse><path d="M31.294 37.049c3.155.627 5.5 2.431 5.629 4.2a2.488 2.488 0 0 0 1.219-1.587c.383-1.924-2.126-4.045-5.6-4.738s-6.608.308-6.991 2.232a2.029 2.029 0 0 0-.025.539 8.316 8.316 0 0 1 5.768-.646z" fill="#ffdb94"></path><ellipse cx="31.845" cy="38.407" rx="3.553" ry="6.421" transform="rotate(-78.748 31.844 38.407)" fill="none" stroke="#45413c" stroke-linecap="round" stroke-linejoin="round" stroke-width="1.25px"></ellipse></svg>