<svg xmlns="http://www.w3.org/2000/svg" viewBox="0 0 50 50" height="1920" width="1920"><defs></defs><path d="M46.8 34.759c.154-.481-.229-1.021-.825-1.443 1.362-1.2 2.024-2.6 1.585-3.733a2.644 2.644 0 0 0-1.86-1.471c1.4-3.755 1.157-7.194-.86-8.455s-5.213.028-7.979 2.927a2.642 2.642 0 0 0-2.137-1.029c-1.21.1-2.182 1.31-2.663 3.058-.64-.35-1.285-.45-1.658-.11-2.091 1.909-1.54 4.436.288 6.756-1.4 0-2.5.5-2.645 1.291-.177 1 1.229 2.083 3.14 2.421a6.17 6.17 0 0 0 1.375.083 41.162 41.162 0 0 0-2.374 4.295 1.071 1.071 0 0 0 .4 1.358 1.215 1.215 0 0 0 .118.064 1.072 1.072 0 0 0 1.423-.52 39.065 39.065 0 0 1 2.244-4.062 6.157 6.157 0 0 0 .676 1.2c1.139 1.57 2.729 2.359 3.55 1.763.54-.392.605-1.288.268-2.3 3.558 1.216 6.95.974 7.934-2.093z" fill="#ff8a14"></path><path d="M46.8 34.759c.154-.481-.229-1.021-.825-1.443 1.362-1.2 2.024-2.6 1.585-3.733a2.644 2.644 0 0 0-1.86-1.471c1.4-3.755 1.157-7.194-.86-8.455s-5.213.028-7.979 2.927a2.642 2.642 0 0 0-2.137-1.029c-1.21.1-2.182 1.31-2.663 3.058-.64-.35-1.285-.45-1.658-.11-2.091 1.909-1.54 4.436.288 6.756-1.4 0-2.5.5-2.645 1.291-.177 1 1.229 2.083 3.14 2.421a6.17 6.17 0 0 0 1.375.083 41.162 41.162 0 0 0-2.374 4.295 1.071 1.071 0 0 0 .4 1.358 1.215 1.215 0 0 0 .118.064 1.072 1.072 0 0 0 1.423-.52 39.065 39.065 0 0 1 2.244-4.062 6.157 6.157 0 0 0 .676 1.2c1.139 1.57 2.729 2.359 3.55 1.763.54-.392.605-1.288.268-2.3 3.558 1.216 6.95.974 7.934-2.093z" fill="none" stroke-linecap="round" stroke-linejoin="round" stroke-width="1.25px" stroke="#45413c"></path><path d="M44.353 32.977c.109-.34-.162-.721-.583-1.019.963-.847 1.43-1.839 1.12-2.64a1.871 1.871 0 0 0-1.315-1.04c.987-2.654.818-5.085-.607-5.977s-3.686.02-5.641 2.07a1.869 1.869 0 0 0-1.51-.728c-.856.072-1.543.926-1.883 2.162-.453-.248-.909-.318-1.172-.078-4.738 4.325 9.706 13.139 11.591 7.25z" fill="#eb6d00"></path><path d="M40.855 25.355c-1.457 1.846-4.008 5.117-6.277 8.537m3.283-1.054a22.774 22.774 0 0 1 4.275-1m-7.358-2.025a15.265 15.265 0 0 0-.2-2.89" stroke="#ffaa54" fill="none" stroke-linecap="round" stroke-linejoin="round" stroke-width="1.25px"></path><path d="M33.045 15.838c-.575-.659-1.717-.575-2.875-.072-.554-3.09-2.038-5.326-4.109-5.691a4.574 4.574 0 0 0-3.845 1.437C17.905 6.08 12.6 3.353 8.924 5.209S4.3 12.955 6.11 19.648a4.573 4.573 0 0 0-3.438 2.242c-.935 1.884-.016 4.406 2.142 6.685-1.092.633-1.818 1.5-1.648 2.357.953 4.807 5.189 6.255 10.264 5.626-1.252 2.081-1.509 4.155-.458 5.074 1.321 1.156 4.185.045 6.4-2.481a10.6 10.6 0 0 0 1.355-1.963 71.615 71.615 0 0 0 4.233 7.364 1.854 1.854 0 0 0 3.077-2.069 67.926 67.926 0 0 1-4-6.963 10.632 10.632 0 0 0 2.38.074c3.346-.281 5.94-1.927 5.793-3.678-.1-1.151-1.365-2.05-3.167-2.457 4.984-4.179 7.665-9.418 4.002-13.621z" fill="#ff6242"></path><path d="M33.045 15.838c-.575-.659-1.717-.575-2.875-.072-.554-3.09-2.038-5.326-4.109-5.691a4.574 4.574 0 0 0-3.845 1.437C17.905 6.08 12.6 3.353 8.924 5.209S4.3 12.955 6.11 19.648a4.573 4.573 0 0 0-3.438 2.242c-.935 1.884-.016 4.406 2.142 6.685-1.092.633-1.818 1.5-1.648 2.357.953 4.807 5.189 6.255 10.264 5.626-1.252 2.081-1.509 4.155-.458 5.074 1.321 1.156 4.185.045 6.4-2.481a10.6 10.6 0 0 0 1.355-1.963 71.615 71.615 0 0 0 4.233 7.364 1.854 1.854 0 0 0 3.077-2.069 67.926 67.926 0 0 1-4-6.963 10.632 10.632 0 0 0 2.38.074c3.346-.281 5.94-1.927 5.793-3.678-.1-1.151-1.365-2.05-3.167-2.457 4.984-4.179 7.665-9.418 4.002-13.621z" fill="none" stroke-linecap="round" stroke-linejoin="round" stroke-width="1.25px" stroke="#45413c"></path><path d="M28.9 17.724c-.429-.492-1.283-.43-2.147-.053-.414-2.308-1.523-3.978-3.07-4.251a3.417 3.417 0 0 0-2.871 1.073c-3.22-4.057-7.183-6.094-9.927-4.707s-3.458 5.785-2.1 10.783a3.421 3.421 0 0 0-2.568 1.675c-.7 1.407-.012 3.291 1.6 4.993C7 27.71 6.454 28.357 6.581 29 8.863 40.5 36.326 26.248 28.9 17.724z" fill="#ff8a14"></path><path d="M13.794 16.213c1.55 4.133 4.426 11.673 7.795 18.563m.252-5.559a38.255 38.255 0 0 1 2.7-9.095m-7.815 10.299a28.106 28.106 0 0 0-6.234-3.508" stroke="#e04122" fill="none" stroke-linecap="round" stroke-linejoin="round" stroke-width="1.25px"></path></svg>