<svg xmlns="http://www.w3.org/2000/svg" viewBox="0 0 50 50" height="1920" width="1920"><defs></defs><path d="M42.026 19.781h-.046l.035-.029a3.681 3.681 0 0 0-.063-5.519 6.61 6.61 0 0 0-5.459-1.9 5.929 5.929 0 0 0-2.866 1.285 6 6 0 0 0 .4-3.469 6.608 6.608 0 0 0-3.6-4.524A3.68 3.68 0 0 0 25.2 7.389l-.017.042-.016-.042a3.681 3.681 0 0 0-5.229-1.765 6.605 6.605 0 0 0-3.6 4.524 6.155 6.155 0 0 0 .7 4.092 6.126 6.126 0 0 0-3.535-1.908 6.61 6.61 0 0 0-5.459 1.9 3.681 3.681 0 0 0-.063 5.519l.035.029h-.042a3.681 3.681 0 0 0-3.394 4.353 6.609 6.609 0 0 0 3.082 4.891 6.134 6.134 0 0 0 3.982.71 6.065 6.065 0 0 0-2.773 2.591 6.606 6.606 0 0 0-.055 5.78 3.682 3.682 0 0 0 5.174 1.922l.039-.027-.014.043a3.68 3.68 0 0 0 2.951 4.663 6.6 6.6 0 0 0 5.644-1.25c2-1.665 1.919-3.512 2.576-6.361l.048 1.822a6.371 6.371 0 0 0 2.156 4.543 6.6 6.6 0 0 0 5.644 1.25 3.68 3.68 0 0 0 2.951-4.663L35.971 40l.039.023a3.682 3.682 0 0 0 5.174-1.923 6.606 6.606 0 0 0-.055-5.78 6.065 6.065 0 0 0-2.773-2.591 6.134 6.134 0 0 0 3.982-.71 6.609 6.609 0 0 0 3.082-4.891 3.681 3.681 0 0 0-3.394-4.347z" fill="#ffffff"></path><path d="M34.739 22.334h-.027l.021-.017A2.215 2.215 0 0 0 34.7 19a3.974 3.974 0 0 0-3.284-1.142 3.521 3.521 0 0 0-1.63.718 3.623 3.623 0 0 0 .273-2.145 3.977 3.977 0 0 0-2.164-2.721 2.214 2.214 0 0 0-3.146 1.061l-.009.026-.01-.026a2.213 2.213 0 0 0-3.146-1.061 3.977 3.977 0 0 0-2.164 2.721 3.53 3.53 0 0 0 .123 1.731 3.332 3.332 0 0 0-.949-.3A3.974 3.974 0 0 0 15.305 19a2.215 2.215 0 0 0-.038 3.32l.021.017h-.027a2.215 2.215 0 0 0-2.042 2.618 3.977 3.977 0 0 0 1.854 2.942 3.278 3.278 0 0 0 .643.282 3.387 3.387 0 0 0-.691.869 3.975 3.975 0 0 0-.033 3.477 2.214 2.214 0 0 0 3.108 1.153l.024-.014-.008.026a2.213 2.213 0 0 0 1.784 2.805 3.971 3.971 0 0 0 3.395-.752 3.745 3.745 0 0 0 1.247-2.4 3.74 3.74 0 0 0 1.247 2.4 3.969 3.969 0 0 0 3.395.752 2.214 2.214 0 0 0 1.775-2.8l-.009-.026.024.014a2.214 2.214 0 0 0 3.112-1.156 3.975 3.975 0 0 0-.033-3.477 3.337 3.337 0 0 0-.515-.707 3.461 3.461 0 0 0 1.394-.444 3.977 3.977 0 0 0 1.854-2.942 2.215 2.215 0 0 0-2.047-2.623z" stroke-linecap="round" stroke-linejoin="round" stroke-width="1.25px" fill="#ffe5ee" stroke="#ffccdd"></path><circle cx="17.822" cy="20.496" r="1.207" fill="#ff6196"></circle><path d="M20.463 21.813a9.4 9.4 0 0 1 2.849 2.487" fill="none" stroke="#45413c" stroke-linecap="round" stroke-linejoin="round" stroke-width="1.25px"></path><circle cx="23.653" cy="16.996" r="1.207" fill="#ff6196"></circle><path d="M23.605 19.793a9.19 9.19 0 0 0 .857 3.818" fill="none" stroke="#45413c" stroke-linecap="round" stroke-linejoin="round" stroke-width="1.25px"></path><circle cx="29.199" cy="17.373" r="1.207" fill="#ff6196"></circle><path d="M27.537 20.48a7.852 7.852 0 0 1-1.662 3.34" fill="none" stroke="#45413c" stroke-linecap="round" stroke-linejoin="round" stroke-width="1.25px"></path><circle cx="22.616" cy="33.634" r="1.207" fill="#ff6196"></circle><path d="M22.973 30.85a9.108 9.108 0 0 1 1.442-3.62" fill="none" stroke="#45413c" stroke-linecap="round" stroke-linejoin="round" stroke-width="1.25px"></path><circle cx="27.571" cy="32.918" r="1.207" fill="#ff6196"></circle><path d="M26.713 29.7a8.789 8.789 0 0 0-1.086-1.942" fill="none" stroke="#45413c" stroke-linecap="round" stroke-linejoin="round" stroke-width="1.25px"></path><circle cx="15.79" cy="25.587" r="1.207" fill="#ff6196"></circle><path d="M19.454 25.06a10.451 10.451 0 0 1 3.091.447" fill="none" stroke="#45413c" stroke-linecap="round" stroke-linejoin="round" stroke-width="1.25px"></path><circle cx="18.251" cy="30.981" r="1.207" fill="#ff6196"></circle><path d="M20.34 28.655a9.621 9.621 0 0 1 3.067-1.955" fill="none" stroke="#45413c" stroke-linecap="round" stroke-linejoin="round" stroke-width="1.25px"></path><circle cx="32.387" cy="21.124" r="1.207" fill="#ff6196"></circle><path d="M29.733 22.307a9.2 9.2 0 0 0-2.895 2.481" fill="none" stroke="#45413c" stroke-linecap="round" stroke-linejoin="round" stroke-width="1.25px"></path><circle cx="33.79" cy="25.587" r="1.207" fill="#ff6196"></circle><path d="M30.453 25.078a9.907 9.907 0 0 0-3.418.429" fill="none" stroke="#45413c" stroke-linecap="round" stroke-linejoin="round" stroke-width="1.25px"></path><circle cx="31.958" cy="30.981" r="1.207" fill="#ff6196"></circle><path d="M29.689 28.57a9.732 9.732 0 0 0-2.924-1.848" fill="none" stroke="#45413c" stroke-linecap="round" stroke-linejoin="round" stroke-width="1.25px"></path><circle cx="25" cy="25" r="3.49" fill="#ffe500"></circle><path d="M24.73 24.138a3.478 3.478 0 0 1 3.49 2.174 3.5 3.5 0 1 0-6.44-.006 3.478 3.478 0 0 1 2.95-2.168z" fill="#fff48c"></path><circle cx="25" cy="25" r="3.49" fill="none" stroke="#45413c" stroke-linecap="round" stroke-linejoin="round" stroke-width="1.25px"></circle><path d="M42.026 19.781h-.046l.035-.029a3.681 3.681 0 0 0-.063-5.519 6.61 6.61 0 0 0-5.459-1.9 5.929 5.929 0 0 0-2.866 1.285 6 6 0 0 0 .4-3.469 6.608 6.608 0 0 0-3.6-4.524A3.68 3.68 0 0 0 25.2 7.389l-.017.042-.016-.042a3.681 3.681 0 0 0-5.229-1.765 6.605 6.605 0 0 0-3.6 4.524 6.155 6.155 0 0 0 .7 4.092 6.126 6.126 0 0 0-3.535-1.908 6.61 6.61 0 0 0-5.459 1.9 3.681 3.681 0 0 0-.063 5.519l.035.029h-.042a3.681 3.681 0 0 0-3.394 4.353 6.609 6.609 0 0 0 3.082 4.891 6.134 6.134 0 0 0 3.982.71 6.065 6.065 0 0 0-2.773 2.591 6.606 6.606 0 0 0-.055 5.78 3.682 3.682 0 0 0 5.174 1.922l.039-.027-.014.043a3.68 3.68 0 0 0 2.951 4.663 6.6 6.6 0 0 0 5.644-1.25c2-1.665 1.919-3.512 2.576-6.361l.048 1.822a6.371 6.371 0 0 0 2.156 4.543 6.6 6.6 0 0 0 5.644 1.25 3.68 3.68 0 0 0 2.951-4.663L35.971 40l.039.023a3.682 3.682 0 0 0 5.174-1.923 6.606 6.606 0 0 0-.055-5.78 6.065 6.065 0 0 0-2.773-2.591 6.134 6.134 0 0 0 3.982-.71 6.609 6.609 0 0 0 3.082-4.891 3.681 3.681 0 0 0-3.394-4.347z" fill="none" stroke="#45413c" stroke-linecap="round" stroke-linejoin="round" stroke-width="1.25px"></path></svg>