<svg xmlns="http://www.w3.org/2000/svg" viewBox="0 0 50 50" height="1920" width="1920"><defs></defs><path d="M26.269 25.184c-1.943.93-2.817 2.955-3.654 5.178a10.612 10.612 0 0 0-.211 7.205c3.258 9.406 17.739 12.949 24.607 10.848 3.746-1.147 2.046-1.986 1.051-3.059a13.806 13.806 0 0 1-2.917-4.105c-1.605-4.057-1.414-8.935-4.533-12.265-3.051-3.258-7.927-4.643-12.3-4.317a5.659 5.659 0 0 0-2.043.515z" fill="#ff8a14"></path><path d="M48.062 45.356a13.819 13.819 0 0 1-2.917-4.105c-1.605-4.057-1.414-8.935-4.533-12.265-3.051-3.258-7.927-4.643-12.3-4.317a5.659 5.659 0 0 0-2.043.515 4.755 4.755 0 0 0-1.054.708 6.327 6.327 0 0 1 .956-.153c4.373-.326 9.249 1.06 12.3 4.317 3.12 3.33 2.928 8.209 4.533 12.265a13.811 13.811 0 0 0 2.917 4.106c.659.71 1.618 1.319 1.108 1.982 3.72-1.144 2.026-1.982 1.033-3.053z" fill="#ffaa54"></path><path d="M26.269 25.184c-1.943.93-2.817 2.955-3.654 5.178a10.612 10.612 0 0 0-.211 7.205c3.258 9.406 17.739 12.949 24.607 10.848 3.746-1.147 2.046-1.986 1.051-3.059a13.806 13.806 0 0 1-2.917-4.105c-1.605-4.057-1.414-8.935-4.533-12.265-3.051-3.258-7.927-4.643-12.3-4.317a5.659 5.659 0 0 0-2.043.515z" fill="none" stroke="#45413c" stroke-linecap="round" stroke-linejoin="round" stroke-width="1.25px"></path><path d="M29.345 35.5a8.149 8.149 0 0 0-.289 5.8m5.287-.5a8.241 8.241 0 0 0-.229 4.613m2.755-14.994a8.321 8.321 0 0 0-7.436.108m8.967 5.718a8.168 8.168 0 0 0-4.88.334" stroke="#915e3a" stroke-linecap="round" stroke-linejoin="round" stroke-width="1.25px" fill="none"></path><path d="M26.044 21.79a16.96 16.96 0 0 0 .917 3.685 36.046 36.046 0 0 0 3.7 7.023 33.379 33.379 0 0 0 4.874 6.312 16.751 16.751 0 0 0 5.665 4.141c1.53.571.627 1.825-.06 1.591A23.412 23.412 0 0 1 34 40.528a31.8 31.8 0 0 1-5.69-6.449 34.636 34.636 0 0 1-4.221-7.534 19.967 19.967 0 0 1-1.127-4.345l-.008-.053a1.558 1.558 0 0 1 3.018-.7 2 2 0 0 1 .072.343z" fill="#dea47a" stroke-linecap="round" stroke-linejoin="round" stroke-width="1.25px" stroke="#45413c"></path><path d="M20.111 5.042c1.638.784 2.374 2.491 3.08 4.364a8.952 8.952 0 0 1 .178 6.074C20.623 23.409 8.416 26.4 2.626 24.624-.532 23.658.9 22.95 1.74 22.046a11.653 11.653 0 0 0 2.46-3.461c1.352-3.419 1.191-7.532 3.82-10.339a13.108 13.108 0 0 1 10.368-3.639 4.769 4.769 0 0 1 1.723.435z" fill="#b89558"></path><path d="M4.387 23.37a11.653 11.653 0 0 0 2.459-3.461c1.354-3.42 1.192-7.532 3.821-10.339a13.1 13.1 0 0 1 10.368-3.639c.116.008.212.036.321.051a4.1 4.1 0 0 0-1.245-.94 4.769 4.769 0 0 0-1.723-.435A13.108 13.108 0 0 0 8.02 8.246c-2.629 2.807-2.468 6.92-3.82 10.339a11.653 11.653 0 0 1-2.46 3.461c-.838.9-2.272 1.612.886 2.578.221.068.467.115.705.169-.078-.467.584-.914 1.056-1.423z" fill="#debb7e"></path><path d="M20.111 5.042c1.638.784 2.374 2.491 3.08 4.364a8.952 8.952 0 0 1 .178 6.074C20.623 23.409 8.416 26.4 2.626 24.624-.532 23.658.9 22.95 1.74 22.046a11.653 11.653 0 0 0 2.46-3.461c1.352-3.419 1.191-7.532 3.82-10.339a13.108 13.108 0 0 1 10.368-3.639 4.769 4.769 0 0 1 1.723.435z" fill="none" stroke="#45413c" stroke-linecap="round" stroke-linejoin="round" stroke-width="1.25px"></path><path d="M17.518 13.739a6.875 6.875 0 0 1 .244 4.89m-4.457-.423A6.949 6.949 0 0 1 13.5 22.1M11.175 9.454a7.017 7.017 0 0 1 6.269.091m-7.555 4.82a6.889 6.889 0 0 1 4.111.282" stroke="#947746" stroke-linecap="round" stroke-linejoin="round" stroke-width="1.25px" fill="none"></path><path d="M20.3 2.18a14.314 14.314 0 0 1-.772 3.107 30.457 30.457 0 0 1-3.12 5.92 28.16 28.16 0 0 1-4.108 5.321 14.138 14.138 0 0 1-4.774 3.491c-1.29.481-.526 1.538.05 1.341a19.734 19.734 0 0 0 6.017-3.384 26.83 26.83 0 0 0 4.8-5.436 29.211 29.211 0 0 0 3.558-6.351 16.893 16.893 0 0 0 .949-3.665l.006-.045a1.313 1.313 0 0 0-2.544-.588 1.787 1.787 0 0 0-.062.289z" fill="#debb7e" stroke-linecap="round" stroke-linejoin="round" stroke-width="1.25px" stroke="#45413c"></path></svg>