<svg xmlns="http://www.w3.org/2000/svg" viewBox="0 0 50 50" height="1920" width="1920"><defs></defs><path d="m20.112 7.474 1.874-3.581a4.785 4.785 0 0 1 4.329-2.623 13.848 13.848 0 0 1 8.042 2.816 4.867 4.867 0 0 1 1.56 5.653c-.59 1.523-1.171 3.03-1.144 2.985C35.89 10.837 21.2 5.6 20.112 7.474z" fill="#8ca4b8"></path><path d="m21.864 4.127-1.752 3.346C21.2 5.6 35.889 10.837 34.773 12.724c-.027.045.554-1.462 1.144-2.985.053-.138.084-.28.125-.42-3.215-2.962-7.601-4.924-14.178-5.192z" fill="#627b8c"></path><path d="m20.112 7.474 1.874-3.581a4.785 4.785 0 0 1 4.329-2.623 13.848 13.848 0 0 1 8.042 2.816 4.867 4.867 0 0 1 1.56 5.653c-.59 1.523-1.171 3.03-1.144 2.985C35.89 10.837 21.2 5.6 20.112 7.474z" stroke="#45413c" stroke-linecap="round" stroke-linejoin="round" stroke-width="1.25px" fill="none"></path><path d="M12.888 24.114 9.5 19.875l.886-3.852a1.369 1.369 0 0 0-2.669-.614L7 18.535l-3.284-.583a1.37 1.37 0 1 0-.479 2.7l3.936.7 3.58 4.477a1.37 1.37 0 1 0 2.139-1.711z" fill="#b89558" stroke="#45413c" stroke-linecap="round" stroke-linejoin="round" stroke-width="1.25px"></path><path d="M42 34.283c0 8.265-7.655 14.45-16.869 14.45s-16.5-6.185-16.5-14.45S16.1 19.317 25.318 19.317 42 26.017 42 34.283z" fill="#ffffff" stroke="#45413c" stroke-linecap="round" stroke-linejoin="round" stroke-width="1.25px"></path><path d="M35.1 15.248c0 4.8-4.891 8.375-10.32 8.375s-9.338-3.575-9.338-8.375 4.4-8.691 9.829-8.691 9.829 3.891 9.829 8.691z" fill="#ffffff" stroke="#45413c" stroke-linecap="round" stroke-linejoin="round" stroke-width="1.25px"></path><path d="m17.936 9.247-.063-.064a1.992 1.992 0 0 1 1.274-3.376c9.754-.773 14.334 2.408 17.406 7.034a1.9 1.9 0 0 1-.993 2.869l-.481.153c-3.317-7.61-12.664-8.634-17.143-6.616z" stroke="#45413c" stroke-linecap="round" stroke-linejoin="round" stroke-width="1.25px" fill="#8ca4b8"></path><circle cx="27.529" cy="16.985" r=".849" fill="#45413c"></circle><circle cx="19.499" cy="15.654" r=".849" fill="#45413c"></circle><path d="M33.523 19.994a12.049 12.049 0 0 1-8.738 3.606 9.763 9.763 0 0 1-9.108-5.248 4.342 4.342 0 0 0-.883 3.121c0 3.536 4.836 6.4 10.8 6.4s10.926-2.177 9.752-5.5a5.377 5.377 0 0 0-1.823-2.379z" fill="#ff6242"></path><path d="M24.842 25.227a15.387 15.387 0 0 0 10.094-3.679 6.012 6.012 0 0 0-1.413-1.554 12.049 12.049 0 0 1-8.738 3.606 9.763 9.763 0 0 1-9.108-5.248 3.824 3.824 0 0 0-.854 2.5 12.745 12.745 0 0 0 10.019 4.375z" fill="#ff866e"></path><path d="M33.523 19.994a12.049 12.049 0 0 1-8.738 3.606 9.763 9.763 0 0 1-9.108-5.248 4.342 4.342 0 0 0-.883 3.121c0 3.536 4.836 6.4 10.8 6.4s10.926-2.177 9.752-5.5a5.377 5.377 0 0 0-1.823-2.379z" stroke="#45413c" stroke-linecap="round" stroke-linejoin="round" stroke-width="1.25px" fill="none"></path><path d="M19.144 22.108a8.11 8.11 0 0 0-1.49 3.7 14.309 14.309 0 0 0 6.68 2.026 9.312 9.312 0 0 1 .352-4.235 10.849 10.849 0 0 1-5.542-1.491z" fill="#ff866e"></path><path d="M24.338 25.211a10.978 10.978 0 0 1 .348-1.617 10.849 10.849 0 0 1-5.542-1.486 6.985 6.985 0 0 0-.877 1.538 13.7 13.7 0 0 0 6.071 1.565z" fill="#ffa694"></path><path d="M19.144 22.108a8.11 8.11 0 0 0-1.49 3.7 14.309 14.309 0 0 0 6.68 2.026 9.312 9.312 0 0 1 .352-4.235 10.849 10.849 0 0 1-5.542-1.491z" stroke="#45413c" stroke-linecap="round" stroke-linejoin="round" stroke-width="1.25px" fill="none"></path><path d="M16.008 24.423C14.277 28.17 12.8 31.812 12.9 34.815a1.678 1.678 0 0 0 .4 1.037c.871 1 2.255 1.033 3.753.846a1.025 1.025 0 0 0 .868-1.169c-.458-3.106-.016-5.944.168-9.387z" fill="#ff6242"></path><path d="M17.92 28.635c.06-.8.123-1.629.169-2.493l-2.081-1.719a76.97 76.97 0 0 0-1.256 2.848z" fill="#e04122"></path><path d="M16.008 24.423C14.277 28.17 12.8 31.812 12.9 34.815a1.678 1.678 0 0 0 .4 1.037c.871 1 2.255 1.033 3.753.846a1.025 1.025 0 0 0 .868-1.169c-.458-3.106-.016-5.944.168-9.387z" stroke="#45413c" stroke-linecap="round" stroke-linejoin="round" stroke-width="1.25px" fill="none"></path><circle cx="22.069" cy="32.382" r="1.642" fill="#656769" stroke="#45413c" stroke-linecap="round" stroke-linejoin="round" stroke-width="1.25px"></circle><circle cx="21.597" cy="40.475" r="1.642" fill="#656769" stroke="#45413c" stroke-linecap="round" stroke-linejoin="round" stroke-width="1.25px"></circle><path d="m34.765 30.157 5.856-1.506 1.788-4.023a1.525 1.525 0 0 1 2.791 1.239l-1.451 3.265 3.311 1.678a1.525 1.525 0 1 1-1.378 2.722l-3.973-2.011-6.184 1.592a1.526 1.526 0 0 1-.76-2.956z" fill="#b89558" stroke="#45413c" stroke-linecap="round" stroke-linejoin="round" stroke-width="1.25px"></path><path d="M24.479 20.009a28.142 28.142 0 0 1-4.5 2.746.8.8 0 0 1-1.1-1.059 35.594 35.594 0 0 1 2.434-4.476 2.112 2.112 0 1 1 3.172 2.789z" fill="#ff8a14"></path><path d="M20.433 22.5a35.594 35.594 0 0 1 2.434-4.476 2.1 2.1 0 0 1 1.691-.706 2.164 2.164 0 0 0-.27-.29 2.112 2.112 0 0 0-2.981.192 35.594 35.594 0 0 0-2.434 4.48.8.8 0 0 0 1.1 1.059l.456-.246z" fill="#ffaa54"></path><path d="M24.479 20.009a28.142 28.142 0 0 1-4.5 2.746.8.8 0 0 1-1.1-1.059 35.594 35.594 0 0 1 2.434-4.476 2.112 2.112 0 1 1 3.172 2.789z" stroke="#45413c" stroke-linecap="round" stroke-linejoin="round" stroke-width="1.25px" fill="none"></path></svg>