<svg xmlns="http://www.w3.org/2000/svg" viewBox="0 0 50 50" height="1920" width="1920"><path d="m48.1 26.849-2.75 2.141a2.345 2.345 0 0 0-.731 2.732l1.31 3.225a2.343 2.343 0 0 1-1.851 3.2l-3.447.474a2.343 2.343 0 0 0-2 2l-.475 3.447a2.343 2.343 0 0 1-3.2 1.852l-3.224-1.311A2.344 2.344 0 0 0 29 45.34l-2.151 2.76a2.343 2.343 0 0 1-3.7 0l-2.141-2.75a2.345 2.345 0 0 0-2.732-.731l-3.225 1.31a2.343 2.343 0 0 1-3.2-1.851l-.474-3.447a2.343 2.343 0 0 0-2-2l-3.451-.481a2.343 2.343 0 0 1-1.852-3.2l1.311-3.224a2.344 2.344 0 0 0-.731-2.732L1.9 26.849a2.343 2.343 0 0 1 0-3.7l2.75-2.141a2.345 2.345 0 0 0 .731-2.732l-1.31-3.225a2.343 2.343 0 0 1 1.851-3.2l3.447-.474a2.343 2.343 0 0 0 2-2l.475-3.447a2.343 2.343 0 0 1 3.2-1.852l3.224 1.311A2.344 2.344 0 0 0 21 4.658L23.151 1.9a2.343 2.343 0 0 1 3.7 0l2.141 2.75a2.345 2.345 0 0 0 2.732.731l3.225-1.31a2.343 2.343 0 0 1 3.2 1.851l.474 3.447a2.343 2.343 0 0 0 2 2l3.447.475a2.343 2.343 0 0 1 1.852 3.2l-1.311 3.224A2.344 2.344 0 0 0 45.342 21l2.75 2.141a2.343 2.343 0 0 1 .008 3.708z" fill="#ff8a14" stroke="#45413c" stroke-linecap="round" stroke-linejoin="round" stroke-width="1.25px"></path><circle cx="25" cy="25" r="17.45" fill="#eb6d00"></circle><circle cx="25" cy="25" r="16.077" fill="#ffe500"></circle><path d="M25 12.8a16.071 16.071 0 0 1 15.949 14.14 16.077 16.077 0 1 0-31.9 0A16.071 16.071 0 0 1 25 12.8z" fill="#fff48c"></path></svg>