<svg xmlns="http://www.w3.org/2000/svg" viewBox="0 0 50 50" height="1920" width="1920"><defs></defs><path d="M33.273 21.436c0-2.808-2.686-5.084-6-5.084-.044 0-.086 0-.13.006a6.921 6.921 0 0 0 .13-1.277c0-4.445-4.253-8.048-9.5-8.048A9.847 9.847 0 0 0 9.4 11.275c-.043 0-.086-.006-.13-.006-3.313 0-6 2.276-6 5.083a4.361 4.361 0 0 0 .289 1.554 5.553 5.553 0 0 0-2.289 4.377 5.867 5.867 0 0 0 3.621 5.193 5.151 5.151 0 0 0-.621 2.432c0 3.275 3.135 5.93 7 5.93a8.1 8.1 0 0 0 2.455-.382 11.052 11.052 0 0 0 6.545 2.077c5.523 0 10-3.793 10-8.472a7.3 7.3 0 0 0-.636-2.953 5.142 5.142 0 0 0 3.639-4.672z" fill="#ffffff"></path><path d="M23.273 34.533a11.052 11.052 0 0 1-6.545-2.077 8.1 8.1 0 0 1-2.455.382c-3.865 0-7-2.655-7-5.93a5.151 5.151 0 0 1 .621-2.432 5.867 5.867 0 0 1-3.621-5.193 5.553 5.553 0 0 1 2.289-4.377 4.337 4.337 0 0 1-.013-3.079 5.063 5.063 0 0 0-3.276 4.525 4.361 4.361 0 0 0 .289 1.554 5.553 5.553 0 0 0-2.289 4.377 5.867 5.867 0 0 0 3.621 5.193 5.151 5.151 0 0 0-.621 2.432c0 3.275 3.135 5.93 7 5.93a8.1 8.1 0 0 0 2.455-.382 11.052 11.052 0 0 0 6.545 2.077 10.306 10.306 0 0 0 8.919-4.654 11.179 11.179 0 0 1-5.919 1.654z" fill="#e8f4fa"></path><path d="M33.273 21.436c0-2.808-2.686-5.084-6-5.084-.044 0-.086 0-.13.006a6.921 6.921 0 0 0 .13-1.277c0-4.445-4.253-8.048-9.5-8.048A9.847 9.847 0 0 0 9.4 11.275c-.043 0-.086-.006-.13-.006-3.313 0-6 2.276-6 5.083a4.361 4.361 0 0 0 .289 1.554 5.553 5.553 0 0 0-2.289 4.377 5.867 5.867 0 0 0 3.621 5.193 5.151 5.151 0 0 0-.621 2.432c0 3.275 3.135 5.93 7 5.93a8.1 8.1 0 0 0 2.455-.382 11.052 11.052 0 0 0 6.545 2.077c5.523 0 10-3.793 10-8.472a7.3 7.3 0 0 0-.636-2.953 5.142 5.142 0 0 0 3.639-4.672z" fill="none" stroke="#45413c" stroke-linecap="round" stroke-linejoin="round" stroke-width="1.25px"></path><circle cx="25.451" cy="15.907" r="4.5" stroke-linecap="round" stroke-linejoin="round" stroke-width="1.25px" stroke="#45413c" fill="#ffffff"></circle><circle cx="26.774" cy="17.033" r="1" fill="#45413c"></circle><path d="M23.481 25.229a5 5 0 0 1-5.192 7.671M9.326 22.205a5 5 0 0 1 4.726 1.8m.274-13.8a3.021 3.021 0 0 1 2.855 1.09" stroke="#daedf7" fill="none" stroke-linecap="round" stroke-linejoin="round" stroke-width="1.25px"></path><path d="M35.277 26.253a8.841 8.841 0 0 0 4.255-.726 11.156 11.156 0 0 0 3.524-2.28 6.557 6.557 0 0 0 1.808-3.223 4 4 0 0 0 .018-1.628 3.725 3.725 0 0 0-.6-1.344c-3.373-4.911-8.266 1.506-2.411 1.55h.193a.558.558 0 0 1 .554.561.646.646 0 0 1-.014.118 2.29 2.29 0 0 1-1.095 1.4 3.852 3.852 0 0 1-1.679.549 4.643 4.643 0 0 1-5.219-4.59 5.732 5.732 0 0 1 4.677-5.452c3.751-.9 7.048 1.478 8.405 3.674a6.942 6.942 0 0 1 1 3.073A7.747 7.747 0 0 1 48.328 21a9.157 9.157 0 0 1-3.374 4.541 12.292 12.292 0 0 1-4.83 2.059 9.1 9.1 0 0 1-5.106-.376.5.5 0 0 1-.272-.659.511.511 0 0 1 .531-.312z" fill="#b8ecff"></path><path d="M35.614 19.068a5.007 5.007 0 0 1 .444-2.1 5.6 5.6 0 0 1 1.117-1.627 6.482 6.482 0 0 1 3.116-1.723 6.644 6.644 0 0 1 1.732-.185 7.18 7.18 0 0 1 1.621.212 8.222 8.222 0 0 1 4.943 3.489 6.928 6.928 0 0 0-.891-2.273c-1.338-2.165-4.633-4.582-8.405-3.674a5.731 5.731 0 0 0-4.677 5.452 4.688 4.688 0 0 0 1.028 2.907 4.7 4.7 0 0 1-.028-.478z" fill="#ffffff"></path><path d="M35.277 26.253a8.841 8.841 0 0 0 4.255-.726 11.156 11.156 0 0 0 3.524-2.28 6.557 6.557 0 0 0 1.808-3.223 4 4 0 0 0 .018-1.628 3.725 3.725 0 0 0-.6-1.344c-3.373-4.911-8.266 1.506-2.411 1.55h.193a.558.558 0 0 1 .554.561.646.646 0 0 1-.014.118 2.29 2.29 0 0 1-1.095 1.4 3.852 3.852 0 0 1-1.679.549 4.643 4.643 0 0 1-5.219-4.59 5.732 5.732 0 0 1 4.677-5.452c3.751-.9 7.048 1.478 8.405 3.674a6.942 6.942 0 0 1 1 3.073A7.747 7.747 0 0 1 48.328 21a9.157 9.157 0 0 1-3.374 4.541 12.292 12.292 0 0 1-4.83 2.059 9.1 9.1 0 0 1-5.106-.376.5.5 0 0 1-.272-.659.511.511 0 0 1 .531-.312z" fill="none" stroke="#45413c" stroke-linecap="round" stroke-linejoin="round" stroke-width="1.25px"></path><path d="M33.543 39.342c-.786 4.014 2.842 3.829 3.377 1.772a2.76 2.76 0 0 0-.675-2.433 5.428 5.428 0 0 0-2.187-1.408c-.2-.078-.637-.265-.857-.168-.411.184-.143.242-.027.566a2.815 2.815 0 0 1 .369 1.671z" fill="#b8ecff" stroke-linecap="round" stroke-linejoin="round" stroke-width="1.25px" stroke="#45413c"></path><path d="M32.545 32.266a7.811 7.811 0 0 1 5.349-2.677 9.832 9.832 0 0 1 3.2.171 8.211 8.211 0 0 1 3.174 1.534C51 36.561 43.48 46.33 40.7 41.8c-.8-1.309 3.583-12.024-7.407-8.571l-.065.02a.63.63 0 0 1-.687-.985z" fill="#b8ecff"></path><path d="M46.513 35.56a1.435 1.435 0 0 0 .427.208 6.692 6.692 0 0 0-2.668-4.474A8.211 8.211 0 0 0 41.1 29.76a9.832 9.832 0 0 0-3.2-.171 7.811 7.811 0 0 0-5.349 2.677.642.642 0 0 0-.118.512l.012-.011a8.885 8.885 0 0 1 4.038-1.448 9.859 9.859 0 0 1 3.2.17 8.213 8.213 0 0 1 3.174 1.535 24.034 24.034 0 0 0 3.656 2.536z" fill="#ffffff"></path><path d="M32.545 32.266a7.811 7.811 0 0 1 5.349-2.677 9.832 9.832 0 0 1 3.2.171 8.211 8.211 0 0 1 3.174 1.534C51 36.561 43.48 46.33 40.7 41.8c-.8-1.309 3.583-12.024-7.407-8.571l-.065.02a.63.63 0 0 1-.687-.985z" fill="none" stroke="#45413c" stroke-linecap="round" stroke-linejoin="round" stroke-width="1.25px"></path></svg>