<svg xmlns="http://www.w3.org/2000/svg" viewBox="0 0 50 50" height="1920" width="1920"><defs></defs><path d="M45.739 29.3c-1.516 8.366-9.32 15.469-20.817 15.469S5.22 37.743 4.1 29.3C1.82 12.012 12.587 5.236 24.084 5.236S48.872 12.012 45.739 29.3z" fill="#87898c"></path><path d="M24 10.236c-9.69 0-18.858 4.815-20.135 16.673C2.842 11.385 13.131 5.236 24.084 5.236c11.062 0 23.785 6.273 21.941 22.143C44.93 15.181 33.816 10.236 24 10.236z" fill="#bdbec0"></path><path d="M45.739 29.3c-1.516 8.366-9.32 15.469-20.817 15.469S5.22 37.743 4.1 29.3C1.82 12.012 12.587 5.236 24.084 5.236S48.872 12.012 45.739 29.3z" fill="none" stroke="#45413c" stroke-linecap="round" stroke-linejoin="round" stroke-width="1.25px"></path><path d="M45.739 29.3c-1.516 8.366-9.32 15.469-20.817 15.469S5.22 37.743 4.1 29.3C1.82 12.012 12.587 5.236 24.084 5.236S48.872 12.012 45.739 29.3z" fill="none" stroke="#45413c" stroke-linecap="round" stroke-linejoin="round" stroke-width="1.25px"></path><path d="M30.594 16.845a1.476 1.476 0 0 0 .876 1.439c.665.324 1.5.133 1.545-.7.04-.722-.325-1.712-1.143-1.811a1.213 1.213 0 0 0-1.278 1.072zM41.478 30.75a1.329 1.329 0 0 0-1.037-1.029h-.075a1.222 1.222 0 0 0-1.2 1.072 1.477 1.477 0 0 0 .877 1.439 1.552 1.552 0 0 0 .255.1.921.921 0 0 0 1.29-.8 2.251 2.251 0 0 0-.11-.782z" fill="#525252"></path><circle cx="18.164" cy="27.844" r="1.4" fill="#45413c"></circle><path d="M21.08 33.7c.4 1.262 2.213 2.216 4.393 2.216s3.993-.954 4.394-2.216" fill="none" stroke="#45413c" stroke-linecap="round" stroke-linejoin="round" stroke-width="1.25px"></path><circle cx="32.766" cy="27.844" r="1.4" fill="#45413c"></circle><path d="M35.753 16.194a3.793 3.793 0 0 0 2.253 3.7c1.708.833 3.851.341 3.97-1.8.1-1.855-.836-4.4-2.937-4.653a3.116 3.116 0 0 0-3.286 2.753z" fill="#656769"></path><path d="M39.039 13.44a3.116 3.116 0 0 0-3.286 2.754 2.655 2.655 0 0 0 .02.97l.01-.012a2.952 2.952 0 0 1 3.006-1.879c.017 0 .031.01.048.012a3.4 3.4 0 0 1 2.592 2.535c.028.083.045.168.069.253.035.126.075.252.1.38.045.214.1.641.1.642l.012.029a2.532 2.532 0 0 0 .264-1.031c.105-1.855-.834-4.393-2.935-4.653z" fill="#f2c100"></path><path d="M41.585 24.046a2.166 2.166 0 0 0-.158 2.465c.526.949 1.689 1.421 2.445.46.656-.833 1.05-2.33.151-3.137a1.778 1.778 0 0 0-2.438.212z" fill="#656769"></path><path d="M44.023 23.834a1.778 1.778 0 0 0-2.438.212 1.85 1.85 0 0 0-.452 1.508 1.466 1.466 0 0 1 .264-.382 1.778 1.778 0 0 1 2.438-.212 1.611 1.611 0 0 1 .519 1.124l.005.005a2.017 2.017 0 0 0-.336-2.255z" fill="#525252"></path><path d="M35.344 24.1a1.476 1.476 0 0 0 .876 1.439c.665.324 1.5.133 1.545-.7.04-.722-.325-1.712-1.143-1.811a1.213 1.213 0 0 0-1.278 1.072z" fill="#656769"></path><path d="M36.622 23.023a1.213 1.213 0 0 0-1.278 1.077 1.072 1.072 0 0 0 .05.533l.005-.019a1.146 1.146 0 0 1 1.161-.714 1.448 1.448 0 0 1 1.106 1.309v.014a.98.98 0 0 0 .1-.387c.039-.724-.326-1.714-1.144-1.813z" fill="#525252"></path><path d="M30.7 10.773a2.166 2.166 0 0 0 1.286 2.11c.975.475 2.2.2 2.266-1.026.059-1.059-.477-2.511-1.676-2.656a1.778 1.778 0 0 0-1.876 1.572z" fill="#656769"></path><path d="M32.571 9.2a1.778 1.778 0 0 0-1.871 1.573 1.571 1.571 0 0 0 .065.755v-.005a1.7 1.7 0 0 1 1.743-1.135 2.135 2.135 0 0 1 1.628 1.95v.013a1.5 1.5 0 0 0 .107-.494c.063-1.057-.473-2.511-1.672-2.657z" fill="#525252"></path><path d="M45.739 29.3c-1.516 8.366-9.32 15.469-20.817 15.469S5.22 37.743 4.1 29.3C1.82 12.012 12.587 5.236 24.084 5.236S48.872 12.012 45.739 29.3z" fill="none" stroke="#45413c" stroke-linecap="round" stroke-linejoin="round" stroke-width="1.25px"></path><path d="M39.039 13.44a3.116 3.116 0 0 0-3.286 2.754 2.655 2.655 0 0 0 .02.97l.01-.012a2.952 2.952 0 0 1 3.006-1.879c.017 0 .031.01.048.012a3.4 3.4 0 0 1 2.592 2.535c.028.083.045.168.069.253.035.126.075.252.1.38.045.214.1.641.1.642l.012.029a2.532 2.532 0 0 0 .264-1.031c.105-1.855-.834-4.393-2.935-4.653z" fill="#525252"></path></svg>