<svg xmlns="http://www.w3.org/2000/svg" viewBox="0 0 50 50" height="1920" width="1920"><defs></defs><path d="m48.1 26.849-2.75 2.141a2.345 2.345 0 0 0-.731 2.732l1.31 3.225a2.343 2.343 0 0 1-1.851 3.2l-3.447.474a2.343 2.343 0 0 0-2 2l-.475 3.447a2.343 2.343 0 0 1-3.2 1.852l-3.224-1.311A2.344 2.344 0 0 0 29 45.34l-2.151 2.76a2.343 2.343 0 0 1-3.7 0l-2.141-2.75a2.345 2.345 0 0 0-2.732-.731l-3.225 1.31a2.343 2.343 0 0 1-3.2-1.851l-.474-3.447a2.343 2.343 0 0 0-2-2l-3.451-.481a2.343 2.343 0 0 1-1.852-3.2l1.311-3.224a2.344 2.344 0 0 0-.731-2.732L1.9 26.849a2.343 2.343 0 0 1 0-3.7l2.75-2.141a2.345 2.345 0 0 0 .731-2.732l-1.31-3.225a2.343 2.343 0 0 1 1.851-3.2l3.447-.474a2.343 2.343 0 0 0 2-2l.475-3.447a2.343 2.343 0 0 1 3.2-1.852l3.224 1.311A2.344 2.344 0 0 0 21 4.658L23.151 1.9a2.343 2.343 0 0 1 3.7 0l2.141 2.75a2.345 2.345 0 0 0 2.732.731l3.225-1.31a2.343 2.343 0 0 1 3.2 1.851l.474 3.447a2.343 2.343 0 0 0 2 2l3.447.475a2.343 2.343 0 0 1 1.852 3.2l-1.311 3.224A2.344 2.344 0 0 0 45.342 21l2.75 2.141a2.343 2.343 0 0 1 .008 3.708z" stroke="#45413c" stroke-linecap="round" stroke-linejoin="round" stroke-width="1.25px" fill="#ff8a14"></path><circle cx="25" cy="25" r="19.058" fill="#eb6d00"></circle><circle cx="25" cy="25" r="17.559" fill="#ffe500"></circle><path d="M25 11.673a17.555 17.555 0 0 1 17.42 15.443A17.79 17.79 0 0 0 42.559 25a17.559 17.559 0 1 0-34.978 2.116A17.552 17.552 0 0 1 25 11.673z" fill="#fff48c"></path><circle cx="29.642" cy="23.466" r=".977" fill="#45413c"></circle><circle cx="20.18" cy="23.657" r=".977" fill="#45413c"></circle><path d="M22.047 27.408a2.866 2.866 0 0 0 5.627 0" fill="none" stroke="#45413c" stroke-linecap="round" stroke-linejoin="round" stroke-width="1.25px"></path><circle cx="17.778" cy="28.22" r="1.077" fill="#ff866e"></circle><circle cx="32.267" cy="27.143" r="1.077" fill="#ff866e"></circle></svg>