<svg xmlns="http://www.w3.org/2000/svg" viewBox="0 0 50 50" height="1920" width="1920"><defs></defs><path d="M41.468 14.394a9.988 9.988 0 0 0-9.834-9.36 7.5 7.5 0 0 0-13.268 0 9.988 9.988 0 0 0-9.834 9.36 8.5 8.5 0 0 0 4.094 16.474A7.486 7.486 0 0 0 25 35.106a7.486 7.486 0 0 0 12.374-4.238 8.5 8.5 0 0 0 4.094-16.474z" fill="#6dd627"></path><path d="M8.532 20.394a9.988 9.988 0 0 1 9.834-9.36 7.5 7.5 0 0 1 13.268 0 9.988 9.988 0 0 1 9.834 9.36 8.514 8.514 0 0 1 5.478 5.129 8.475 8.475 0 0 0-5.478-11.129 9.988 9.988 0 0 0-9.834-9.36 7.5 7.5 0 0 0-13.268 0 9.988 9.988 0 0 0-9.834 9.36 8.475 8.475 0 0 0-5.478 11.129 8.514 8.514 0 0 1 5.478-5.129z" fill="#9ceb60"></path><path d="M41.468 14.394a9.988 9.988 0 0 0-9.834-9.36 7.5 7.5 0 0 0-13.268 0 9.988 9.988 0 0 0-9.834 9.36 8.5 8.5 0 0 0 4.094 16.474A7.486 7.486 0 0 0 25 35.106a7.486 7.486 0 0 0 12.374-4.238 8.5 8.5 0 0 0 4.094-16.474z" fill="none" stroke="#45413c" stroke-linecap="round" stroke-linejoin="round" stroke-width="1.25px"></path><path d="m32.293 26.976-.036-.016a1.223 1.223 0 0 0-1.638.569 8.247 8.247 0 0 1-1.112 1.852 1.292 1.292 0 0 1-2.267-.85v-4.268a1.362 1.362 0 0 0-1.368-1.363l-2.114.007a1.44 1.44 0 0 0-1.434 1.439v2a1.308 1.308 0 0 1-2.318.841 7.388 7.388 0 0 1-.377-.541 1.291 1.291 0 0 0-1.759-.434 1.279 1.279 0 0 0-.512 1.592c.965 2.279 1.974 4.61 4.042 5.368-1.245 4.073-2.513 8.316-2.5 13.475a2.349 2.349 0 0 0 2.356 2.323h6.486a2.367 2.367 0 0 0 2.355-2.41c-.05-4.083-.992-7.159-1.549-10.541 2.872-1.778 3.659-4.579 4.369-7.709a1.165 1.165 0 0 0-.624-1.334z" fill="#b89558"></path><path d="m32.293 26.976-.036-.016a1.223 1.223 0 0 0-1.638.569 8.247 8.247 0 0 1-1.112 1.852 1.292 1.292 0 0 1-2.267-.85v-4.268a1.362 1.362 0 0 0-1.368-1.363l-2.114.007a1.44 1.44 0 0 0-1.434 1.439v2a1.308 1.308 0 0 1-2.318.841 7.388 7.388 0 0 1-.377-.541 1.291 1.291 0 0 0-1.759-.434h0a1.279 1.279 0 0 0-.512 1.592c.965 2.279 1.974 4.61 4.042 5.368-1.245 4.073-2.513 8.316-2.5 13.475a2.349 2.349 0 0 0 2.356 2.323h6.486a2.367 2.367 0 0 0 2.355-2.41c-.05-4.083-.992-7.159-1.549-10.541 2.872-1.778 3.659-4.579 4.369-7.709a1.165 1.165 0 0 0-.624-1.334z" fill="none" stroke="#45413c" stroke-linecap="round" stroke-linejoin="round" stroke-width="1.25px"></path></svg>