<svg xmlns="http://www.w3.org/2000/svg" viewBox="0 0 50 50" height="1920" width="1920"><path d="M45.32 17.666c-.447-.263-4.814-1.322-4.971-1.414a6.679 6.679 0 0 0-1.341-.595 12.743 12.743 0 0 0-3.484-.491 7.314 7.314 0 0 1-1.28-1.906 34.926 34.926 0 0 0-3.125-5.894 5.51 5.51 0 0 0-4.019-2.2 13.914 13.914 0 0 1-3.129-.74 5.231 5.231 0 0 0-5.8 1.848 33.434 33.434 0 0 0-3.271 5.887 4.68 4.68 0 0 1-3.381 3.029c-1.845.387-3.759.041-5.6.516a5.392 5.392 0 0 0-2.492 8.863C4.926 26.243 7 27.4 8.243 29.316a3.827 3.827 0 0 1 .557 3.362c-.831 2.717-2.178 6.157-.256 8.715 1.017 1.354 9.1 4.609 11.929 3.117 2.072-1.095 6.5-3.149 6.507-3.146 1.232.84 8.625 5.063 11.186 4.4 5.509-1.43 3.768-7.291 2.9-11.238-.424-1.92.467-3.394 1.866-4.622 2.068-1.824 5.002-4.141 5.174-7.144a5.623 5.623 0 0 0-2.786-5.094z" stroke="#45413c" stroke-linecap="round" stroke-linejoin="round" stroke-width="1.25px" fill="#ffe500"></path><path d="M3.417 24.569a5.392 5.392 0 0 1 2.492-8.863l.026-.006c1.838-.466 3.742-.124 5.579-.509a4.683 4.683 0 0 0 3.381-3.03 33.493 33.493 0 0 1 3.272-5.892 5.293 5.293 0 0 1 8.479.045A33.64 33.64 0 0 1 29.661 12c.993 2.016 2.207 3.073 4.453 3.13a17.47 17.47 0 0 1 4.894.527 6.679 6.679 0 0 1 1.341.595 5.425 5.425 0 0 1 2.687 4.916c-.165 2.9-2.993 5.133-5 6.891-1.351 1.185-2.21 2.607-1.8 4.46.84 3.809 2.521 9.463-2.795 10.844-2.922.758-5.782-1.531-8.027-3.09a4.468 4.468 0 0 0-3.082-1.147c-2.257.2-4.044 2.014-5.963 3.028-2.726 1.44-5.741 2.021-7.83-.761-1.922-2.558-.575-6 .256-8.716a3.827 3.827 0 0 0-.555-3.36c-1.379-2.123-3.761-3.307-5.282-5.3" fill="#fffacf"></path><path d="M35.819 17.234a14.114 14.114 0 0 0-3.95-.425 3.781 3.781 0 0 1-3.595-2.526 27.224 27.224 0 0 0-2.434-4.591A4.272 4.272 0 0 0 19 9.656a27.008 27.008 0 0 0-2.642 4.757 3.78 3.78 0 0 1-2.729 2.445c-1.483.311-3.02.035-4.5.411a4.274 4.274 0 0 0-2.4 6.718c1.227 1.6 3.151 2.561 4.264 4.274a3.093 3.093 0 0 1 .448 2.713c-.671 2.193-1.759 4.97-.207 7.036 1.686 2.245 4.12 1.776 6.32.614 1.55-.819 2.992-2.281 4.814-2.445a3.61 3.61 0 0 1 2.488.926c1.812 1.258 4.121 3.107 6.479 2.494 4.292-1.114 2.935-5.679 2.257-8.753a3.593 3.593 0 0 1 1.454-3.6c1.616-1.418 3.9-3.223 4.033-5.562a4.377 4.377 0 0 0-2.17-3.968 5.362 5.362 0 0 0-1.09-.482z" fill="#ffe500"></path><path d="M3.417 24.569a5.392 5.392 0 0 1 2.492-8.863l.026-.006c1.838-.466 3.742-.124 5.579-.509a4.683 4.683 0 0 0 3.381-3.03 33.493 33.493 0 0 1 3.272-5.892 5.293 5.293 0 0 1 8.479.045A33.64 33.64 0 0 1 29.661 12c.993 2.016 2.207 3.073 4.453 3.13a17.47 17.47 0 0 1 4.894.527 6.679 6.679 0 0 1 1.341.595 5.425 5.425 0 0 1 2.687 4.916c-.165 2.9-2.993 5.133-5 6.891-1.351 1.185-2.21 2.607-1.8 4.46.84 3.809 2.521 9.463-2.795 10.844-2.922.758-5.782-1.531-8.027-3.09a4.468 4.468 0 0 0-3.082-1.147c-2.257.2-4.044 2.014-5.963 3.028-2.726 1.44-5.741 2.021-7.83-.761-1.922-2.558-.575-6 .256-8.716a3.827 3.827 0 0 0-.555-3.36c-1.379-2.123-3.761-3.307-5.282-5.3" fill="none" stroke="#45413c" stroke-linecap="round" stroke-linejoin="round" stroke-width="1.25px"></path></svg>