<svg xmlns="http://www.w3.org/2000/svg" viewBox="0 0 50 50" height="1920" width="1920"><defs></defs><path d="M48.5 25a14.1 14.1 0 0 0-12.413-13.99 10.859 10.859 0 0 0-20.635 6.739A44.182 44.182 0 0 1 1.5 19.712c5.847.648 6.677 5.779 0 7.05 2.846 1.121 3.43 4.064 0 5.288a39.735 39.735 0 0 1 13.721 2.188 9.966 9.966 0 0 0 17.087 8.716 4.688 4.688 0 0 0 7.269-4.848A14.1 14.1 0 0 0 48.5 25z" fill="#ffffff"></path><path d="M48.5 25a14.008 14.008 0 0 0-2.051-7.317 13.348 13.348 0 0 1-8.188 15.185 4.457 4.457 0 0 1-6.906 4.606 9.443 9.443 0 0 1-16.232-8.281 37.748 37.748 0 0 0-12.909-2.077c2.2 1.294 2.4 3.822-.714 4.934a39.735 39.735 0 0 1 13.721 2.188 9.966 9.966 0 0 0 17.087 8.716 4.688 4.688 0 0 0 7.269-4.848A14.1 14.1 0 0 0 48.5 25z" fill="#e8f4fa"></path><path d="M48.5 25a14.1 14.1 0 0 0-12.413-13.99 10.859 10.859 0 0 0-20.635 6.739A44.182 44.182 0 0 1 1.5 19.712c5.847.648 6.677 5.779 0 7.05 2.846 1.121 3.43 4.064 0 5.288a39.735 39.735 0 0 1 13.721 2.188 9.966 9.966 0 0 0 17.087 8.716 4.688 4.688 0 0 0 7.269-4.848A14.1 14.1 0 0 0 48.5 25z" fill="none" stroke="#45413c" stroke-linecap="round" stroke-linejoin="round" stroke-width="1.25px"></path><path d="M15.452 17.749a6.332 6.332 0 0 0 4.26 4.314m-4.491 12.175a11.02 11.02 0 0 1 2.141-3.95M2.675 16.775c6.683-1.122 8.225-4.112 8.225-4.112M2.675 34.988c4.7.587 5.875 1.762 5.875 1.762m-4.7.587a5.93 5.93 0 0 1 2.937 1.175" fill="none" stroke="#45413c" stroke-linecap="round" stroke-linejoin="round" stroke-width="1.25px"></path></svg>