<svg xmlns="http://www.w3.org/2000/svg" viewBox="0 0 50 50" height="1920" width="1920"><defs></defs><path d="M21.02 24.306 16.16 35.24a.683.683 0 0 0 .625.961h5.782l-3.5 10.483a1.367 1.367 0 0 0 2.294 1.366l15.161-16.165a.684.684 0 0 0-.5-1.151H29.4l2.359-5.9a.684.684 0 0 0-.635-.937h-9.48a.682.682 0 0 0-.624.409z" fill="#ffe500"></path><path d="M36.023 30.734H29.4l2.359-5.9a.684.684 0 0 0-.635-.937h-9.48a.682.682 0 0 0-.624.406l-3.6 8.094h18.618l.484-.515a.684.684 0 0 0-.499-1.148z" fill="#f2c100"></path><path d="M21.02 24.306 16.16 35.24a.683.683 0 0 0 .625.961h5.782l-3.5 10.483a1.367 1.367 0 0 0 2.294 1.366l15.161-16.165a.684.684 0 0 0-.5-1.151H29.4l2.359-5.9a.684.684 0 0 0-.635-.937h-9.48a.682.682 0 0 0-.624.409z" fill="none" stroke="#45413c" stroke-linecap="round" stroke-linejoin="round" stroke-width="1.25px"></path><path d="M38.99 13.74a9.359 9.359 0 0 0-1.067.068 13.236 13.236 0 0 0-26.092-2.073 8.15 8.15 0 0 0 .659 16.274h26.5c4.5 0 8.154-3.194 8.154-7.134s-3.651-7.135-8.154-7.135z" fill="#f0f0f0"></path><path d="M11.831 16.831A13.236 13.236 0 0 1 37.923 18.9a9.359 9.359 0 0 1 1.067-.068 8.189 8.189 0 0 1 7.61 4.591 6.348 6.348 0 0 0 .545-2.548c0-3.941-3.651-7.135-8.154-7.135a9.359 9.359 0 0 0-1.067.068 13.236 13.236 0 0 0-26.092-2.073 8.139 8.139 0 0 0-7.083 10.673 8.155 8.155 0 0 1 7.082-5.577z" fill="#ffffff"></path><path d="M38.99 13.74a9.359 9.359 0 0 0-1.067.068 13.236 13.236 0 0 0-26.092-2.073 8.15 8.15 0 0 0 .659 16.274h26.5c4.5 0 8.154-3.194 8.154-7.134s-3.651-7.135-8.154-7.135z" fill="none" stroke="#45413c" stroke-linecap="round" stroke-linejoin="round" stroke-width="1.25px"></path><circle cx="16.68" cy="20.114" r="1.124" fill="#ff866e"></circle><circle cx="32.47" cy="20.106" r="1.124" fill="#ff866e"></circle><path d="m20.061 22.367 2.257-2.257 2.257 2.257 2.257-2.257 2.257 2.257M18.933 13.34l2.257 1.128-2.257 1.129m11.284-2.257-2.257 1.128 2.257 1.129" fill="none" stroke="#45413c" stroke-linecap="round" stroke-linejoin="round" stroke-width="1.25px"></path><path d="M7.746 35.1a2.532 2.532 0 0 1-3.213 1.5A2.444 2.444 0 0 1 3 33.46c.356-.979 2.54-2.691 3.547-3.442a.421.421 0 0 1 .663.23c.3 1.203.89 3.877.536 4.852zm7 11a2.532 2.532 0 0 1-3.213 1.5A2.444 2.444 0 0 1 10 44.46c.356-.979 2.54-2.691 3.547-3.442a.421.421 0 0 1 .663.23c.3 1.203.89 3.877.536 4.852zm31-11a2.532 2.532 0 0 1-3.213 1.5A2.444 2.444 0 0 1 41 33.46c.356-.979 2.54-2.691 3.547-3.442a.421.421 0 0 1 .663.23c.3 1.203.89 3.877.536 4.852zm-8.52 11a2.533 2.533 0 0 1-3.214 1.5 2.444 2.444 0 0 1-1.53-3.139c.355-.979 2.54-2.691 3.547-3.442a.421.421 0 0 1 .663.23c.298 1.202.89 3.876.534 4.851z" fill="#80ddff" stroke="#00b8f0" stroke-linecap="round" stroke-linejoin="round" stroke-width="1.25px"></path></svg>