<svg xmlns="http://www.w3.org/2000/svg" viewBox="0 0 50 50" height="1920" width="1920"><defs></defs><path d="M42.026 19.781h-.046l.035-.029a3.681 3.681 0 0 0-.063-5.519 6.61 6.61 0 0 0-5.459-1.9 5.936 5.936 0 0 0-2.866 1.284 6 6 0 0 0 .4-3.468 6.608 6.608 0 0 0-3.6-4.524A3.68 3.68 0 0 0 25.2 7.389l-.017.042-.016-.042a3.681 3.681 0 0 0-5.229-1.765 6.605 6.605 0 0 0-3.6 4.524 6.155 6.155 0 0 0 .7 4.092 6.126 6.126 0 0 0-3.535-1.908 6.61 6.61 0 0 0-5.459 1.9 3.681 3.681 0 0 0-.063 5.519l.035.029h-.042a3.681 3.681 0 0 0-3.394 4.353 6.609 6.609 0 0 0 3.082 4.891 6.134 6.134 0 0 0 3.982.71 6.065 6.065 0 0 0-2.773 2.591 6.606 6.606 0 0 0-.055 5.78 3.681 3.681 0 0 0 5.174 1.921l.039-.026-.014.043a3.68 3.68 0 0 0 2.951 4.663 6.6 6.6 0 0 0 5.644-1.25c2-1.665 1.919-3.512 2.576-6.361l.048 1.822a6.371 6.371 0 0 0 2.156 4.543 6.6 6.6 0 0 0 5.644 1.25 3.68 3.68 0 0 0 2.951-4.663L35.971 40l.039.022a3.681 3.681 0 0 0 5.174-1.922 6.606 6.606 0 0 0-.055-5.78 6.065 6.065 0 0 0-2.773-2.591 6.134 6.134 0 0 0 3.982-.71 6.609 6.609 0 0 0 3.082-4.891 3.681 3.681 0 0 0-3.394-4.347z" fill="#ff87af"></path><path d="M42.026 19.781h-.046l.035-.029a3.681 3.681 0 0 0-.063-5.519 6.61 6.61 0 0 0-5.459-1.9 5.929 5.929 0 0 0-2.866 1.285 6 6 0 0 0 .4-3.469 6.608 6.608 0 0 0-3.6-4.524A3.68 3.68 0 0 0 25.2 7.389l-.017.042-.016-.042a3.681 3.681 0 0 0-5.229-1.765 6.605 6.605 0 0 0-3.6 4.524 6.155 6.155 0 0 0 .7 4.092 6.126 6.126 0 0 0-3.535-1.908 6.61 6.61 0 0 0-5.459 1.9 3.681 3.681 0 0 0-.063 5.519l.035.029h-.042a3.681 3.681 0 0 0-3.394 4.353 6.609 6.609 0 0 0 3.082 4.891 6.134 6.134 0 0 0 3.982.71 6.065 6.065 0 0 0-2.773 2.591 6.606 6.606 0 0 0-.055 5.78 3.682 3.682 0 0 0 5.174 1.922l.039-.027-.014.043a3.68 3.68 0 0 0 2.951 4.663 6.6 6.6 0 0 0 5.644-1.25c2-1.665 1.919-3.512 2.576-6.361l.048 1.822a6.371 6.371 0 0 0 2.156 4.543 6.6 6.6 0 0 0 5.644 1.25 3.68 3.68 0 0 0 2.951-4.663L35.971 40l.039.023a3.682 3.682 0 0 0 5.174-1.923 6.606 6.606 0 0 0-.055-5.78 6.065 6.065 0 0 0-2.773-2.591 6.134 6.134 0 0 0 3.982-.71 6.609 6.609 0 0 0 3.082-4.891 3.681 3.681 0 0 0-3.394-4.347zm.792 4.462a5.766 5.766 0 0 1-2.689 4.268 5.352 5.352 0 0 1-3.475.62 5.3 5.3 0 0 1 2.42 2.261 5.765 5.765 0 0 1 .048 5.043 3.212 3.212 0 0 1-4.515 1.677l-.034-.02.012.038a3.211 3.211 0 0 1-2.575 4.07 5.767 5.767 0 0 1-4.925-1.091 5.689 5.689 0 0 1-1.9-4.009c-.573 2.486-.529 2.556-2.271 4.009A5.767 5.767 0 0 1 17.99 42.2a3.211 3.211 0 0 1-2.575-4.069l.012-.038-.034.02a3.212 3.212 0 0 1-4.515-1.677 5.765 5.765 0 0 1 .048-5.043 5.3 5.3 0 0 1 2.42-2.261 5.352 5.352 0 0 1-3.475-.62 5.766 5.766 0 0 1-2.689-4.268 3.212 3.212 0 0 1 2.962-3.8h.039l-.03-.026a3.211 3.211 0 0 1 .055-4.815 5.768 5.768 0 0 1 4.764-1.658 5.346 5.346 0 0 1 3.084 1.665 5.37 5.37 0 0 1-.609-3.57 5.764 5.764 0 0 1 3.139-3.948 3.21 3.21 0 0 1 4.562 1.539l.015.038.014-.038a3.21 3.21 0 0 1 4.562-1.539 5.765 5.765 0 0 1 3.14 3.948 5.238 5.238 0 0 1-.351 3.026 5.166 5.166 0 0 1 2.5-1.121 5.768 5.768 0 0 1 4.764 1.655 3.211 3.211 0 0 1 .055 4.815l-.03.026h.039a3.213 3.213 0 0 1 2.962 3.802z" fill="#ffb0ca"></path><path d="M42.026 19.781h-.046l.035-.029a3.681 3.681 0 0 0-.063-5.519 6.61 6.61 0 0 0-5.459-1.9 5.936 5.936 0 0 0-2.866 1.284 6 6 0 0 0 .4-3.468 6.608 6.608 0 0 0-3.6-4.524A3.68 3.68 0 0 0 25.2 7.389l-.017.042-.016-.042a3.681 3.681 0 0 0-5.229-1.765 6.605 6.605 0 0 0-3.6 4.524 6.155 6.155 0 0 0 .7 4.092 6.126 6.126 0 0 0-3.535-1.908 6.61 6.61 0 0 0-5.459 1.9 3.681 3.681 0 0 0-.063 5.519l.035.029h-.042a3.681 3.681 0 0 0-3.394 4.353 6.609 6.609 0 0 0 3.082 4.891 6.134 6.134 0 0 0 3.982.71 6.065 6.065 0 0 0-2.773 2.591 6.606 6.606 0 0 0-.055 5.78 3.681 3.681 0 0 0 5.174 1.921l.039-.026-.014.043a3.68 3.68 0 0 0 2.951 4.663 6.6 6.6 0 0 0 5.644-1.25c2-1.665 1.919-3.512 2.576-6.361l.048 1.822a6.371 6.371 0 0 0 2.156 4.543 6.6 6.6 0 0 0 5.644 1.25 3.68 3.68 0 0 0 2.951-4.663L35.971 40l.039.022a3.681 3.681 0 0 0 5.174-1.922 6.606 6.606 0 0 0-.055-5.78 6.065 6.065 0 0 0-2.773-2.591 6.134 6.134 0 0 0 3.982-.71 6.609 6.609 0 0 0 3.082-4.891 3.681 3.681 0 0 0-3.394-4.347z" stroke-linecap="round" stroke-linejoin="round" stroke-width="1.25px" stroke="#45413c" fill="none"></path><path d="M32.492 22.949h-.021l.016-.014a1.7 1.7 0 0 0-.029-2.553 3.054 3.054 0 0 0-2.527-.879 2.7 2.7 0 0 0-1.253.552 2.788 2.788 0 0 0 .21-1.65 3.058 3.058 0 0 0-1.665-2.093 1.7 1.7 0 0 0-2.42.816l-.007.02-.008-.02a1.7 1.7 0 0 0-2.419-.816 3.058 3.058 0 0 0-1.669 2.093 2.7 2.7 0 0 0 .095 1.332 2.585 2.585 0 0 0-.73-.234 3.054 3.054 0 0 0-2.527.879 1.7 1.7 0 0 0-.029 2.553l.016.014h-.021a1.7 1.7 0 0 0-1.57 2.014 3.056 3.056 0 0 0 1.425 2.263 2.523 2.523 0 0 0 .5.217 2.6 2.6 0 0 0-.531.669 3.055 3.055 0 0 0-.025 2.674 1.7 1.7 0 0 0 2.394.889l.018-.01-.007.02a1.7 1.7 0 0 0 1.366 2.158 3.057 3.057 0 0 0 2.611-.579 2.882 2.882 0 0 0 .96-1.846 2.876 2.876 0 0 0 .959 1.846 3.057 3.057 0 0 0 2.611.579 1.7 1.7 0 0 0 1.366-2.158l-.007-.02.019.01a1.7 1.7 0 0 0 2.393-.889 3.055 3.055 0 0 0-.025-2.674 2.545 2.545 0 0 0-.4-.544 2.666 2.666 0 0 0 1.073-.342 3.056 3.056 0 0 0 1.425-2.263 1.7 1.7 0 0 0-1.567-2.014z" stroke="#ff6196" stroke-linecap="round" stroke-linejoin="round" stroke-width="1.25px" fill="#ffb0ca"></path><circle cx="15.119" cy="17.626" r="1.675" stroke="#e0366f" fill="#ff6196" stroke-linecap="round" stroke-linejoin="round" stroke-width="1.25px"></circle><path d="M16.794 18.184a13.846 13.846 0 0 1 5.584 4.468" stroke="#e0366f" stroke-linecap="round" stroke-linejoin="round" stroke-width="1.25px" fill="none"></path><circle cx="23.212" cy="12.768" r="1.675" stroke="#e0366f" fill="#ff6196" stroke-linecap="round" stroke-linejoin="round" stroke-width="1.25px"></circle><path d="M22.933 14.421a13.733 13.733 0 0 0 1.322 7.115" stroke="#e0366f" stroke-linecap="round" stroke-linejoin="round" stroke-width="1.25px" fill="none"></path><circle cx="29.522" cy="14.68" r="1.675" stroke="#e0366f" fill="#ff6196" stroke-linecap="round" stroke-linejoin="round" stroke-width="1.25px"></circle><path d="M29.287 16.339a12.711 12.711 0 0 1-2.727 5.538" stroke="#e0366f" stroke-linecap="round" stroke-linejoin="round" stroke-width="1.25px" fill="none"></path><circle cx="21.772" cy="35.862" r="1.675" stroke="#e0366f" fill="#ff6196" stroke-linecap="round" stroke-linejoin="round" stroke-width="1.25px"></circle><path d="M21.764 34.186A12.766 12.766 0 0 1 23.7 28.24" stroke="#e0366f" stroke-linecap="round" stroke-linejoin="round" stroke-width="1.25px" fill="none"></path><circle cx="28.649" cy="34.869" r="1.675" stroke="#e0366f" fill="#ff6196" stroke-linecap="round" stroke-linejoin="round" stroke-width="1.25px"></circle><path d="M28.414 33.209a11.975 11.975 0 0 0-2.259-4.909" stroke="#e0366f" stroke-linecap="round" stroke-linejoin="round" stroke-width="1.25px" fill="none"></path><circle cx="12.298" cy="24.692" r="1.675" stroke="#e0366f" fill="#ff6196" stroke-linecap="round" stroke-linejoin="round" stroke-width="1.25px"></circle><path d="M13.9 24.208a14.125 14.125 0 0 1 7.616.533" stroke="#e0366f" stroke-linecap="round" stroke-linejoin="round" stroke-width="1.25px" fill="none"></path><circle cx="15.714" cy="32.18" r="1.675" stroke="#e0366f" fill="#ff6196" stroke-linecap="round" stroke-linejoin="round" stroke-width="1.25px"></circle><path d="M16.656 30.794a13.183 13.183 0 0 1 5.355-3.994" stroke="#e0366f" stroke-linecap="round" stroke-linejoin="round" stroke-width="1.25px" fill="none"></path><circle cx="35.335" cy="18.498" r="1.675" stroke="#e0366f" fill="#ff6196" stroke-linecap="round" stroke-linejoin="round" stroke-width="1.25px"></circle><path d="M33.744 19.026a13.644 13.644 0 0 0-5.613 4.429" stroke="#e0366f" stroke-linecap="round" stroke-linejoin="round" stroke-width="1.25px" fill="none"></path><circle cx="37.282" cy="24.692" r="1.675" stroke="#e0366f" fill="#ff6196" stroke-linecap="round" stroke-linejoin="round" stroke-width="1.25px"></circle><path d="M35.678 24.208a13.736 13.736 0 0 0-7.226.42" stroke="#e0366f" stroke-linecap="round" stroke-linejoin="round" stroke-width="1.25px" fill="none"></path><circle cx="34.739" cy="32.18" r="1.675" stroke="#e0366f" fill="#ff6196" stroke-linecap="round" stroke-linejoin="round" stroke-width="1.25px"></circle><path d="M33.8 30.794a13.632 13.632 0 0 0-5.786-4.184" stroke="#e0366f" stroke-linecap="round" stroke-linejoin="round" stroke-width="1.25px" fill="none"></path><circle cx="25" cy="25" r="3.49" fill="#ffe500"></circle><path d="M24.73 24.138a3.478 3.478 0 0 1 3.49 2.174 3.5 3.5 0 1 0-6.44-.006 3.478 3.478 0 0 1 2.95-2.168z" fill="#fff48c"></path><circle cx="25" cy="25" r="3.49" stroke-linecap="round" stroke-linejoin="round" stroke-width="1.25px" stroke="#45413c" fill="none"></circle></svg>