<svg xmlns="http://www.w3.org/2000/svg" viewBox="0 0 50 50" height="1920" width="1920"><defs></defs><path d="M17.73 5.343a.838.838 0 0 0-.29 1.593 15.436 15.436 0 0 1 7.3 6.973 5.766 5.766 0 0 1 .309 4.636 27.451 27.451 0 0 1-6.349 9.742.551.551 0 0 0-.226.412c.018.169.184.275.333.355a17.932 17.932 0 0 0 4.824 1.738 1 1 0 0 1 .642 1.514A20.142 20.142 0 0 1 9.6 41.216a.844.844 0 0 0-.233 1.6 23.358 23.358 0 0 0 14.16 1.493c11.3-2.129 17.652-10.554 17.594-19.056C40.988 6.107 25.372 4.7 17.73 5.343z" fill="#fff48c"></path><path d="M17.73 5.343a.838.838 0 0 0-.29 1.593 15.436 15.436 0 0 1 7.3 6.973 5.766 5.766 0 0 1 .309 4.636 27.451 27.451 0 0 1-6.349 9.742.551.551 0 0 0-.226.412c.018.169.184.275.333.355a17.932 17.932 0 0 0 4.824 1.738 1 1 0 0 1 .642 1.514A20.142 20.142 0 0 1 9.6 41.216a.844.844 0 0 0-.233 1.6 23.358 23.358 0 0 0 14.16 1.493c11.3-2.129 17.652-10.554 17.594-19.056C40.988 6.107 25.372 4.7 17.73 5.343z" fill="#fff48c"></path><path d="M9.366 42.814A.813.813 0 0 1 9 42.489a24.27 24.27 0 0 0 11.209.408C31.506 40.768 37.86 32.343 37.8 23.841c-.066-9.6-4.024-14.736-8.917-17.393 6.292 2.03 12.155 7.1 12.236 18.8.058 8.5-6.3 16.927-17.594 19.056a23.357 23.357 0 0 1-14.159-1.49z" fill="#ffe500"></path><path d="M25.55 11.923a1.475 1.475 0 0 0 1.314 1.054c.735.078 1.454-.386 1.214-1.184-.208-.693-.889-1.5-1.691-1.313a1.211 1.211 0 0 0-.837 1.443z" fill="#ffe500"></path><path d="M34.422 22.919a1.476 1.476 0 0 0 1.314 1.054c.736.078 1.455-.386 1.215-1.185-.209-.692-.89-1.5-1.692-1.312a1.212 1.212 0 0 0-.837 1.443zM18.97 42.2a1.475 1.475 0 0 0 1.314 1.054c.735.078 1.454-.386 1.214-1.184-.208-.692-.889-1.5-1.691-1.313a1.211 1.211 0 0 0-.837 1.443z" fill="#f2c100"></path><path d="M33.155 12.805a2.166 2.166 0 0 0 .692 2.372c.817.713 2.072.761 2.455-.4.333-1.007.193-2.548-.927-3a1.779 1.779 0 0 0-2.22 1.028z" fill="#ffe500"></path><path d="M17.73 5.343a.838.838 0 0 0-.29 1.593 15.436 15.436 0 0 1 7.3 6.973 5.766 5.766 0 0 1 .309 4.636 27.451 27.451 0 0 1-6.349 9.742.551.551 0 0 0-.226.412c.018.169.184.275.333.355a17.932 17.932 0 0 0 4.824 1.738 1 1 0 0 1 .642 1.514A20.142 20.142 0 0 1 9.6 41.216a.844.844 0 0 0-.233 1.6 23.358 23.358 0 0 0 14.16 1.493c11.3-2.129 17.652-10.554 17.594-19.056C40.988 6.107 25.372 4.7 17.73 5.343z" fill="none" stroke="#45413c" stroke-linecap="round" stroke-linejoin="round" stroke-width="1.25px"></path><path d="M22.286 34.9c.495.778 1.85 1.169 3.327.891 1.531-.289 2.677-1.2 2.792-2.137" fill="none" stroke="#45413c" stroke-linecap="round" stroke-linejoin="round" stroke-width="1.25px"></path><circle cx="28.438" cy="20.564" r="4.5" fill="#ffffff" stroke="#45413c" stroke-linecap="round" stroke-linejoin="round" stroke-width="1.25px"></circle><circle cx="28.225" cy="22.13" r="1" fill="#45413c"></circle><path d="M33.155 12.805a1.779 1.779 0 0 1 2.22-1.029 2.027 2.027 0 0 1 1.085 2.029 1.853 1.853 0 0 0-.908-.93 1.74 1.74 0 0 0-2.174 1.008c-.063.137-.133.463-.143.476a1.847 1.847 0 0 1-.08-1.554z" fill="#f2c100"></path><path d="M31.353 35.828a2.167 2.167 0 0 0-1 2.259c.164 1.072 1.091 1.918 2.134 1.278.9-.554 1.792-1.822 1.229-2.89a1.779 1.779 0 0 0-2.363-.647z" fill="#ffe500"></path><path d="M30.412 37.067a1.845 1.845 0 0 1 .941-1.239 1.779 1.779 0 0 1 2.361.647 2.026 2.026 0 0 1-.482 2.249 1.852 1.852 0 0 0-.093-1.3 1.739 1.739 0 0 0-2.31-.633 4.834 4.834 0 0 0-.417.276zM26.386 10.48c.8-.186 1.484.62 1.692 1.313a1 1 0 0 1 .042.4 1.455 1.455 0 0 0-1.494-.867 1.149 1.149 0 0 0-.85 1.08 1.061 1.061 0 0 1-.226-.48 1.212 1.212 0 0 1 .836-1.446z" fill="#f2c100"></path></svg>