<svg xmlns="http://www.w3.org/2000/svg" viewBox="0 0 50 50" height="1920" width="1920"><defs></defs><path d="M38.456 15.552a14.033 14.033 0 0 0-3.938-.424 3.773 3.773 0 0 1-3.585-2.519 27.027 27.027 0 0 0-2.427-4.577A4.26 4.26 0 0 0 21.682 8a26.948 26.948 0 0 0-2.634 4.743 3.767 3.767 0 0 1-2.721 2.438c-1.478.309-3.01.035-4.49.409a4.262 4.262 0 0 0-2.394 6.7c1.224 1.6 3.142 2.553 4.252 4.261a3.079 3.079 0 0 1 .446 2.705c-.669 2.187-1.753 4.956-.206 7.016 1.681 2.238 4.108 1.77 6.3.612 1.545-.816 2.983-2.274 4.8-2.437a3.592 3.592 0 0 1 2.481.923c1.806 1.254 4.108 3.1 6.46 2.486 4.279-1.111 2.926-5.662 2.25-8.727a3.583 3.583 0 0 1 1.449-3.59c1.612-1.415 3.889-3.215 4.022-5.547a4.367 4.367 0 0 0-2.164-3.956 5.33 5.33 0 0 0-1.077-.484z" fill="#fff48c"></path><path d="M39.535 16.031a5.365 5.365 0 0 0-1.059-.472c0 .068.007.135 0 .2-.133 2.332-2.409 4.132-4.021 5.546a3.584 3.584 0 0 0-1.45 3.59c.677 3.066 2.029 7.617-2.25 8.728-2.351.611-4.653-1.233-6.46-2.487a3.59 3.59 0 0 0-2.481-.923c-1.817.164-3.254 1.621-4.8 2.437a6.485 6.485 0 0 1-3.868.92 4.177 4.177 0 0 0 .786 2.694c1.681 2.238 4.109 1.77 6.3.612 1.545-.816 2.983-2.274 4.8-2.437a3.592 3.592 0 0 1 2.481.923c1.806 1.254 4.108 3.1 6.46 2.486 4.278-1.111 2.926-5.662 2.25-8.727a3.581 3.581 0 0 1 1.449-3.59c1.612-1.415 3.889-3.215 4.022-5.546a4.368 4.368 0 0 0-2.159-3.954z" fill="#ffe500"></path><path d="M38.456 15.552a14.033 14.033 0 0 0-3.938-.424 3.773 3.773 0 0 1-3.585-2.519 27.027 27.027 0 0 0-2.427-4.577A4.26 4.26 0 0 0 21.682 8a26.948 26.948 0 0 0-2.634 4.743 3.767 3.767 0 0 1-2.721 2.438c-1.478.309-3.01.035-4.49.409a4.262 4.262 0 0 0-2.394 6.7c1.224 1.6 3.142 2.553 4.252 4.261a3.079 3.079 0 0 1 .446 2.705c-.669 2.187-1.753 4.956-.206 7.016 1.681 2.238 4.108 1.77 6.3.612 1.545-.816 2.983-2.274 4.8-2.437a3.592 3.592 0 0 1 2.481.923c1.806 1.254 4.108 3.1 6.46 2.486 4.279-1.111 2.926-5.662 2.25-8.727a3.583 3.583 0 0 1 1.449-3.59c1.612-1.415 3.889-3.215 4.022-5.547a4.367 4.367 0 0 0-2.164-3.956 5.33 5.33 0 0 0-1.077-.484z" fill="none" stroke="#45413c" stroke-linecap="round" stroke-linejoin="round" stroke-width="1.25px"></path><circle cx="18.971" cy="22.397" r=".805" fill="#45413c"></circle><path d="M20.647 25.765a2.567 2.567 0 0 0 2.526 1.274 2.567 2.567 0 0 0 2.527-1.274" fill="none" stroke="#45413c" stroke-linecap="round" stroke-linejoin="round" stroke-width="1.25px"></path><circle cx="27.365" cy="22.397" r=".805" fill="#45413c"></circle><path d="M11.6 3.274a28.441 28.441 0 0 1 3.068 7.452 1.332 1.332 0 0 1-1.816 1.523 28.484 28.484 0 0 1-6.8-4.318C4.759 6.4 5.89 5.222 7.424 3.937s2.887-2.196 4.176-.663z" fill="#ffdf3d"></path><path d="M9.034 6.352c1.316-1.1 2.5-1.926 3.623-1.168a10.217 10.217 0 0 0-1.06-1.91c-1.286-1.533-2.64-.623-4.173.663S4.759 6.4 6.045 7.931a7.116 7.116 0 0 0 1.066.923c.101-.873.924-1.664 1.923-2.502z" fill="#ffef9e"></path><path d="M11.6 3.274a28.441 28.441 0 0 1 3.068 7.452 1.332 1.332 0 0 1-1.816 1.523 28.484 28.484 0 0 1-6.8-4.318C4.759 6.4 5.89 5.222 7.424 3.937s2.887-2.196 4.176-.663z" fill="none" stroke="#45413c" stroke-linecap="round" stroke-linejoin="round" stroke-width="1.25px"></path><path d="M21.43 45.452a28.45 28.45 0 0 1 2.211-7.75 1.332 1.332 0 0 1 2.369-.069 28.422 28.422 0 0 1 2.663 7.607c.059 2-1.558 2.22-3.558 2.279s-3.627-.067-3.685-2.067z" fill="#ffdf3d"></path><path d="M25.349 44.625c-1.718.051-3.156-.038-3.567-1.329a10.2 10.2 0 0 0-.352 2.156c.058 2 1.685 2.126 3.685 2.067s3.617-.279 3.558-2.279a7.055 7.055 0 0 0-.265-1.386c-.62.623-1.756.733-3.059.771z" fill="#ffef9e"></path><path d="M21.43 45.452a28.45 28.45 0 0 1 2.211-7.75 1.332 1.332 0 0 1 2.369-.069 28.422 28.422 0 0 1 2.663 7.607c.059 2-1.558 2.22-3.558 2.279s-3.627-.067-3.685-2.067z" fill="none" stroke="#45413c" stroke-linecap="round" stroke-linejoin="round" stroke-width="1.25px"></path><path d="M37.8 3.274a28.441 28.441 0 0 0-3.068 7.452 1.332 1.332 0 0 0 1.816 1.523 28.484 28.484 0 0 0 6.8-4.318c1.286-1.534.155-2.709-1.379-3.994s-2.881-2.196-4.169-.663z" fill="#ffdf3d"></path><path d="M40.365 6.352c-1.316-1.1-2.5-1.926-3.623-1.168a10.217 10.217 0 0 1 1.06-1.91c1.286-1.533 2.64-.623 4.173.663S44.64 6.4 43.354 7.931a7.116 7.116 0 0 1-1.066.923c-.101-.873-.924-1.664-1.923-2.502z" fill="#ffef9e"></path><path d="M37.8 3.274a28.441 28.441 0 0 0-3.068 7.452 1.332 1.332 0 0 0 1.816 1.523 28.484 28.484 0 0 0 6.8-4.318c1.286-1.534.155-2.709-1.379-3.994s-2.881-2.196-4.169-.663z" fill="none" stroke="#45413c" stroke-linecap="round" stroke-linejoin="round" stroke-width="1.25px"></path><path d="M43.956 35.609a28.451 28.451 0 0 1-5.581-5.809 1.331 1.331 0 0 1 1.133-2.081 28.425 28.425 0 0 1 7.913 1.531c1.757.956 1.134 2.464.177 4.221s-1.884 3.095-3.642 2.138z" fill="#ffdf3d"></path><path d="M45.216 31.807c-.822 1.509-1.623 2.707-2.945 2.412a10.225 10.225 0 0 0 1.685 1.39c1.758.957 2.685-.385 3.642-2.143s1.58-3.265-.177-4.221a7.028 7.028 0 0 0-1.33-.47c.225.85-.252 1.887-.875 3.032z" fill="#ffef9e"></path><path d="M43.956 35.609a28.451 28.451 0 0 1-5.581-5.809 1.331 1.331 0 0 1 1.133-2.081 28.425 28.425 0 0 1 7.913 1.531c1.757.956 1.134 2.464.177 4.221s-1.884 3.095-3.642 2.138z" fill="none" stroke="#45413c" stroke-linecap="round" stroke-linejoin="round" stroke-width="1.25px"></path><path d="M6.044 35.609a28.451 28.451 0 0 0 5.581-5.809 1.331 1.331 0 0 0-1.133-2.081 28.425 28.425 0 0 0-7.913 1.531c-1.757.95-1.134 2.459-.179 4.216s1.886 3.1 3.644 2.143z" fill="#ffdf3d"></path><path d="M4.784 31.807c.822 1.509 1.623 2.707 2.945 2.412a10.225 10.225 0 0 1-1.685 1.39c-1.758.957-2.685-.385-3.642-2.143s-1.58-3.265.177-4.221a7.028 7.028 0 0 1 1.33-.47c-.225.85.252 1.887.875 3.032z" fill="#ffef9e"></path><path d="M6.044 35.609a28.451 28.451 0 0 0 5.581-5.809 1.331 1.331 0 0 0-1.133-2.081 28.425 28.425 0 0 0-7.913 1.531c-1.757.95-1.134 2.459-.179 4.216s1.886 3.1 3.644 2.143z" fill="none" stroke="#45413c" stroke-linecap="round" stroke-linejoin="round" stroke-width="1.25px"></path></svg>