<svg xmlns="http://www.w3.org/2000/svg" viewBox="0 0 50 50" height="1920" width="1920"><defs></defs><path d="M18.874 37.043c1.906.9 3.94 1.676 4.414 2.006a2.4 2.4 0 0 1 .3 3.954c-2.081 1.814-5.161.935-7.162-.894a7.032 7.032 0 0 1-2.235-5.659c.118-.924 1.365-1.271 2.236-.669l.008.006a17.342 17.342 0 0 0 2.439 1.256z" fill="#6dd627"></path><path d="M23.489 42c-.436-.1-4 0-6-3" fill="none" stroke="#46b000" stroke-linecap="round" stroke-linejoin="round" stroke-width="1.25px"></path><path d="M18.874 37.043c1.906.9 3.94 1.676 4.414 2.006a2.4 2.4 0 0 1 .3 3.954c-2.081 1.814-5.161.935-7.162-.894a7.032 7.032 0 0 1-2.235-5.659c.118-.924 1.365-1.271 2.236-.669l.008.006a17.342 17.342 0 0 0 2.439 1.256z" stroke="#45413c" fill="none" stroke-linecap="round" stroke-linejoin="round" stroke-width="1.25px"></path><path d="M32.77 37.043c-1.906.9-3.941 1.676-4.414 2.006a2.4 2.4 0 0 0-.3 3.954c2.082 1.814 5.161.935 7.162-.894a7.032 7.032 0 0 0 2.232-5.659c-.119-.924-1.366-1.271-2.236-.669l-.008.006a17.342 17.342 0 0 1-2.436 1.256z" fill="#6dd627"></path><path d="M28.155 42c.436-.1 4 0 6-3" fill="none" stroke="#46b000" stroke-linecap="round" stroke-linejoin="round" stroke-width="1.25px"></path><path d="M32.77 37.043c-1.906.9-3.941 1.676-4.414 2.006a2.4 2.4 0 0 0-.3 3.954c2.082 1.814 5.161.935 7.162-.894a7.032 7.032 0 0 0 2.232-5.659c-.119-.924-1.366-1.271-2.236-.669l-.008.006a17.342 17.342 0 0 1-2.436 1.256z" stroke="#45413c" fill="none" stroke-linecap="round" stroke-linejoin="round" stroke-width="1.25px"></path><path d="m23.155 29 .921 17.5a1.581 1.581 0 0 0 1.579 1.5h0a1.582 1.582 0 0 0 1.579-1.5l.921-17.5z" fill="#46b000" stroke="#45413c" stroke-linecap="round" stroke-linejoin="round" stroke-width="1.25px"></path><path d="M41.155 18.155c0-.988-.858-1.871-2.206-2.465 1.063-1.019 1.567-2.142 1.228-3.07-.423-1.161-2.049-1.71-4.083-1.548 1-1.771 1.2-3.47.329-4.341-.7-.7-1.94-.7-3.318-.16.034-1.478-.389-2.644-1.287-3.062-1.116-.52-2.648.234-3.969 1.777C27.3 3.33 26.231 2 25 2c-.988 0-1.871.857-2.464 2.206-1.019-1.063-2.143-1.567-3.071-1.228-1.16.423-1.71 2.048-1.548 4.083-1.77-1-3.469-1.2-4.34-.33-.7.7-.7 1.941-.16 3.318-1.479-.033-2.645.389-3.063 1.287-.52 1.117.234 2.648 1.777 3.97-1.956.547-3.286 1.617-3.286 2.849 0 .988.858 1.87 2.206 2.464-1.063 1.019-1.567 2.142-1.228 3.07.423 1.161 2.049 1.71 4.083 1.549-1 1.77-1.2 3.469-.329 4.34.7.7 1.94.7 3.318.16-.034 1.478.389 2.644 1.287 3.062 1.116.52 2.648-.234 3.969-1.777C22.7 32.98 23.769 34.31 25 34.31c.988 0 1.871-.858 2.464-2.206 1.019 1.063 2.143 1.566 3.071 1.228 1.16-.423 1.71-2.049 1.548-4.083 1.77 1 3.469 1.2 4.34.329.7-.7.7-1.94.16-3.318 1.479.034 2.645-.389 3.063-1.287.519-1.117-.234-2.648-1.777-3.97 1.956-.546 3.286-1.617 3.286-2.848z" fill="#ffe500"></path><path d="M41.155 18.155c0-.988-.858-1.871-2.206-2.465 1.063-1.019 1.567-2.142 1.228-3.07-.423-1.161-2.049-1.71-4.083-1.548 1-1.771 1.2-3.47.329-4.341-.7-.7-1.94-.7-3.318-.16.034-1.478-.389-2.644-1.287-3.062-1.116-.52-2.648.234-3.969 1.777C27.3 3.33 26.231 2 25 2c-.988 0-1.871.857-2.464 2.206-1.019-1.063-2.143-1.567-3.071-1.228-1.16.423-1.71 2.048-1.548 4.083-1.77-1-3.469-1.2-4.34-.33-.7.7-.7 1.941-.16 3.318-1.479-.033-2.645.389-3.063 1.287-.52 1.117.234 2.648 1.777 3.97-1.956.547-3.286 1.617-3.286 2.849 0 .988.858 1.87 2.206 2.464-1.063 1.019-1.567 2.142-1.228 3.07.423 1.161 2.049 1.71 4.083 1.549-1 1.77-1.2 3.469-.329 4.34.7.7 1.94.7 3.318.16-.034 1.478.389 2.644 1.287 3.062 1.116.52 2.648-.234 3.969-1.777C22.7 32.98 23.769 34.31 25 34.31c.988 0 1.871-.858 2.464-2.206 1.019 1.063 2.143 1.566 3.071 1.228 1.16-.423 1.71-2.049 1.548-4.083 1.77 1 3.469 1.2 4.34.329.7-.7.7-1.94.16-3.318 1.479.034 2.645-.389 3.063-1.287.519-1.117-.234-2.648-1.777-3.97 1.956-.546 3.286-1.617 3.286-2.848z" fill="#ffe500"></path><path d="M41.155 18.155c0-.988-.858-1.871-2.206-2.465 1.063-1.019 1.567-2.142 1.228-3.07-.423-1.161-2.049-1.71-4.083-1.548 1-1.771 1.2-3.47.329-4.341-.7-.7-1.94-.7-3.318-.16.034-1.478-.389-2.644-1.287-3.062-1.116-.52-2.648.234-3.969 1.777C27.3 3.33 26.231 2 25 2c-.988 0-1.871.857-2.464 2.206-1.019-1.063-2.143-1.567-3.071-1.228-1.16.423-1.71 2.048-1.548 4.083-1.77-1-3.469-1.2-4.34-.33-.7.7-.7 1.941-.16 3.318-1.479-.033-2.645.389-3.063 1.287-.52 1.117.234 2.648 1.777 3.97-1.956.547-3.286 1.617-3.286 2.849 0 .988.858 1.87 2.206 2.464-1.063 1.019-1.567 2.142-1.228 3.07.423 1.161 2.049 1.71 4.083 1.549-1 1.77-1.2 3.469-.329 4.34.7.7 1.94.7 3.318.16-.034 1.478.389 2.644 1.287 3.062 1.116.52 2.648-.234 3.969-1.777C22.7 32.98 23.769 34.31 25 34.31c.988 0 1.871-.858 2.464-2.206 1.019 1.063 2.143 1.566 3.071 1.228 1.16-.423 1.71-2.049 1.548-4.083 1.77 1 3.469 1.2 4.34.329.7-.7.7-1.94.16-3.318 1.479.034 2.645-.389 3.063-1.287.519-1.117-.234-2.648-1.777-3.97 1.956-.546 3.286-1.617 3.286-2.848z" stroke="#45413c" fill="none" stroke-linecap="round" stroke-linejoin="round" stroke-width="1.25px"></path><circle cx="25.136" cy="18.528" r="11.019" fill="#f2c100"></circle><circle cx="25.136" cy="18.528" r="8.789" fill="#d18660"></circle><path d="M25.136 13.572a8.787 8.787 0 0 1 8.573 6.872 8.789 8.789 0 1 0-17.146 0 8.787 8.787 0 0 1 8.573-6.872z" fill="#e09f7e"></path><circle cx="25.136" cy="18.528" r="8.789" stroke="#724f3d" stroke-linecap="round" stroke-linejoin="round" stroke-width="1.25px" fill="none"></circle></svg>