<svg xmlns="http://www.w3.org/2000/svg" viewBox="0 0 50 50" height="1920" width="1920"><defs></defs><path d="M31.227 14.632a40.817 40.817 0 0 0-5.77 8.972m-3.416-3.086A38.791 38.791 0 0 0 7.72 13.96" stroke-linecap="round" stroke-linejoin="round" stroke-width="1.25px" stroke="#45413c" fill="none"></path><path d="M18.14 17.962a50.721 50.721 0 0 0-3.493 4.445" stroke-linecap="round" stroke-linejoin="round" stroke-width="1.25px" stroke="#45413c" fill="none"></path><circle cx="6.122" cy="14.556" r="1.706" fill="#ff6242" stroke-linecap="round" stroke-linejoin="round" stroke-width="1.25px" stroke="#45413c"></circle><circle cx="10.67" cy="16.83" r="1.706" fill="#ff6242" stroke-linecap="round" stroke-linejoin="round" stroke-width="1.25px" stroke="#45413c"></circle><circle cx="12.944" cy="22.515" r="1.706" fill="#ff6242" stroke-linecap="round" stroke-linejoin="round" stroke-width="1.25px" stroke="#45413c"></circle><circle cx="17.493" cy="22.515" r="1.706" fill="#ff6242" stroke-linecap="round" stroke-linejoin="round" stroke-width="1.25px" stroke="#45413c"></circle><circle cx="9.533" cy="12.281" r="1.706" fill="#ff6242" stroke-linecap="round" stroke-linejoin="round" stroke-width="1.25px" stroke="#45413c"></circle><circle cx="28.864" cy="14.556" r="1.706" fill="#ff6242" stroke-linecap="round" stroke-linejoin="round" stroke-width="1.25px" stroke="#45413c"></circle><circle cx="32.275" cy="13.418" r="1.706" fill="#ff6242" stroke-linecap="round" stroke-linejoin="round" stroke-width="1.25px" stroke="#45413c"></circle><path d="M34.136 34.01a1.137 1.137 0 0 0-1.608.026c-1.14 1.177-2.443 2.407-4.1 3.862-1.021-8.116-3.532-19.3-8.019-25.01 0 0 4.635 19.288 4.135 30.157a64.808 64.808 0 0 1-3.674-1.643 1.137 1.137 0 0 0-1 2.041c1.343.66 2.861 1.328 4.645 2.049.2 1.461.919 2.644 1.875 2.635 3.04-.027 2.656-2 2.561-4.372a59.324 59.324 0 0 0-.214-3.11c2.286-1.967 3.977-3.534 5.424-5.027a1.137 1.137 0 0 0-.025-1.608z" fill="#46b000" stroke-linecap="round" stroke-linejoin="round" stroke-width="1.25px" stroke="#45413c"></path><path d="M18.766 29.618a5.335 5.335 0 0 0-1.364.907 6.051 6.051 0 0 0-3.424-2.106 5.336 5.336 0 0 0-1.146 1.246c-.527-1.234-2.161-1.5-4.236-1.3a5.389 5.389 0 0 0-.85 1.577 7.092 7.092 0 0 0-4.85.415 6.94 6.94 0 0 0 1.215 4.66 5.329 5.329 0 0 0-1.1 1.239c.47 1.9.7 2.916 2.54 3.7a5.3 5.3 0 0 0-.7 1.354 6.046 6.046 0 0 0 3.124 2.53 5.338 5.338 0 0 0-.4 1.588c1.006 1.148 7.922 5.047 13.2-2.414 5.298-7.48-.575-12.814-2.009-13.396z" fill="#6dd627"></path><path d="M11.167 46.285a6.046 6.046 0 0 1-3.124-2.53 5.313 5.313 0 0 1 .7-1.355C6.9 41.615 6.67 40.6 6.2 38.7a5.329 5.329 0 0 1 1.1-1.24 6.949 6.949 0 0 1-1.214-4.66 7.088 7.088 0 0 1 4.85-.414 5.4 5.4 0 0 1 .85-1.578c2.075-.193 3.709.071 4.236 1.305a5.336 5.336 0 0 1 1.146-1.246 6.041 6.041 0 0 1 3.424 2.106 6 6 0 0 1 .935-.684 7.574 7.574 0 0 0-2.761-2.67 5.335 5.335 0 0 0-1.364.907 6.051 6.051 0 0 0-3.424-2.106 5.336 5.336 0 0 0-1.146 1.246c-.527-1.234-2.161-1.5-4.236-1.3a5.389 5.389 0 0 0-.85 1.577 7.092 7.092 0 0 0-4.85.415 6.94 6.94 0 0 0 1.215 4.66 5.329 5.329 0 0 0-1.1 1.239c.47 1.9.7 2.916 2.54 3.7a5.3 5.3 0 0 0-.7 1.354 6.046 6.046 0 0 0 3.124 2.53 5.338 5.338 0 0 0-.4 1.588 7.634 7.634 0 0 0 3.315 1.73 5.814 5.814 0 0 1 .277-.874z" fill="#9ceb60"></path><path d="M8.106 34.362a29.058 29.058 0 0 0 12.978 8.2" stroke="#46b000" stroke-linecap="round" stroke-linejoin="round" stroke-width="1.25px" fill="none"></path><path d="M7.091 38.59a6.349 6.349 0 0 0 4.653-.86m.632 6.145a7.593 7.593 0 0 0 4.9-2.8M9.82 32.379a6.423 6.423 0 0 1 .152 3.848m5.411-2.189a7.6 7.6 0 0 1-.99 5.513" stroke="#46b000" stroke-linecap="round" stroke-linejoin="round" stroke-width="1.25px" fill="none"></path><path d="M18.766 29.618a5.335 5.335 0 0 0-1.364.907 6.051 6.051 0 0 0-3.424-2.106 5.336 5.336 0 0 0-1.146 1.246c-.527-1.234-2.161-1.5-4.236-1.3a5.389 5.389 0 0 0-.85 1.577 7.092 7.092 0 0 0-4.85.415 6.94 6.94 0 0 0 1.215 4.66 5.329 5.329 0 0 0-1.1 1.239c.47 1.9.7 2.916 2.54 3.7a5.3 5.3 0 0 0-.7 1.354 6.046 6.046 0 0 0 3.124 2.53 5.338 5.338 0 0 0-.4 1.588c1.006 1.148 7.922 5.047 13.2-2.414 5.298-7.48-.575-12.814-2.009-13.396z" stroke-linecap="round" stroke-linejoin="round" stroke-width="1.25px" stroke="#45413c" fill="none"></path><path d="M29.861 21.518a5.326 5.326 0 0 1 1.6.33 6.048 6.048 0 0 1 2.387-3.234 5.3 5.3 0 0 1 1.529.726c.027-1.342 1.443-2.2 3.439-2.795a5.367 5.367 0 0 1 1.384 1.144 7.087 7.087 0 0 1 4.653-1.431 6.943 6.943 0 0 1 .618 4.776 5.308 5.308 0 0 1 1.485.737c.277 1.941.438 2.967-.97 4.383a5.317 5.317 0 0 1 1.154 1 6.047 6.047 0 0 1-1.95 3.516 5.332 5.332 0 0 1 .968 1.322c-.5 1.44-5.457 7.645-13.148 2.705-7.71-4.958-4.265-12.105-3.149-13.179z" fill="#6dd627"></path><path d="M32.511 20.774a5.3 5.3 0 0 1 1.529.726c.027-1.341 1.443-2.2 3.439-2.8a5.387 5.387 0 0 1 1.379 1.145 7.092 7.092 0 0 1 4.653-1.432 6.943 6.943 0 0 1 .618 4.776 5.341 5.341 0 0 1 1.485.737c.277 1.941.438 2.967-.97 4.383a5.317 5.317 0 0 1 1.154 1 5.093 5.093 0 0 1-.26.995 6.079 6.079 0 0 0 1.6-3.155 5.317 5.317 0 0 0-1.154-1c1.408-1.416 1.247-2.442.97-4.383a5.308 5.308 0 0 0-1.485-.737 6.943 6.943 0 0 0-.618-4.776 7.087 7.087 0 0 0-4.651 1.436 5.367 5.367 0 0 0-1.379-1.144c-2 .6-3.412 1.453-3.439 2.795a5.3 5.3 0 0 0-1.529-.726 6.093 6.093 0 0 0-2.271 2.938 4.94 4.94 0 0 1 .929-.778z" fill="#9ceb60"></path><path d="M41.522 21.926a29.056 29.056 0 0 1-8.964 12.465" stroke="#46b000" stroke-linecap="round" stroke-linejoin="round" stroke-width="1.25px" fill="none"></path><path d="M42.809 26.5a6.32 6.32 0 0 1-4.073 1.017m2.388 4.829a7.6 7.6 0 0 1-5.6-.766m3.562-9.719a6.329 6.329 0 0 0 1.067 3.289m-5.5-.8a7.588 7.588 0 0 0 2.981 4.741" stroke="#46b000" stroke-linecap="round" stroke-linejoin="round" stroke-width="1.25px" fill="none"></path><path d="M29.861 21.518a5.326 5.326 0 0 1 1.6.33 6.048 6.048 0 0 1 2.387-3.234 5.3 5.3 0 0 1 1.529.726c.027-1.342 1.443-2.2 3.439-2.795a5.367 5.367 0 0 1 1.384 1.144 7.087 7.087 0 0 1 4.653-1.431 6.943 6.943 0 0 1 .618 4.776 5.308 5.308 0 0 1 1.485.737c.277 1.941.438 2.967-.97 4.383a5.317 5.317 0 0 1 1.154 1 6.047 6.047 0 0 1-1.95 3.516 5.332 5.332 0 0 1 .968 1.322c-.5 1.44-5.457 7.645-13.148 2.705-7.71-4.958-4.265-12.105-3.149-13.179z" stroke-linecap="round" stroke-linejoin="round" stroke-width="1.25px" stroke="#45413c" fill="none"></path><path d="M26.46 7.971a3.524 3.524 0 0 0-1.083-.083 4.006 4.006 0 0 0-.927-2.5 3.515 3.515 0 0 0-1.108.182c.229-.86-.516-1.664-1.678-2.411a3.557 3.557 0 0 0-1.088.476 4.7 4.7 0 0 0-2.7-1.764A4.6 4.6 0 0 0 16.605 4.8a3.547 3.547 0 0 0-1.081.2c-.533 1.186-.823 1.81-.186 2.97a3.506 3.506 0 0 0-.917.423 4.008 4.008 0 0 0 .6 2.6 3.541 3.541 0 0 0-.858.665c.056 1.01 2.075 5.871 7.88 4.133s4.931-6.931 4.417-7.82z" fill="#9ceb60"></path><path d="M18.956 6.094a19.267 19.267 0 0 0 3.426 9.584" stroke="#6dd627" stroke-linecap="round" stroke-linejoin="round" stroke-width="1.25px" fill="none"></path><path d="M16.7 7.887a4.217 4.217 0 0 0 2.78 1.452m-2.18 3.466a5.034 5.034 0 0 0 3.706.538M22.888 8.9a5.027 5.027 0 0 1-2.768 2.474" stroke="#6dd627" stroke-linecap="round" stroke-linejoin="round" stroke-width="1.25px" fill="none"></path><path d="M26.46 7.971a3.524 3.524 0 0 0-1.083-.083 4.006 4.006 0 0 0-.927-2.5 3.515 3.515 0 0 0-1.108.182c.229-.86-.516-1.664-1.678-2.411a3.557 3.557 0 0 0-1.088.476 4.7 4.7 0 0 0-2.7-1.764A4.6 4.6 0 0 0 16.605 4.8a3.547 3.547 0 0 0-1.081.2c-.533 1.186-.823 1.81-.186 2.97a3.506 3.506 0 0 0-.917.423 4.008 4.008 0 0 0 .6 2.6 3.541 3.541 0 0 0-.858.665c.056 1.01 2.075 5.871 7.88 4.133s4.931-6.931 4.417-7.82z" stroke-linecap="round" stroke-linejoin="round" stroke-width="1.25px" stroke="#45413c" fill="none"></path></svg>