<svg xmlns="http://www.w3.org/2000/svg" viewBox="0 0 50 50" height="1920" width="1920"><defs></defs><path d="m43.93 24.836.145-1.995-3.037-.221 2.955-2.962-1.416-1.413-11.652 11.683 1.416 1.412 6.832-6.85 4.757.346zm-37.86 3-.145-1.995 3.037-.221-2.955-2.962 1.416-1.413 11.652 11.683-1.416 1.412-6.832-6.85-4.757.346z" stroke="#45413c" stroke-linecap="round" stroke-linejoin="round" stroke-width="1.25px" fill="#debb7e"></path><circle cx="25.575" cy="34.84" r="13.5" fill="#ffffff"></circle><path d="M34.016 24.313A13.473 13.473 0 0 0 16.9 24.5a10.659 10.659 0 0 0 17.112-.187z" fill="#e5feff"></path><circle cx="25.575" cy="34.84" r="13.5" fill="none" stroke="#45413c" stroke-linecap="round" stroke-linejoin="round" stroke-width="1.25px"></circle><circle cx="25.575" cy="31.34" r="1.5" fill="#ffe500" stroke="#45413c" stroke-linecap="round" stroke-linejoin="round" stroke-width="1.25px"></circle><circle cx="25.575" cy="38.34" r="1.5" fill="#ffe500" stroke="#45413c" stroke-linecap="round" stroke-linejoin="round" stroke-width="1.25px"></circle><circle cx="25.653" cy="16.155" r="10.185" fill="#ffffff"></circle><circle cx="25.653" cy="16.155" r="10.185" fill="none" stroke="#45413c" stroke-linecap="round" stroke-linejoin="round" stroke-width="1.25px"></circle><path d="m34.687 10.948-6.72-4.929 3.974-4.059a1 1 0 0 1 1.306-.107l3.828 2.808a1 1 0 0 1 .29 1.278z" fill="#ff6242" stroke="#45413c" stroke-linecap="round" stroke-linejoin="round" stroke-width="1.25px"></path><circle cx="21.575" cy="12.84" r="1" fill="#45413c"></circle><circle cx="27.575" cy="12.84" r="1" fill="#45413c"></circle><path d="M23.575 15.84h2" fill="none" stroke="#45413c" stroke-linecap="round" stroke-linejoin="round" stroke-width="1.25px"></path></svg>