<svg xmlns="http://www.w3.org/2000/svg" viewBox="0 0 50 50" height="1920" width="1920"><defs></defs><path d="M30.656 5.628c-.515-.941-2.356-.928-3.924-.228-.252-1.527-1.182-2.882-2.3-2.882s-2.047 1.355-2.3 2.882c-1.566-.708-3.409-.716-3.923.225-.557 1.021.659 2.76 2.293 3.652a50.524 50.524 0 0 0 7.858 0c1.64-.889 2.853-2.628 2.296-3.649z" stroke="#45413c" stroke-linecap="round" stroke-linejoin="round" stroke-width="1.25px" fill="#ff87af"></path><path d="M40.324 36.489c0-3.312-6.123-6-13.676-6s-13.674 2.686-13.674 6a2.728 2.728 0 0 0 .074.623c-4.056 1.04-6.706 2.729-6.706 4.641 0 3.162 7.22 5.726 16.126 5.726s16.126-2.564 16.126-5.726a2.656 2.656 0 0 0-.814-1.789c1.595-.981 2.544-2.178 2.544-3.475z" fill="#ffdf3d" stroke="#45413c" stroke-linecap="round" stroke-linejoin="round" stroke-width="1.25px"></path><path d="M19.159 32.549a5.871 5.871 0 0 1-2.909-.376 17.542 17.542 0 0 1-2.644-1.331 12.073 12.073 0 0 1-2.618-1.836 7.483 7.483 0 0 1-1.98-4.3 4.992 4.992 0 0 1 .3-2.78 2.571 2.571 0 0 1 2.2-1.547 2.048 2.048 0 0 1 1.61.8c.5.662.571 1.6 1.167 2.181a3.229 3.229 0 0 0 1.04.6l2.081.87" fill="#6dd627"></path><path d="M14.05 23.05c-.382-.569-.517-1.312-.937-1.869a2.046 2.046 0 0 0-1.61-.8 2.571 2.571 0 0 0-2.2 1.547 4.991 4.991 0 0 0-.3 2.78 8.175 8.175 0 0 0 .953 2.88c-.053-.244-.116-.486-.148-.733a4.991 4.991 0 0 1 .3-2.78 2.571 2.571 0 0 1 2.2-1.547 2.048 2.048 0 0 1 1.61.8 2.488 2.488 0 0 1 .132.23z" fill="#9ceb60"></path><path d="M19.159 32.549a5.871 5.871 0 0 1-2.909-.376 17.542 17.542 0 0 1-2.644-1.331 12.073 12.073 0 0 1-2.618-1.836 7.483 7.483 0 0 1-1.98-4.3 4.992 4.992 0 0 1 .3-2.78 2.571 2.571 0 0 1 2.2-1.547 2.048 2.048 0 0 1 1.61.8c.5.662.571 1.6 1.167 2.181a3.229 3.229 0 0 0 1.04.6l2.081.87" fill="none" stroke="#45413c" stroke-linecap="round" stroke-linejoin="round" stroke-width="1.25px"></path><path d="M26.226 42.157h-3.5A3.8 3.8 0 0 1 19 39.077l-3.661-18.8C14.11 13.945 19.383 8.008 25.735 8.956q.5.075 1.008.2a9.436 9.436 0 0 1 6.791 10.989l-3.582 18.912a3.8 3.8 0 0 1-3.726 3.1z" fill="#6dd627"></path><path d="M25.735 12.552q.5.075 1.008.2a9.249 9.249 0 0 1 6.794 7.374 9.435 9.435 0 0 0-6.794-10.971q-.506-.124-1.008-.2c-6.337-.946-11.6 4.961-10.4 11.279a9.328 9.328 0 0 1 10.4-7.682z" fill="#9ceb60"></path><path d="m16.384 25.625-1.041-5.345c-1.233-6.335 4.04-12.272 10.392-11.324q.5.075 1.008.2a9.436 9.436 0 0 1 6.791 10.989l-3.582 18.912a3.8 3.8 0 0 1-3.726 3.1h-3.5A3.8 3.8 0 0 1 19 39.077l-1.3-6.688" fill="none" stroke="#45413c" stroke-linecap="round" stroke-linejoin="round" stroke-width="1.25px"></path><path d="M30.61 30.32a23.393 23.393 0 0 0 3.9-.594 16.1 16.1 0 0 0 4.069-1.243 9.958 9.958 0 0 0 4.279-4.622 6.652 6.652 0 0 0 .769-3.642 3.418 3.418 0 0 0-2.141-2.863 2.724 2.724 0 0 0-2.367.349c-.906.632-1.385 1.792-2.376 2.278a4.318 4.318 0 0 1-1.564.327l-2.991.243" fill="#6dd627"></path><path d="M30.61 30.32a23.393 23.393 0 0 0 3.9-.594 16.1 16.1 0 0 0 4.069-1.243 9.958 9.958 0 0 0 4.279-4.622 6.652 6.652 0 0 0 .769-3.642 3.418 3.418 0 0 0-2.141-2.863 2.724 2.724 0 0 0-2.367.349c-.906.632-1.385 1.792-2.376 2.278a4.318 4.318 0 0 1-1.564.327l-2.991.243" fill="none" stroke="#45413c" stroke-linecap="round" stroke-linejoin="round" stroke-width="1.25px"></path><ellipse cx="11.841" cy="42.309" rx="1.314" ry=".886" fill="#ffbe3d"></ellipse><ellipse cx="15.166" cy="39.371" rx=".926" ry=".624" fill="#ffbe3d"></ellipse><ellipse cx="18.819" cy="44.121" rx=".926" ry=".624" fill="#ffbe3d"></ellipse><ellipse cx="33.704" cy="40.981" rx=".926" ry=".624" fill="#ffbe3d"></ellipse><ellipse cx="36.209" cy="37.076" rx=".926" ry=".624" fill="#ffbe3d"></ellipse><ellipse cx="33.221" cy="34.701" rx=".926" ry=".624" fill="#ffbe3d"></ellipse><ellipse cx="28.072" cy="44.322" rx=".926" ry=".624" fill="#ffbe3d"></ellipse><circle cx="20.632" cy="17.383" r="1.473" fill="#46b000"></circle><circle cx="27.525" cy="21.708" r="1.473" fill="#46b000"></circle><circle cx="21.306" cy="27.806" r="1.473" fill="#46b000"></circle><circle cx="35.458" cy="24.683" r="1.473" fill="#46b000"></circle><circle cx="26.922" cy="32.195" r="1.473" fill="#46b000"></circle><circle cx="23.178" cy="36.452" r="1.473" fill="#46b000"></circle><circle cx="11.495" cy="24.683" r="1.073" fill="#46b000"></circle><circle cx="15.313" cy="28.66" r="1.073" fill="#46b000"></circle><circle cx="29.72" cy="26.333" r="1.073" fill="#46b000"></circle><circle cx="40.91" cy="20.634" r="1.073" fill="#46b000"></circle><circle cx="20.232" cy="22.536" r="1.073" fill="#46b000"></circle><circle cx="26.2" cy="15.91" r="1.073" fill="#46b000"></circle></svg>