<svg xmlns="http://www.w3.org/2000/svg" viewBox="0 0 50 50" height="1920" width="1920"><path d="M26.2 29.371a90.4 90.4 0 0 1-13.115-1.428 5.4 5.4 0 0 1-3.77-7.71C10.485 17.9 25.887 5.417 35.154 1.945a1.844 1.844 0 0 1 2.206 2.716c-1.965 3-5.7 6.555-12.721 13.818 3.206.2 6.786-.15 10.568-.124a5.906 5.906 0 0 1 4.925 2.228c1.125 1.57 1.579 3.759.527 5.38-2.492 3.837-14.682 15.17-21.814 20.651-2.539 1.951-4.446 2.058-5.5.423-.641-.995.293-2.139.847-2.945C16.429 40.84 26.1 29.367 26.2 29.371z" fill="#ffe500"></path><path d="M40.132 20.583a5.906 5.906 0 0 0-4.925-2.228 85.412 85.412 0 0 0-3.183.049 5.6 5.6 0 0 1 4.108 2.179c1.125 1.57 1.58 3.759.527 5.38-2.491 3.837-14.682 15.169-21.814 20.651a10.758 10.758 0 0 1-1.2.8c1.1 1.212 2.879.985 5.195-.8 7.137-5.482 19.328-16.814 21.819-20.651 1.053-1.621.598-3.81-.527-5.38zM33.36 4.661c-1.879 2.868-5.382 6.247-11.823 12.89a.577.577 0 0 0 .4.979c1.058.021 2.153 0 3.273-.037-.188-.008-.387 0-.573-.014 7-7.25 10.743-10.807 12.711-13.8a1.848 1.848 0 0 0-2.192-2.733c-.575.215-1.175.466-1.792.746a1.771 1.771 0 0 1-.004 1.969z" fill="#f2c100"></path><path d="M26.2 29.371a90.4 90.4 0 0 1-13.115-1.428 5.4 5.4 0 0 1-3.77-7.71C10.485 17.9 25.887 5.417 35.154 1.945a1.844 1.844 0 0 1 2.206 2.716c-1.965 3-5.7 6.555-12.721 13.818 3.206.2 6.786-.15 10.568-.124a5.906 5.906 0 0 1 4.925 2.228c1.125 1.57 1.579 3.759.527 5.38-2.492 3.837-14.682 15.17-21.814 20.651-2.539 1.951-4.446 2.058-5.5.423-.641-.995.293-2.139.847-2.945C16.429 40.84 26.1 29.367 26.2 29.371z" fill="none" stroke="#45413c" stroke-linecap="round" stroke-linejoin="round" stroke-width="1.25px"></path></svg>