<svg xmlns="http://www.w3.org/2000/svg" viewBox="0 0 50 50" height="1920" width="1920"><defs></defs><path d="M7.579 22.062c-.807-.854-1.669-2.073-1.084-3.093a2.1 2.1 0 0 1 2.146-.8c2.262.318 4.05 2.538 6.329 2.4a.506.506 0 0 0 .346-.119.542.542 0 0 0 .11-.323l.223-1.964c.055-.485.182-1.065.643-1.226a.9.9 0 0 1 .534 0c.989.274 1.368 1.447 1.608 2.445s.669 2.168 1.674 2.377a2.069 2.069 0 0 0 2.132-1.527 18.035 18.035 0 0 0 .444-2.824 2.634 2.634 0 0 1 1.605-2.191 2.309 2.309 0 0 1 2.523 1.511 8.3 8.3 0 0 1 .378 3.17 4.9 4.9 0 0 0 .794 3.053 1.286 1.286 0 0 0 1.079.566c.969-.111 1.231-1.753 2.206-1.746.778 0 1.048 1.03 1.06 1.808s.2 1.8.971 1.894c.74.091 1.107-.559 1.4-1.123a5.73 5.73 0 0 1 3.065-2.728 1.72 1.72 0 0 1 1.807.142 1.375 1.375 0 0 1 .347.745c.166.97-.316 1.935-.323 2.918a10.437 10.437 0 0 0 .445 2.269c.657 3.011-1.68 5.143-3.861 6.748-2.724 2.005-5.665 4.091-9.044 4.255a11.444 11.444 0 0 1-7.036-2.316 29.865 29.865 0 0 1-5.364-5.277c-2.536-2.994-4.461-6.189-7.157-9.044z" fill="#4cf4fc"></path><path d="M38.045 24.629a7.849 7.849 0 0 0-4.02 4.648c-.209.622-.61 1.426-1.371 1.339-.535-.061-.821-.553-1.014-.978l-1.507-3.327a2.46 2.46 0 0 0-.919-1.222 2.2 2.2 0 0 0-2.193.171 3.731 3.731 0 0 0-1.272 1.64 4.314 4.314 0 0 1-.815 1.381 1.623 1.623 0 0 1-1.641.406 1.757 1.757 0 0 1-.687-.578c-1.5-1.88-2.038-4.232-3.638-6.054-.762-.868-2.238-1.621-3.239-.949-.858.577-.625 1.7-.44 2.608s-.02 2.146-1.1 2.315a2.489 2.489 0 0 1-1.063-.131c-1.118-.321-2.2-.766-3.29-1.183 1.519 1.939 2.9 3.947 4.489 5.889a11.255 11.255 0 0 1 1.07 1.082 4.823 4.823 0 0 1 .577.854 24.781 24.781 0 0 0 4.124 3.84 11.444 11.444 0 0 0 7.035 2.32c3.379-.164 6.32-2.25 9.044-4.255.362-.266.727-.549 1.083-.845.145-.135.295-.268.456-.395 1.583-1.43 2.823-3.213 2.322-5.508a10.449 10.449 0 0 1-.445-2.269 6.718 6.718 0 0 1 .2-1.343 6.981 6.981 0 0 0-1.746.544z" fill="#00dfeb"></path><path d="M7.579 22.062c-.807-.854-1.669-2.073-1.084-3.093a2.1 2.1 0 0 1 2.146-.8c2.262.318 4.05 2.538 6.329 2.4a.506.506 0 0 0 .346-.119.542.542 0 0 0 .11-.323l.223-1.964c.055-.485.182-1.065.643-1.226a.9.9 0 0 1 .534 0c.989.274 1.368 1.447 1.608 2.445s.669 2.168 1.674 2.377a2.069 2.069 0 0 0 2.132-1.527 18.035 18.035 0 0 0 .444-2.824 2.634 2.634 0 0 1 1.605-2.191 2.309 2.309 0 0 1 2.523 1.511 8.3 8.3 0 0 1 .378 3.17 4.9 4.9 0 0 0 .794 3.053 1.286 1.286 0 0 0 1.079.566c.969-.111 1.231-1.753 2.206-1.746.778 0 1.048 1.03 1.06 1.808s.2 1.8.971 1.894c.74.091 1.107-.559 1.4-1.123a5.73 5.73 0 0 1 3.065-2.728 1.72 1.72 0 0 1 1.807.142 1.375 1.375 0 0 1 .347.745c.166.97-.316 1.935-.323 2.918a10.437 10.437 0 0 0 .445 2.269c.657 3.011-1.68 5.143-3.861 6.748-2.724 2.005-5.665 4.091-9.044 4.255a11.444 11.444 0 0 1-7.036-2.316 29.865 29.865 0 0 1-5.364-5.277c-2.536-2.994-4.461-6.189-7.157-9.044z" fill="none" stroke="#45413c" stroke-linecap="round" stroke-linejoin="round" stroke-width="1.25px"></path><path d="M9.978 29.925c-1.567-.526-3.236-.7-4.79-1.261-1.028-.37-2.155-1.21-1.948-2.283.188-.976 1.368-1.4 2.362-1.4 2.745-.005 5.147 1.732 7.745 2.618a2 2 0 0 0 1 .146c1.014-.189 1.206-1.563 1.033-2.579s-.393-2.263.413-2.905c.941-.749 2.327.09 3.042 1.056 1.5 2.031 2 4.651 3.418 6.745a1.753 1.753 0 0 0 .644.644 1.363 1.363 0 0 0 1.541-.453 5.016 5.016 0 0 0 .766-1.538 4.133 4.133 0 0 1 1.2-1.83 1.8 1.8 0 0 1 2.059-.191 2.749 2.749 0 0 1 .864 1.362l1.416 3.7c.181.474.449 1.021.952 1.09.715.1 1.091-.8 1.288-1.492a8.481 8.481 0 0 1 3.775-5.177 5.447 5.447 0 0 1 6.145.439 2.717 2.717 0 0 1 .833 1.217c.387 1.313-.66 2.586-1.677 3.5a34.332 34.332 0 0 1-3.316 2.634c-1.679 1.171-3.648 2.473-3.861 4.509a8.225 8.225 0 0 1-.177 2.171 3.276 3.276 0 0 1-1.659 1.532 15.748 15.748 0 0 1-13.332.613c-3.873-1.734-2.054-5.738-4.229-8.753a11.307 11.307 0 0 0-5.507-4.114z" fill="#a6fbff"></path><path d="M43.728 27.838a2.717 2.717 0 0 0-.833-1.217 5.447 5.447 0 0 0-6.145-.439 8.486 8.486 0 0 0-3.776 5.177c-.2.694-.572 1.588-1.287 1.492-.5-.069-.771-.616-.952-1.09l-1.416-3.7a2.749 2.749 0 0 0-.864-1.362 1.8 1.8 0 0 0-2.059.191 4.133 4.133 0 0 0-1.2 1.83 5.016 5.016 0 0 1-.766 1.538 1.363 1.363 0 0 1-1.541.453 1.763 1.763 0 0 1-.644-.645c-1.413-2.093-1.915-4.713-3.418-6.744-.715-.966-2.1-1.8-3.042-1.056-.806.642-.587 1.889-.413 2.905s-.019 2.39-1.033 2.579a2 2 0 0 1-1-.146c-2.6-.886-5-2.623-7.745-2.618-.994 0-2.174.424-2.363 1.4-.206 1.073.921 1.913 1.949 2.283 1.554.559 3.223.735 4.79 1.261a10.726 10.726 0 0 1 2.851 1.48c.378.16.758.313 1.143.444a2 2 0 0 0 1 .146c1.014-.189 1.206-1.562 1.033-2.579s-.393-2.263.413-2.905c.941-.749 2.327.09 3.042 1.056 1.5 2.031 2 4.651 3.418 6.744a1.763 1.763 0 0 0 .644.645 1.363 1.363 0 0 0 1.546-.461 5.016 5.016 0 0 0 .766-1.538 4.133 4.133 0 0 1 1.2-1.83 1.8 1.8 0 0 1 2.059-.191 2.749 2.749 0 0 1 .864 1.362l1.416 3.705c.181.474.449 1.021.952 1.09.715.1 1.091-.8 1.287-1.492a8.486 8.486 0 0 1 3.776-5.177 5.6 5.6 0 0 1 5.55 0 2.867 2.867 0 0 0 .798-2.591z" fill="#d9fdff"></path><path d="M9.978 29.925c-1.567-.526-3.236-.7-4.79-1.261-1.028-.37-2.155-1.21-1.948-2.283.188-.976 1.368-1.4 2.362-1.4 2.745-.005 5.147 1.732 7.745 2.618a2 2 0 0 0 1 .146c1.014-.189 1.206-1.563 1.033-2.579s-.393-2.263.413-2.905c.941-.749 2.327.09 3.042 1.056 1.5 2.031 2 4.651 3.418 6.745a1.753 1.753 0 0 0 .644.644 1.363 1.363 0 0 0 1.541-.453 5.016 5.016 0 0 0 .766-1.538 4.133 4.133 0 0 1 1.2-1.83 1.8 1.8 0 0 1 2.059-.191 2.749 2.749 0 0 1 .864 1.362l1.416 3.7c.181.474.449 1.021.952 1.09.715.1 1.091-.8 1.288-1.492a8.481 8.481 0 0 1 3.775-5.177 5.447 5.447 0 0 1 6.145.439 2.717 2.717 0 0 1 .833 1.217c.387 1.313-.66 2.586-1.677 3.5a34.332 34.332 0 0 1-3.316 2.634c-1.679 1.171-3.648 2.473-3.861 4.509a8.225 8.225 0 0 1-.177 2.171 3.276 3.276 0 0 1-1.659 1.532 15.748 15.748 0 0 1-13.332.613c-3.873-1.734-2.054-5.738-4.229-8.753a11.307 11.307 0 0 0-5.507-4.114zm4.602 10.098a3.977 3.977 0 0 0 1.089 4.516 6.644 6.644 0 0 0 2.181 1.083 23.308 23.308 0 0 0 5.98 1.146" fill="none" stroke="#45413c" stroke-linecap="round" stroke-linejoin="round" stroke-width="1.25px"></path><path d="M37.776 38.709a3.979 3.979 0 0 1-1.089 4.517 6.663 6.663 0 0 1-2.181 1.083 23.307 23.307 0 0 1-5.98 1.145" fill="none" stroke="#45413c" stroke-linecap="round" stroke-linejoin="round" stroke-width="1.25px"></path><path d="M43.963 14.764a2.856 2.856 0 0 1 3.326 1.581 2.073 2.073 0 0 1 .109 1 2.028 2.028 0 0 1-2.021 1.882 4.781 4.781 0 0 1-1.762-.128c-.615-.163-1.192-.449-1.8-.621a3.222 3.222 0 0 0-1.14-.128.361.361 0 0 1-.369-.517.377.377 0 0 1 .033-.056c2.191-3.046 3.53-2.995 3.624-3.013z" fill="#a6fbff" stroke="#45413c" stroke-linecap="round" stroke-linejoin="round" stroke-width="1.25px"></path><path d="M35.821 9.461a2.314 2.314 0 0 1 2.981.157 1.674 1.674 0 0 1 .39.714 1.644 1.644 0 0 1-.934 2.035 3.867 3.867 0 0 1-1.359.448c-.512.068-1.032.032-1.545.093a2.612 2.612 0 0 0-.894.256.292.292 0 0 1-.436-.274.328.328 0 0 1 .007-.052c.706-2.959 1.725-3.338 1.79-3.377z" fill="#d9fdff" stroke="#45413c" stroke-linecap="round" stroke-linejoin="round" stroke-width="1.25px"></path><path d="M9.2 7.685a4.224 4.224 0 0 0-5.43-.448 3.047 3.047 0 0 0-.879 1.2 3 3 0 0 0 1.188 3.909 7.057 7.057 0 0 0 2.348 1.145c.909.248 1.859.311 2.771.546a4.756 4.756 0 0 1 1.553.683.535.535 0 0 0 .857-.388.6.6 0 0 0 0-.1c-.55-5.525-2.301-6.455-2.408-6.547z" fill="#e5feff" stroke="#45413c" stroke-linecap="round" stroke-linejoin="round" stroke-width="1.25px"></path><path d="M18.562 4.726a2.432 2.432 0 0 0-2.811-1.4 1.756 1.756 0 0 0-.726.452 1.728 1.728 0 0 0-.2 2.346 4.067 4.067 0 0 0 1.016 1.116c.433.326.928.563 1.366.883a2.753 2.753 0 0 1 .686.7.308.308 0 0 0 .542-.025.351.351 0 0 0 .02-.051c.884-3.078.145-3.947.107-4.021z" fill="#ffffff" stroke="#45413c" stroke-linecap="round" stroke-linejoin="round" stroke-width="1.25px"></path></svg>