<svg xmlns="http://www.w3.org/2000/svg" viewBox="0 0 50 50" height="1920" width="1920"><defs></defs><path d="M20.105 28.314a19.619 19.619 0 0 1-2.418-1.835q-1.131-.969-2.221-1.984a7.56 7.56 0 0 1-1.266-1.413c-1.251-1.962-.982-6.783 2.183-6.806 1.158-.008 2.118.967 2.834 1.766a5.22 5.22 0 0 1 .049-1.679c.788-3.145 5.227-2.258 5.811.575a1.756 1.756 0 0 1 2.326-.447 3.972 3.972 0 0 1 1.565 2.048 5.836 5.836 0 0 1 .45 1.6 6.347 6.347 0 0 1-.2 2.113 16.853 16.853 0 0 1-3.958 7.481c-.2.215-.732.977-1.018 1.006-.315.032-.784-.509-1.052-.688-.99-.659-2.083-1.118-3.085-1.737z" fill="#ff6242"></path><path d="M17.786 20.824a2.677 2.677 0 0 1 1.572.573.9.9 0 0 0 1.375-.546c.722-2.836 4.119-2.246 5.352-.321a.888.888 0 0 0 1.062.393 1.981 1.981 0 0 1 1.659.117 2.572 2.572 0 0 1 .555.427 5.129 5.129 0 0 0 .053-1.332 5.834 5.834 0 0 0-.449-1.6 3.975 3.975 0 0 0-1.565-2.044 1.759 1.759 0 0 0-2.328.447c-.582-2.833-5.022-3.72-5.81-.575a5.22 5.22 0 0 0-.049 1.679c-.716-.8-1.676-1.774-2.834-1.766-3.165.023-3.434 4.844-2.183 6.806a5.566 5.566 0 0 0 .76.919c.206-1.664 1.068-3.164 2.83-3.177z" fill="#ff866e"></path><path d="M20.105 28.314a19.619 19.619 0 0 1-2.418-1.835q-1.131-.969-2.221-1.984a7.56 7.56 0 0 1-1.266-1.413c-1.251-1.962-.982-6.783 2.183-6.806 1.158-.008 2.118.967 2.834 1.766a5.22 5.22 0 0 1 .049-1.679c.788-3.145 5.227-2.258 5.811.575a1.756 1.756 0 0 1 2.326-.447 3.972 3.972 0 0 1 1.565 2.048 5.836 5.836 0 0 1 .45 1.6 6.347 6.347 0 0 1-.2 2.113 16.853 16.853 0 0 1-3.958 7.481c-.2.215-.732.977-1.018 1.006-.315.032-.784-.509-1.052-.688-.99-.659-2.083-1.118-3.085-1.737z" fill="none" stroke="#45413c" stroke-linecap="round" stroke-linejoin="round" stroke-width="1.25px"></path><path d="M29.215 30.067a19.552 19.552 0 0 0 3.017.338q1.486.078 2.976.094a7.5 7.5 0 0 0 1.894-.148c2.258-.559 5.387-4.236 3.111-6.435-.833-.8-2.2-.759-3.271-.675a5.192 5.192 0 0 0 1.123-1.25c1.6-2.821-2.23-5.239-4.6-3.589a1.758 1.758 0 0 0-1.378-1.928 3.981 3.981 0 0 0-2.545.4 5.861 5.861 0 0 0-1.426.847A6.312 6.312 0 0 0 26.8 19.4a16.824 16.824 0 0 0-2.291 8.147c-.006.292-.144 1.212.044 1.431.205.24.919.171 1.236.226 1.164.196 2.273.621 3.426.863z" fill="#ff6242"></path><path d="M36.059 26.241a2.678 2.678 0 0 0-1.533-.669.9.9 0 0 1-.62-1.344c1.432-2.551-1.435-4.466-3.656-3.922a.887.887 0 0 1-1.04-.448 1.984 1.984 0 0 0-1.282-1.058 2.6 2.6 0 0 0-.7-.073 5.089 5.089 0 0 1 .879-1 5.861 5.861 0 0 1 1.426-.847 3.981 3.981 0 0 1 2.545-.4 1.758 1.758 0 0 1 1.382 1.92c2.375-1.65 6.2.768 4.6 3.589a5.232 5.232 0 0 1-1.123 1.25c1.07-.084 2.438-.129 3.271.675 2.276 2.2-.853 5.876-3.111 6.435a5.621 5.621 0 0 1-1.185.142c1.005-1.345 1.414-3.026.147-4.25z" fill="#ff866e"></path><path d="M29.215 30.067a19.552 19.552 0 0 0 3.017.338q1.486.078 2.976.094a7.5 7.5 0 0 0 1.894-.148c2.258-.559 5.387-4.236 3.111-6.435-.833-.8-2.2-.759-3.271-.675a5.192 5.192 0 0 0 1.123-1.25c1.6-2.821-2.23-5.239-4.6-3.589a1.758 1.758 0 0 0-1.378-1.928 3.981 3.981 0 0 0-2.545.4 5.861 5.861 0 0 0-1.426.847A6.312 6.312 0 0 0 26.8 19.4a16.824 16.824 0 0 0-2.291 8.147c-.006.292-.144 1.212.044 1.431.205.24.919.171 1.236.226 1.164.196 2.273.621 3.426.863z" fill="none" stroke="#45413c" stroke-linecap="round" stroke-linejoin="round" stroke-width="1.25px"></path><path d="M25.282 29.934c2.793 3.067 3.039 7.715 5.35 11.16a5.356 5.356 0 0 0 1.8 1.78 4.164 4.164 0 0 0 1.158.41 3.819 3.819 0 0 0 3.442-.891 2.6 2.6 0 0 0 .3-3.365 3.469 3.469 0 0 0 3.147.725 2.905 2.905 0 0 0 2.068-2.4 2.505 2.505 0 0 0-1.69-2.6 2.455 2.455 0 0 0 2.452-1.455 3.466 3.466 0 0 0-.153-2.951 6.021 6.021 0 0 0-2.069-2.2 12.332 12.332 0 0 0-4.822-1.832 17.165 17.165 0 0 0-11.375 2.004c-.086.05-.18.111-.2.208a.366.366 0 0 0 .073.249l1.382 2.373" fill="#ff6242"></path><path d="M43.154 30.342a6.032 6.032 0 0 0-2.07-2.2 10.4 10.4 0 0 0-1.738-.922 4.576 4.576 0 0 1 .308.5 3.47 3.47 0 0 1 .152 2.951 2.6 2.6 0 0 1-.887 1.05 1.007 1.007 0 0 0-.277 1.4 2.533 2.533 0 0 1 .4 1.6 2.905 2.905 0 0 1-2.068 2.405 3.219 3.219 0 0 1-1.536.053.976.976 0 0 0-1.138.921 2.778 2.778 0 0 1-.771 1.67 3.63 3.63 0 0 1-2.724.97l-.185.343a5.346 5.346 0 0 0 1.808 1.793 4.164 4.164 0 0 0 1.158.41 3.822 3.822 0 0 0 3.443-.891 2.6 2.6 0 0 0 .3-3.365 3.473 3.473 0 0 0 3.148.726 2.905 2.905 0 0 0 2.068-2.405 2.506 2.506 0 0 0-1.691-2.6 2.456 2.456 0 0 0 2.453-1.455 3.47 3.47 0 0 0-.153-2.954z" fill="#ff866e"></path><path d="M25.282 29.934c2.793 3.067 3.039 7.715 5.35 11.16a5.356 5.356 0 0 0 1.8 1.78 4.164 4.164 0 0 0 1.158.41 3.819 3.819 0 0 0 3.442-.891 2.6 2.6 0 0 0 .3-3.365 3.469 3.469 0 0 0 3.147.725 2.905 2.905 0 0 0 2.068-2.4 2.505 2.505 0 0 0-1.69-2.6 2.455 2.455 0 0 0 2.452-1.455 3.466 3.466 0 0 0-.153-2.951 6.021 6.021 0 0 0-2.069-2.2 12.332 12.332 0 0 0-4.822-1.832 17.165 17.165 0 0 0-11.375 2.004c-.086.05-.18.111-.2.208a.366.366 0 0 0 .073.249l1.382 2.373" fill="none" stroke="#45413c" stroke-linecap="round" stroke-linejoin="round" stroke-width="1.25px"></path><path d="M20.547 32.784a21.607 21.607 0 0 1-2.783 1.864q-1.418.833-2.868 1.6a8.328 8.328 0 0 1-1.93.817c-2.5.6-7.429-1.411-6.317-4.722.407-1.212 1.77-1.862 2.861-2.323a5.746 5.746 0 0 1-1.735-.654c-3-1.951-.478-6.265 2.687-5.856a1.939 1.939 0 0 1 .37-2.588 4.379 4.379 0 0 1 2.7-.9 6.466 6.466 0 0 1 1.827.1 6.978 6.978 0 0 1 2.131.972 18.59 18.59 0 0 1 6.384 6.816c.153.283.756 1.114.684 1.423-.08.34-.813.635-1.1.85-1.034.8-1.905 1.778-2.911 2.601z" fill="#ff6242"></path><path d="M11.9 32.514a2.955 2.955 0 0 1 1.162-1.434.991.991 0 0 0-.076-1.631c-2.7-1.771-.863-5.1 1.588-5.7a.979.979 0 0 0 .791-.967 2.19 2.19 0 0 1 .718-1.689 2.858 2.858 0 0 1 .645-.425 5.683 5.683 0 0 0-1.37-.535 6.468 6.468 0 0 0-1.827-.1 4.385 4.385 0 0 0-2.7.9 1.939 1.939 0 0 0-.37 2.588c-3.161-.415-5.684 3.899-2.686 5.85a5.756 5.756 0 0 0 1.735.654c-1.091.461-2.454 1.111-2.861 2.323-1.112 3.31 3.821 5.322 6.317 4.722a6.24 6.24 0 0 0 1.233-.463c-1.664-.807-2.919-2.25-2.299-4.093z" fill="#ff866e"></path><path d="M20.547 32.784a21.607 21.607 0 0 1-2.783 1.864q-1.418.833-2.868 1.6a8.328 8.328 0 0 1-1.93.817c-2.5.6-7.429-1.411-6.317-4.722.407-1.212 1.77-1.862 2.861-2.323a5.746 5.746 0 0 1-1.735-.654c-3-1.951-.478-6.265 2.687-5.856a1.939 1.939 0 0 1 .37-2.588 4.379 4.379 0 0 1 2.7-.9 6.466 6.466 0 0 1 1.827.1 6.978 6.978 0 0 1 2.131.972 18.59 18.59 0 0 1 6.384 6.816c.153.283.756 1.114.684 1.423-.08.34-.813.635-1.1.85-1.034.8-1.905 1.778-2.911 2.601z" fill="none" stroke="#45413c" stroke-linecap="round" stroke-linejoin="round" stroke-width="1.25px"></path><path d="M15.845 34.174a12.94 12.94 0 0 0-4.373 6.193c-.606 2.26.172 5.02 2.6 5.82 2.594.853 4.9-2.018 4.976-3.089-.134 1.778 1.217 4.224 3 4.25a3.93 3.93 0 0 0 3.417-3.833 5.7 5.7 0 0 0 2.006 3.462 3.4 3.4 0 0 0 3.7-.318c1.271-.952 1.514-2.586 1.515-4.1A15.567 15.567 0 0 0 24.7 29.036c-.391-.21-3.547 1.758-4.07 2.027a26.3 26.3 0 0 0-4.785 3.111z" fill="#ff6242"></path><path d="M32.081 41.743a3.394 3.394 0 0 1-3.7.317 3.568 3.568 0 0 1-1.081-1.154 1.019 1.019 0 0 0-1.658-.079 3.626 3.626 0 0 1-2.683 1.6 3.156 3.156 0 0 1-2.54-2.043A1 1 0 0 0 18.8 40.1a3.79 3.79 0 0 1-3.813 1.167 4.018 4.018 0 0 1-2.631-3.018 9.333 9.333 0 0 0-.885 2.115c-.606 2.261.172 5.02 2.6 5.82 2.593.853 4.895-2.018 4.975-3.089-.134 1.779 1.217 4.223 3 4.25a3.931 3.931 0 0 0 3.417-3.834 5.7 5.7 0 0 0 2.006 3.463 3.4 3.4 0 0 0 3.7-.318c1.271-.952 1.514-2.586 1.515-4.1 0-.447-.027-.892-.067-1.336a3.189 3.189 0 0 1-.536.523z" fill="#ff866e"></path><path d="M15.845 34.174a12.94 12.94 0 0 0-4.373 6.193c-.606 2.26.172 5.02 2.6 5.82 2.594.853 4.9-2.018 4.976-3.089-.134 1.778 1.217 4.224 3 4.25a3.93 3.93 0 0 0 3.417-3.833 5.7 5.7 0 0 0 2.006 3.462 3.4 3.4 0 0 0 3.7-.318c1.271-.952 1.514-2.586 1.515-4.1A15.567 15.567 0 0 0 24.7 29.036c-.391-.21-3.547 1.758-4.07 2.027a26.3 26.3 0 0 0-4.785 3.111z" fill="none" stroke="#45413c" stroke-linecap="round" stroke-linejoin="round" stroke-width="1.25px"></path><path d="M15.544 27.3a8.431 8.431 0 0 1 7.256 1.236m.864 8.527a11.98 11.98 0 0 0 .9-6.867m1.646-1.402A11.7 11.7 0 0 1 32.878 30" stroke="#e04122" stroke-linecap="round" stroke-linejoin="round" stroke-width="1.25px" fill="none"></path><circle cx="29.46" cy="7.237" r="2.282" fill="#ffe500" stroke="#45413c" stroke-linecap="round" stroke-linejoin="round" stroke-width="1.25px"></circle><circle cx="39.348" cy="4.897" r="2.282" fill="#ffe500" stroke="#45413c" stroke-linecap="round" stroke-linejoin="round" stroke-width="1.25px"></circle><circle cx="38.758" cy="13.289" r="2.282" fill="#ffe500" stroke="#45413c" stroke-linecap="round" stroke-linejoin="round" stroke-width="1.25px"></circle><path d="M35.259 9.035c-4.985 3.932-9.809 11.44-11.94 18.852a1.771 1.771 0 0 0 1.093 2.159h0a1.757 1.757 0 0 0 2.312-1.266c1.7-7.374 6.407-14.433 9.723-18.563a.843.843 0 0 0-1.188-1.182z" fill="#ffe500" stroke="#45413c" stroke-linecap="round" stroke-linejoin="round" stroke-width="1.25px"></path></svg>