<svg xmlns="http://www.w3.org/2000/svg" viewBox="0 0 50 50" height="1920" width="1920"><defs></defs><path d="M45.611 13.889a1.468 1.468 0 0 0-2.036-1.842l-1.849 1.012a.769.769 0 0 1-1.138-.647l-.025-.674a1.407 1.407 0 1 0-2.813.105l.1 2.849a.769.769 0 0 1-.4.7l-2.26 1.242-.06-.961a.769.769 0 0 0-.72-.719l-2.063-.131a.768.768 0 0 1-.643-.43l-.904-1.856a.769.769 0 0 0-.941-.39l-1.954.671a.772.772 0 0 1-.759-.151l-.464-.409a.77.77 0 0 1-.261-.578v-2.3a.772.772 0 0 1 .425-.689l2.872-1.435a.728.728 0 0 0 .386-.442 1.467 1.467 0 0 0-1.97-1.914l-.6.3a.77.77 0 0 1-1.114-.688V2.407a1.408 1.408 0 0 0-2.815 0v2.108a.77.77 0 0 1-1.114.688l-.6-.3a1.467 1.467 0 0 0-1.971 1.915.729.729 0 0 0 .386.441l2.871 1.435a.771.771 0 0 1 .426.689v2.426a.768.768 0 0 1-.261.577l-.319.281a.77.77 0 0 1-.758.151l-1.954-.671a.77.77 0 0 0-.942.39l-.906 1.856a.768.768 0 0 1-.643.43l-2.064.13a.77.77 0 0 0-.719.72l-.066 1.05-2.427-1.323a.77.77 0 0 1-.4-.7l.106-2.849a1.407 1.407 0 0 0-2.813-.105l-.025.674a.769.769 0 0 1-1.138.647l-1.849-1.02a1.467 1.467 0 0 0-2.035 1.844.732.732 0 0 0 .369.454l2.164 1.183a.77.77 0 0 1 .069 1.307l-.851.591a.725.725 0 0 0-.319.492 1.507 1.507 0 0 0 1.419 1.866 1.4 1.4 0 0 0 .8-.252l2.342-1.625a.769.769 0 0 1 .808-.042l2.045 1.119-.618.3a.769.769 0 0 0-.39.941l.671 1.954a.772.772 0 0 1-.151.759l-1.366 1.551a.768.768 0 0 0 0 1.018l1.368 1.553a.772.772 0 0 1 .151.759l-.671 1.954a.769.769 0 0 0 .39.941h.008A.769.769 0 0 1 12.785 32l-1.166.98a.773.773 0 0 1-.8.117L8.2 31.962a1.467 1.467 0 0 0-1.857 2.021.724.724 0 0 0 .409.419l.948.411a.769.769 0 0 1 .189 1.295l-1.612 1.355a1.408 1.408 0 0 0 1.811 2.157L9.7 38.264a.77.77 0 0 1 1.244.41l.156.656a1.409 1.409 0 0 0 1.368 1.079 1.674 1.674 0 0 0 1.351-.773.73.73 0 0 0 .105-.6l-.75-3.132a.771.771 0 0 1 .254-.769L15 33.81l.079 1.19 2.74.172a.769.769 0 0 1 .643.43l.907 1.857a.769.769 0 0 0 .941.39l2.377-.816.749.66v2.92a.77.77 0 0 1-.425.688l-2.869 1.439a.738.738 0 0 0-.389.445 1.493 1.493 0 0 0 1.339 2.062 1.4 1.4 0 0 0 .628-.149l.6-.3a.77.77 0 0 1 1.113.689v2.108a1.408 1.408 0 0 0 2.815 0v-2.11a.77.77 0 0 1 1.114-.689l.6.3a1.406 1.406 0 0 0 .629.149 1.493 1.493 0 0 0 1.339-2.062.738.738 0 0 0-.389-.445l-2.87-1.435a.77.77 0 0 1-.425-.688v-2.149a.768.768 0 0 1 .261-.577l.631-.556a.772.772 0 0 1 .759-.151l1.954.671a.769.769 0 0 0 .941-.39l.907-1.856a.767.767 0 0 1 .643-.43L35.087 35l.067-1.061 1.417 1.19a.77.77 0 0 1 .253.769l-.749 3.132a.73.73 0 0 0 .1.6 1.677 1.677 0 0 0 1.352.773A1.407 1.407 0 0 0 38.9 39.33l.157-.656a.769.769 0 0 1 1.243-.41l1.614 1.356a1.408 1.408 0 0 0 1.811-2.157l-1.614-1.355a.769.769 0 0 1 .189-1.295l.948-.411a.724.724 0 0 0 .409-.419 1.467 1.467 0 0 0-1.857-2.021L39.182 33.1a.773.773 0 0 1-.8-.117l-1.1-.928a.77.77 0 0 1 .157-1.281l.113-.055a.769.769 0 0 0 .39-.941l-.67-1.954a.769.769 0 0 1 .15-.759l1.367-1.551a.771.771 0 0 0 0-1.018l-1.373-1.556a.769.769 0 0 1-.15-.759l.67-1.954a.769.769 0 0 0-.39-.941l-.706-.345 1.967-1.076a.77.77 0 0 1 .808.042l2.342 1.625a1.4 1.4 0 0 0 .8.252 1.508 1.508 0 0 0 1.42-1.866.726.726 0 0 0-.32-.492l-.85-.591a.769.769 0 0 1 .069-1.307l2.164-1.184a.727.727 0 0 0 .371-.455z" stroke="#45413c" stroke-linecap="round" stroke-linejoin="round" stroke-width="1.25px" fill="#ffffff"></path><path d="m35.16 25.509-.826.938a.77.77 0 0 0-.151.758l.406 1.182a.769.769 0 0 1-.39.941l-1.122.548a.766.766 0 0 0-.43.643l-.079 1.247a.769.769 0 0 1-.72.719l-1.247.079a.768.768 0 0 0-.643.43l-.548 1.122a.77.77 0 0 1-.941.39l-1.181-.406a.77.77 0 0 0-.758.151l-.938.826a.769.769 0 0 1-1.017 0l-.939-.826a.77.77 0 0 0-.758-.151l-1.181.406a.77.77 0 0 1-.941-.39l-.548-1.122a.771.771 0 0 0-.643-.431l-1.248-.078a.769.769 0 0 1-.719-.72l-.079-1.247a.768.768 0 0 0-.43-.643l-1.122-.548a.77.77 0 0 1-.39-.941l.406-1.181a.77.77 0 0 0-.151-.758l-.826-.939a.769.769 0 0 1 0-1.017l.826-.938a.77.77 0 0 0 .151-.758l-.406-1.182a.771.771 0 0 1 .391-.941l1.121-.548a.77.77 0 0 0 .431-.643l.078-1.247a.769.769 0 0 1 .72-.719l1.247-.079a.769.769 0 0 0 .643-.43l.548-1.122a.769.769 0 0 1 .941-.39l1.181.406a.77.77 0 0 0 .758-.151l.939-.826a.769.769 0 0 1 1.017 0l.938.826a.771.771 0 0 0 .758.151l1.182-.406a.77.77 0 0 1 .941.39l.548 1.122a.767.767 0 0 0 .643.43l1.247.079a.769.769 0 0 1 .719.72l.079 1.247a.77.77 0 0 0 .43.643l1.122.548a.769.769 0 0 1 .39.941l-.405 1.186a.767.767 0 0 0 .15.758l.826.938a.771.771 0 0 1 0 1.013z" fill="#a6fbff" stroke="#45413c" stroke-linecap="round" stroke-linejoin="round" stroke-width="1.25px"></path><circle cx="20.107" cy="25.318" r=".938" fill="#45413c"></circle><path d="M22.061 29.244c.268.846 1.483 1.486 2.944 1.486s2.677-.64 2.945-1.486" fill="none" stroke="#45413c" stroke-linecap="round" stroke-linejoin="round" stroke-width="1.25px"></path><circle cx="29.893" cy="25.318" r=".938" fill="#45413c"></circle></svg>