<svg xmlns="http://www.w3.org/2000/svg" viewBox="0 0 50 50" height="1920" width="1920"><defs></defs><path d="M4.261 29.3c1.516 8.366 9.32 15.469 20.818 15.469S44.78 37.743 45.9 29.3c2.28-17.288-8.487-24.064-19.984-24.064S1.128 12.012 4.261 29.3z" fill="#87898c"></path><path d="M25.916 5.236c.848 0 1.69.041 2.525.116-10.425 1.332-20.728 8.382-17.93 23.818 1.4 7.722 8.164 14.355 18.238 15.332a26.8 26.8 0 0 1-3.67.262c-11.5 0-19.3-7.1-20.818-15.469C1.128 12.012 14.419 5.236 25.916 5.236z" fill="#fff48c"></path><path d="M26 10.236c9.689 0 18.857 4.815 20.134 16.673 1.024-15.524-9.265-21.673-20.218-21.673-11.062 0-23.785 6.273-21.941 22.143C5.07 15.181 16.184 10.236 26 10.236z" fill="#bdbec0"></path><path d="M13.53 13.155c3.5-4.618 9.187-7.072 14.91-7.8a27.226 27.226 0 0 0-14.806 2.7l-.055.028A18.784 18.784 0 0 0 8.2 12.166l-.01.012c-1.5 1.66-5.257 6.255-4.217 15.2a17.244 17.244 0 0 1 9.557-14.223z" fill="#fffacf"></path><path d="M4.261 29.3c1.516 8.366 9.32 15.469 20.818 15.469S44.78 37.743 45.9 29.3c2.28-17.288-8.487-24.064-19.984-24.064S1.128 12.012 4.261 29.3z" fill="none" stroke="#45413c" stroke-linecap="round" stroke-linejoin="round" stroke-width="1.25px"></path><path d="M4.261 29.3c1.516 8.366 9.32 15.469 20.818 15.469S44.78 37.743 45.9 29.3c2.28-17.288-8.487-24.064-19.984-24.064S1.128 12.012 4.261 29.3z" fill="none" stroke="#45413c" stroke-linecap="round" stroke-linejoin="round" stroke-width="1.25px"></path><path d="M30.593 16.845a1.476 1.476 0 0 0 .876 1.439c.665.324 1.5.133 1.545-.7.04-.722-.325-1.712-1.143-1.811a1.213 1.213 0 0 0-1.278 1.072zM41.478 30.75a1.332 1.332 0 0 0-1.038-1.029h-.075a1.22 1.22 0 0 0-1.2 1.072 1.476 1.476 0 0 0 .876 1.439 1.552 1.552 0 0 0 .255.1.921.921 0 0 0 1.29-.8 2.274 2.274 0 0 0-.108-.782z" fill="#525252"></path><circle cx="18.164" cy="27.844" r="1.4" fill="#45413c"></circle><path d="M21.079 33.7c.4 1.262 2.213 2.216 4.393 2.216s3.994-.954 4.394-2.216" fill="none" stroke="#45413c" stroke-linecap="round" stroke-linejoin="round" stroke-width="1.25px"></path><circle cx="32.765" cy="27.844" r="1.4" fill="#45413c"></circle><path d="M35.753 16.194a3.791 3.791 0 0 0 2.252 3.7c1.708.833 3.851.341 3.97-1.8.1-1.855-.836-4.4-2.937-4.653a3.115 3.115 0 0 0-3.285 2.753z" fill="#656769"></path><path d="M39.038 13.44a3.115 3.115 0 0 0-3.285 2.754 2.633 2.633 0 0 0 .019.97l.01-.012a2.952 2.952 0 0 1 3.006-1.879c.017 0 .031.01.048.012a3.4 3.4 0 0 1 2.592 2.535c.028.083.045.168.069.253.035.126.075.252.1.38.045.214.1.641.1.642l.012.029a2.532 2.532 0 0 0 .264-1.031c.105-1.855-.834-4.393-2.935-4.653z" fill="#525252"></path><path d="M41.584 24.046a2.166 2.166 0 0 0-.158 2.465c.526.949 1.689 1.421 2.445.46.656-.833 1.05-2.33.151-3.137a1.778 1.778 0 0 0-2.438.212z" fill="#656769"></path><path d="M44.022 23.834a1.778 1.778 0 0 0-2.438.212 1.854 1.854 0 0 0-.452 1.508 1.466 1.466 0 0 1 .264-.382 1.778 1.778 0 0 1 2.438-.212 1.606 1.606 0 0 1 .519 1.124l.005.005a2.015 2.015 0 0 0-.336-2.255z" fill="#525252"></path><path d="M35.343 24.1a1.476 1.476 0 0 0 .876 1.439c.665.324 1.5.133 1.545-.7.04-.722-.325-1.712-1.143-1.811a1.213 1.213 0 0 0-1.278 1.072z" fill="#656769"></path><path d="M36.621 23.023a1.213 1.213 0 0 0-1.278 1.077 1.072 1.072 0 0 0 .05.533l.005-.019a1.146 1.146 0 0 1 1.161-.711 1.447 1.447 0 0 1 1.106 1.309v.014a.98.98 0 0 0 .1-.387c.035-.727-.326-1.717-1.144-1.816z" fill="#525252"></path><path d="M30.7 10.773a2.163 2.163 0 0 0 1.285 2.11c.975.475 2.2.2 2.266-1.026.059-1.059-.477-2.511-1.676-2.656a1.777 1.777 0 0 0-1.875 1.572z" fill="#656769"></path><path d="M32.57 9.2a1.777 1.777 0 0 0-1.87 1.573 1.547 1.547 0 0 0 .065.755v-.005a1.7 1.7 0 0 1 1.743-1.135 2.135 2.135 0 0 1 1.628 1.95v.013a1.5 1.5 0 0 0 .107-.494c.062-1.057-.474-2.511-1.673-2.657z" fill="#525252"></path><path d="M4.261 29.3c1.516 8.366 9.32 15.469 20.818 15.469S44.78 37.743 45.9 29.3c2.28-17.288-8.487-24.064-19.984-24.064S1.128 12.012 4.261 29.3z" fill="none" stroke="#45413c" stroke-linecap="round" stroke-linejoin="round" stroke-width="1.25px"></path></svg>