<svg xmlns="http://www.w3.org/2000/svg" viewBox="0 0 50 50" height="1920" width="1920"><defs></defs><path d="M47.828 24.415 46.054 25.8a1.511 1.511 0 0 0-.472 1.762l.845 2.081a1.51 1.51 0 0 1-1.194 2.066l-2.223.306a1.511 1.511 0 0 0-1.292 1.285l-.306 2.223a1.511 1.511 0 0 1-2.067 1.194l-2.08-.845a1.512 1.512 0 0 0-1.762.472l-1.381 1.776a1.51 1.51 0 0 1-2.385 0l-1.381-1.774a1.513 1.513 0 0 0-1.762-.471l-2.081.845a1.511 1.511 0 0 1-2.066-1.194l-.306-2.226a1.513 1.513 0 0 0-1.292-1.291l-2.223-.306a1.511 1.511 0 0 1-1.194-2.067l.845-2.08a1.511 1.511 0 0 0-.472-1.762l-1.774-1.381a1.513 1.513 0 0 1 0-2.386l1.774-1.381a1.511 1.511 0 0 0 .472-1.762l-.845-2.08a1.511 1.511 0 0 1 1.194-2.067l2.224-.306a1.51 1.51 0 0 0 1.291-1.291l.306-2.223a1.512 1.512 0 0 1 2.067-1.2l2.08.846a1.513 1.513 0 0 0 1.762-.472l1.381-1.774a1.512 1.512 0 0 1 2.385 0L35.5 10.1a1.511 1.511 0 0 0 1.761.472l2.081-.846a1.512 1.512 0 0 1 2.066 1.2l.306 2.223a1.514 1.514 0 0 0 1.292 1.292l2.223.306a1.512 1.512 0 0 1 1.2 2.066l-.846 2.081a1.51 1.51 0 0 0 .472 1.761l1.774 1.381a1.513 1.513 0 0 1-.001 2.379z" stroke="#45413c" stroke-linecap="round" stroke-linejoin="round" stroke-width="1.25px" fill="#ff8a14"></path><circle cx="32.93" cy="23.222" r="12.294" fill="#eb6d00"></circle><circle cx="32.93" cy="23.222" r="11.326" fill="#ffe500"></circle><path d="M32.93 14.626a11.322 11.322 0 0 1 11.236 9.961 11.327 11.327 0 1 0-22.473 0 11.323 11.323 0 0 1 11.237-9.961z" fill="#fff48c"></path><path d="M38.632 27.006a9.937 9.937 0 0 0-1.14.073A14.149 14.149 0 0 0 9.6 24.863a8.712 8.712 0 0 0 .7 17.4h28.332c4.814 0 8.716-3.414 8.716-7.627s-3.902-7.63-8.716-7.63z" fill="#f0f0f0"></path><path d="M9.6 30.31a14.149 14.149 0 0 1 27.891 2.216 9.937 9.937 0 0 1 1.14-.073 8.755 8.755 0 0 1 8.134 4.9 6.778 6.778 0 0 0 .582-2.724c0-4.212-3.9-7.626-8.716-7.626a9.937 9.937 0 0 0-1.14.073A14.149 14.149 0 0 0 9.6 24.863a8.7 8.7 0 0 0-7.57 11.408A8.716 8.716 0 0 1 9.6 30.31z" fill="#ffffff"></path><path d="M38.632 27.006a9.937 9.937 0 0 0-1.14.073A14.149 14.149 0 0 0 9.6 24.863a8.712 8.712 0 0 0 .7 17.4h28.332c4.814 0 8.716-3.414 8.716-7.627s-3.902-7.63-8.716-7.63z" stroke="#45413c" stroke-linecap="round" stroke-linejoin="round" stroke-width="1.25px" fill="none"></path><circle cx="31.278" cy="30.274" r="1.089" fill="#45413c"></circle><circle cx="20.724" cy="30.488" r="1.089" fill="#45413c"></circle><path d="M22.806 34.672a3.2 3.2 0 0 0 6.277 0" stroke="#45413c" stroke-linecap="round" stroke-linejoin="round" stroke-width="1.25px" fill="none"></path><circle cx="18.044" cy="35.578" r="1.202" fill="#ff866e"></circle><circle cx="34.206" cy="34.376" r="1.202" fill="#ff866e"></circle><path d="M9.6 24.863c.23-.019.537-.057.773-.057a8.676 8.676 0 0 1 4.48 1.238" stroke="#45413c" stroke-linecap="round" stroke-linejoin="round" stroke-width="1.25px" fill="none"></path></svg>