<svg xmlns="http://www.w3.org/2000/svg" viewBox="0 0 50 50" height="1920" width="1920"><defs></defs><path d="M18.277 37.271c1.906.9 3.94 1.676 4.414 2.006a2.4 2.4 0 0 1 .3 3.953c-2.081 1.814-5.161.936-7.162-.893a7.033 7.033 0 0 1-2.229-5.659c.119-.924 1.365-1.271 2.236-.669l.008.005a17.347 17.347 0 0 0 2.433 1.257z" fill="#6dd627"></path><path d="M22.892 42.228c-.436-.1-4 0-6-3" stroke="#46b000" stroke-linecap="round" stroke-linejoin="round" stroke-width="1.25px" fill="none"></path><path d="M18.277 37.271c1.906.9 3.94 1.676 4.414 2.006a2.4 2.4 0 0 1 .3 3.953c-2.081 1.814-5.161.936-7.162-.893a7.033 7.033 0 0 1-2.229-5.659c.119-.924 1.365-1.271 2.236-.669l.008.005a17.347 17.347 0 0 0 2.433 1.257z" stroke="#45413c" stroke-linecap="round" stroke-linejoin="round" stroke-width="1.25px" fill="none"></path><path d="M32.173 37.271c-1.906.9-3.941 1.676-4.414 2.006a2.4 2.4 0 0 0-.3 3.953c2.082 1.814 5.161.936 7.162-.893a7.034 7.034 0 0 0 2.236-5.659c-.119-.924-1.366-1.271-2.236-.669l-.008.005a17.347 17.347 0 0 1-2.44 1.257z" fill="#6dd627"></path><path d="M27.558 42.228c.436-.1 4 0 6-3" stroke="#46b000" stroke-linecap="round" stroke-linejoin="round" stroke-width="1.25px" fill="none"></path><path d="M32.173 37.271c-1.906.9-3.941 1.676-4.414 2.006a2.4 2.4 0 0 0-.3 3.953c2.082 1.814 5.161.936 7.162-.893a7.034 7.034 0 0 0 2.236-5.659c-.119-.924-1.366-1.271-2.236-.669l-.008.005a17.347 17.347 0 0 1-2.44 1.257z" stroke="#45413c" stroke-linecap="round" stroke-linejoin="round" stroke-width="1.25px" fill="none"></path><path d="m22.558 29.228.921 17.5a1.582 1.582 0 0 0 1.579 1.5h0a1.582 1.582 0 0 0 1.579-1.5l.921-17.5z" fill="#46b000" stroke="#45413c" stroke-linecap="round" stroke-linejoin="round" stroke-width="1.25px"></path><path d="M39.481 14.083c-3.622-.518-6.791.687-7.267 4.013s2.475 5.545 6.1 6.064 5.281-.63 5.757-3.957-.971-5.603-4.59-6.12z" fill="#f0f0f0" stroke="#45413c" stroke-linecap="round" stroke-linejoin="round" stroke-width="1.25px"></path><path d="M38.121 24.535c-2.655-2.518-5.937-3.368-8.25-.931s-1.188 5.955 1.466 8.474 4.672 2.54 6.985.1 2.453-5.125-.201-7.643zM30.526 6.906c-2.107 2.991-2.472 6.362.276 8.3s6.064.312 8.171-2.679 1.836-4.991-.911-6.926-5.429-1.687-7.536 1.305z" fill="#f0f0f0" stroke="#45413c" stroke-linecap="round" stroke-linejoin="round" stroke-width="1.25px"></path><path d="M31.279 13.644a5.414 5.414 0 0 1 2.764-3.328m.102 8.67a9.283 9.283 0 0 1 5.312-.075m-8.674 5.945a8.348 8.348 0 0 1 3.044 2.867" stroke="#45413c" stroke-linecap="round" stroke-linejoin="round" stroke-width="1.25px" fill="none"></path><path d="M10.519 14.083c3.622-.518 6.791.687 7.267 4.013s-2.475 5.545-6.1 6.064-5.278-.63-5.754-3.96.968-5.6 4.587-6.117z" fill="#f0f0f0" stroke="#45413c" stroke-linecap="round" stroke-linejoin="round" stroke-width="1.25px"></path><path d="M11.879 24.535c2.655-2.518 5.937-3.368 8.25-.931s1.188 5.955-1.466 8.474-4.672 2.54-6.985.1-2.453-5.125.201-7.643zm7.595-17.629c2.107 2.991 2.472 6.362-.276 8.3s-6.064.312-8.171-2.679-1.836-4.994.911-6.927 5.429-1.686 7.536 1.306z" fill="#f0f0f0" stroke="#45413c" stroke-linecap="round" stroke-linejoin="round" stroke-width="1.25px"></path><path d="M18.721 13.644a5.414 5.414 0 0 0-2.764-3.328m-.102 8.67a9.283 9.283 0 0 0-5.312-.075m8.674 5.945a8.348 8.348 0 0 0-3.044 2.867" stroke="#45413c" stroke-linecap="round" stroke-linejoin="round" stroke-width="1.25px" fill="none"></path><path d="M30.239 7.181c0 3.659-1.642 6.625-5 6.625S20.1 10.569 20.1 6.91s1.372-5.138 4.732-5.138 5.407 1.75 5.407 5.409zm0 24.192c0-3.659-1.642-6.625-5-6.625s-5.138 3.236-5.138 6.9 1.372 5.138 4.732 5.138 5.406-1.754 5.406-5.413z" fill="#f0f0f0" stroke="#45413c" stroke-linecap="round" stroke-linejoin="round" stroke-width="1.25px"></path><path d="M24.755 27.754a6.235 6.235 0 0 1 .215 3.951m.153-20.228a25.329 25.329 0 0 0-.342-4.348" stroke="#45413c" stroke-linecap="round" stroke-linejoin="round" stroke-width="1.25px" fill="none"></path><ellipse cx="25.201" cy="19.273" rx="10.354" ry="9.954" fill="#ffe500"></ellipse><path d="M24.684 13.238A10.188 10.188 0 0 1 35 22.468a9.556 9.556 0 0 0 .555-3.195A10.16 10.16 0 0 0 25.2 9.319a10.16 10.16 0 0 0-10.354 9.954c0 .245.02.484.038.725a10.325 10.325 0 0 1 9.8-6.76z" fill="#fff48c"></path><ellipse cx="25.201" cy="19.273" rx="10.354" ry="9.954" stroke="#45413c" stroke-linecap="round" stroke-linejoin="round" stroke-width="1.25px" fill="none"></ellipse><circle cx="20.004" cy="20.476" r="1" fill="#45413c"></circle><path d="M22.086 24.66c.287.9 1.581 1.584 3.139 1.584s2.852-.682 3.138-1.584" stroke="#45413c" stroke-linecap="round" stroke-linejoin="round" stroke-width="1.25px" fill="none"></path><circle cx="30.434" cy="20.476" r="1" fill="#45413c"></circle></svg>